<?xml version="1.0" encoding="UTF-8" standalone="no"?>
<svg width="180px" height="44px" viewBox="0 0 180 44" version="1.1" xmlns="http://www.w3.org/2000/svg" xmlns:xlink="http://www.w3.org/1999/xlink">
    <!-- Generator: Sketch 43.2 (39069) - http://www.bohemiancoding.com/sketch -->
    <title>logo-web</title>
    <desc>Created with Sketch.</desc>
    <defs></defs>
    <g id="Symbols" stroke="none" stroke-width="1" fill="none" fill-rule="evenodd">
        <rect id="Rectangle" x="0" y="0" width="180" height="44"></rect>
        <g id="logo-web" fill="#333333">
            <path d="M14.6084351,4 C24.0642379,4 29.2173913,12.1799886 29.2173913,18.6918091 C29.2173913,30.5181724 14.9033714,39.8298629 14.6095352,40 C14.3140199,39.8298629 5.89058135e-16,30.5181724 0,18.6918091 C0,12.1799886 5.15263241,4 14.6084351,4 Z M24.9723014,12.4030199 L18.8776372,22.9140917 L25.9852603,22.9140917 C26.4645217,21.6058362 26.7276649,20.1926085 26.7276649,18.7167567 C26.7276649,16.4045192 26.0860153,14.2433539 24.9723014,12.4030199 Z M16.2789571,12.7630265 L16.2789571,12.7630265 L12.8025223,6.70350767 C9.06777561,7.27923652 5.89758771,9.57452059 4.11399214,12.7630265 L16.2789571,12.7630265 Z M14.9050255,30.8680489 L8.77725141,20.0460811 L5.1963543,26.287678 C7.40968288,29.0823684 10.8192953,30.8745781 14.6463968,30.8745781 C14.733203,30.8745781 14.8188905,30.8698501 14.9050255,30.8680489 Z M12.8745413,24.4705583 L16.4678188,30.7337369 C20.2904932,30.1519737 23.5258578,27.7697904 25.2904414,24.4705583 L12.8745413,24.4705583 Z M20.5269509,17.2075664 L20.5269509,17.2075664 L24.0428867,11.0791987 C21.8285211,8.32286652 18.4429817,6.5589353 14.6463968,6.5589353 C14.5609331,6.5589353 14.4765879,6.56366334 14.3913479,6.5654645 L20.5269509,17.2075664 Z M10.4391289,14.277099 L10.4391289,14.277099 L3.39619038,14.277099 C2.85974209,15.6524632 2.56512883,17.1499253 2.56512883,18.7167567 C2.56512883,21.0244913 3.20409368,23.1818292 4.31355679,25.0199117 L10.4391289,14.277099 Z" id="Mask-Copy-4"></path>
            <path d="M163.995321,28.2709257 L166.171875,18 L170.78125,18 L170.375,19.984375 C170.906253,19.5156227 171.492184,19.0677105 172.132812,18.640625 C172.773441,18.2135395 173.466142,18 174.210938,18 C174.955733,18 175.515623,18.2447892 175.890625,18.734375 C176.265627,19.2239608 176.453125,19.6927061 176.453125,20.140625 C176.453125,20.9114622 176.247398,21.5364559 175.835938,22.015625 C175.424477,22.4947941 174.927086,22.734375 174.34375,22.734375 C173.760414,22.734375 173.375001,22.6015638 173.1875,22.3359375 C172.999999,22.0703112 172.885417,21.7994805 172.84375,21.5234375 C172.802083,21.2473945 172.747396,21.0286466 172.679688,20.8671875 C172.611979,20.7057284 172.468751,20.625 172.25,20.625 C171.812498,20.625 171.427085,20.7265615 171.09375,20.9296875 C170.760415,21.1328135 170.38021,21.437498 169.953125,21.84375 L167.390625,34 L162.78125,34 L163.528539,30.4736208 C161.454423,32.9495501 159.043883,34.1875 156.296875,34.1875 C154.776034,34.1875 153.562505,33.7942748 152.65625,33.0078125 C152.165694,32.5821005 151.80791,32.0060756 151.582894,31.2797314 C150.318438,33.09325 148.671022,34 146.640625,34 C144.796866,34 143.750001,33.0833425 143.5,31.25 C142.208327,33.2083431 140.611989,34.1875 138.710938,34.1875 C136.809886,34.1875 135.526045,33.2760508 134.859375,31.453125 C134.851167,31.430643 134.8431,31.408054 134.835174,31.385358 C133.823693,33.0065122 132.623432,33.9197207 131.234375,34.125 C130.90104,34.1666669 130.489586,34.1875 130,34.1875 C129.510414,34.1875 129.026044,34.0833344 128.546875,33.875 C127.213535,33.3124972 126.546875,32.2135498 126.546875,30.578125 C126.546875,29.7031206 126.786456,28.3073013 127.265625,26.390625 C127.744794,24.4739487 127.984375,23.1510453 127.984375,22.421875 C127.984375,21.3281195 127.598962,20.78125 126.828125,20.78125 C126.057288,20.78125 125.369795,21.3906189 124.765625,22.609375 C124.588541,22.9531267 124.442709,23.328123 124.328125,23.734375 L122.15625,34 L117.546875,34 L117.941994,32.1354742 C116.683626,33.5034954 115.104008,34.1875 113.203125,34.1875 C112.369788,34.1875 111.619795,33.8854197 110.953125,33.28125 C110.296872,32.6770803 109.96875,31.7031317 109.96875,30.359375 C109.96875,29.7552053 110.052082,29.0572956 110.21875,28.265625 L112.390625,18 L117,18 L114.703125,28.875 C114.619791,29.2604186 114.578125,29.6406231 114.578125,30.015625 C114.578125,30.7343786 115.010412,31.09375 115.875,31.09375 C116.500003,31.09375 117.080726,30.8229194 117.617188,30.28125 C118.143496,29.7498312 118.521914,29.0930947 118.75245,28.3110213 L120.9375,18 L125.546875,18 L125.203125,19.65625 C126.244797,18.4687441 127.489576,17.875 128.9375,17.875 C129.958338,17.875 130.807288,18.1562472 131.484375,18.71875 C132.161462,19.2812528 132.5,20.1145778 132.5,21.21875 C132.5,22.3229222 132.322918,23.5729097 131.96875,24.96875 L131.203125,28.0625 C131.036457,28.7395867 130.953125,29.2916645 130.953125,29.71875 C130.953125,30.6354213 131.343746,31.09375 132.125,31.09375 C132.843754,31.09375 133.395831,30.8645856 133.78125,30.40625 C134.022902,30.1188803 134.262504,29.7311891 134.500059,29.2431713 C134.50002,29.2324417 134.5,29.2216971 134.5,29.2109375 C134.5,28.3723916 134.572916,27.5338584 134.71875,26.6953125 C134.864584,25.8567666 135.08854,25.0208375 135.390625,24.1875 C136.057295,22.3541575 137.01041,20.8385477 138.25,19.640625 C139.48959,18.4427023 140.984366,17.84375 142.734375,17.84375 C143.651046,17.84375 144.312498,17.9973943 144.71875,18.3046875 C145.125002,18.6119807 145.328125,18.9999977 145.328125,19.46875 L145.328125,19.59375 L146.890625,12.234375 L151.625,11.59375 L147.953125,28.875 C147.859375,29.2395852 147.8125,29.6145814 147.8125,30 C147.8125,30.7291703 148.249996,31.09375 149.125,31.09375 C150.048544,31.09375 150.773956,30.5334369 151.301247,29.4127977 C151.298332,29.3133069 151.296875,29.212166 151.296875,29.109375 C151.296875,26.6718628 151.91666,24.3125114 153.15625,22.03125 C154.104171,20.291658 155.395825,19.052087 157.03125,18.3125 C157.875004,17.9166647 158.749995,17.71875 159.65625,17.71875 C161.135424,17.71875 162.140622,17.997393 162.671875,18.5546875 C163.203128,19.111982 163.46875,19.854162 163.46875,20.78125 C163.46875,22.6041758 162.734382,24.1536395 161.265625,25.4296875 C159.796868,26.7057355 158.078135,27.4062494 156.109375,27.53125 C156.057291,28.1354197 156.03125,28.5624987 156.03125,28.8125 C156.03125,29.9062555 156.223956,30.6276024 156.609375,30.9765625 C156.994794,31.3255226 157.536455,31.5 158.234375,31.5 C159.463548,31.5 160.497392,31.2265652 161.335938,30.6796875 C162.173088,30.1337196 163.059541,29.330807 163.995321,28.2709257 Z M80.515625,28.265625 L82.6875,18 L87.296875,18 L85,28.875 C84.9374997,29.1458347 84.90625,29.4166653 84.90625,29.6875 C84.90625,30.6250047 85.2239552,31.09375 85.859375,31.09375 C86.9843806,31.09375 87.8385387,30.1510511 88.421875,28.265625 L90.59375,18 L95.203125,18 L92.90625,28.875 C92.7916661,29.3854192 92.734375,29.770832 92.734375,30.03125 C92.734375,30.7395869 93.0989547,31.09375 93.828125,31.09375 C94.8177133,31.09375 95.7604122,30.42709 96.65625,29.09375 C97.8645894,27.3124911 98.7031227,25.0833467 99.171875,22.40625 C99.2968756,21.6562463 99.359375,20.9895863 99.359375,20.40625 C99.3072914,20.5208339 99.1562512,20.5989581 98.90625,20.640625 L98.578125,20.703125 C98.4843745,20.7135417 98.4062503,20.71875 98.34375,20.71875 C97.9687481,20.71875 97.6822927,20.5390643 97.484375,20.1796875 C97.2864573,19.8203107 97.1875,19.4244813 97.1875,18.9921875 C97.1875,18.5598937 97.3463526,18.1796891 97.6640625,17.8515625 C97.9817724,17.5234359 98.4114556,17.359375 98.953125,17.359375 C99.7968792,17.359375 100.380207,17.6276015 100.703125,18.1640625 C101.026043,18.7005235 101.1875,19.3776001 101.1875,20.1953125 C101.1875,21.0130249 101.114584,21.9348907 100.96875,22.9609375 C100.822916,23.9869843 100.593752,25.0208281 100.28125,26.0625 C99.5833298,28.4062617 98.604173,30.281243 97.34375,31.6875 C95.8437425,33.354175 94.0442813,34.1875 91.9453125,34.1875 C89.8463437,34.1875 88.6093769,33.2916756 88.234375,31.5 C87.0468691,33.2916756 85.5312592,34.1875 83.6875,34.1875 C82.7291619,34.1875 81.91667,33.8854197 81.25,33.28125 C80.5937467,32.6770803 80.265625,31.7031317 80.265625,30.359375 C80.265625,30.3071559 80.2662475,30.2542364 80.2674926,30.2006167 C78.1436636,32.8585498 75.6586822,34.1875 72.8125,34.1875 C71.2916591,34.1875 70.0781295,33.7942748 69.171875,33.0078125 C68.6807429,32.5816001 68.3226939,32.0047212 68.0977259,31.2771694 C66.7473813,33.2173966 64.9439806,34.1875 62.6875,34.1875 C61.8437458,34.1875 61.088545,33.8854197 60.421875,33.28125 C59.7656217,32.6770803 59.4375,31.7031317 59.4375,30.359375 C59.4375,29.7552053 59.5208325,29.0572956 59.6875,28.265625 L61.859375,18 L66.46875,18 L64.171875,28.875 C64.0885412,29.2604186 64.046875,29.6406231 64.046875,30.015625 C64.046875,30.7343786 64.4791623,31.09375 65.34375,31.09375 C65.9687531,31.09375 66.5494765,30.8229194 67.0859375,30.28125 C67.3725647,29.99184 67.615329,29.6652622 67.8142321,29.3015137 C67.8130774,29.2381212 67.8125,29.174075 67.8125,29.109375 C67.8125,26.6718628 68.4322855,24.3125114 69.671875,22.03125 C70.6197964,20.291658 71.9114502,19.052087 73.546875,18.3125 C74.3906292,17.9166647 75.2656205,17.71875 76.171875,17.71875 C77.6510491,17.71875 78.6562473,17.997393 79.1875,18.5546875 C79.7187527,19.111982 79.984375,19.854162 79.984375,20.78125 C79.984375,22.6041758 79.2500073,24.1536395 77.78125,25.4296875 C76.3124927,26.7057355 74.5937598,27.4062494 72.625,27.53125 C72.5729164,28.1354197 72.546875,28.5624987 72.546875,28.8125 C72.546875,29.9062555 72.7395814,30.6276024 73.125,30.9765625 C73.5104186,31.3255226 74.0520798,31.5 74.75,31.5 C75.9791728,31.5 77.0130166,31.2265652 77.8515625,30.6796875 C78.6901084,30.1328098 79.5781203,29.3281303 80.515625,28.265625 Z M48.453125,34 L47.9375,12.140625 C46.4374925,12.7031278 45.2682334,13.5833273 44.4296875,14.78125 C43.5911416,15.9791727 43.171875,17.4687411 43.171875,19.25 C43.171875,20.1145877 43.2916655,20.7656228 43.53125,21.203125 C43.5833336,21.2864588 43.609375,21.3593747 43.609375,21.421875 C41.9010331,21.421875 40.8333355,20.8750055 40.40625,19.78125 C40.2604159,19.3854147 40.1875,18.8958363 40.1875,18.3125 C40.1875,17.239578 40.5234341,16.2057341 41.1953125,15.2109375 C41.8671909,14.2161409 42.7343697,13.3333372 43.796875,12.5625 C46.2239705,10.8541581 48.7656117,10 51.421875,10 C51.8593772,10 52.2864563,10.0208331 52.703125,10.0625 L52.984375,29.75 L59.71875,10.15625 L61.953125,10.15625 L53.0625,34 L48.453125,34 Z M67.59375,13.75 C67.59375,14.4583369 67.3411484,15.0546851 66.8359375,15.5390625 C66.3307266,16.0234399 65.726566,16.265625 65.0234375,16.265625 C64.320309,16.265625 63.7239608,16.0208358 63.234375,15.53125 C62.7447892,15.0416642 62.5,14.4479202 62.5,13.75 C62.5,13.0520798 62.7421851,12.4505234 63.2265625,11.9453125 C63.7109399,11.4401016 64.3098923,11.1875 65.0234375,11.1875 C65.7369827,11.1875 66.3437475,11.4374975 66.84375,11.9375 C67.3437525,12.4375025 67.59375,13.0416631 67.59375,13.75 Z M77.515625,20.5625 C77.515625,19.7916628 77.2500027,19.40625 76.71875,19.40625 C75.9374961,19.4270834 75.1822953,20.1171807 74.453125,21.4765625 C73.7239547,22.8359443 73.1979183,24.3437417 72.875,26 C74.1041728,25.9166662 75.1848912,25.3437553 76.1171875,24.28125 C77.0494838,23.2187447 77.515625,21.9791738 77.515625,20.5625 Z M114.25,13.046875 C114.208333,12.1927041 113.619797,11.765625 112.484375,11.765625 C111.078118,11.765625 110.078128,12.5208258 109.484375,14.03125 C109.307291,14.4687522 109.177084,14.9166644 109.09375,15.375 L108.546875,18 L111.109375,18 L110.859375,19.28125 L108.296875,19.28125 L104.640625,36.5625 C104.223956,38.56251 103.421881,40.0208287 102.234375,40.9375 C101.317704,41.6458369 100.260423,42 99.0625,42 C97.8645773,42 96.895837,41.6770866 96.15625,41.03125 C95.416663,40.3854134 95.046875,39.5156305 95.046875,38.421875 C95.046875,36.6301994 96.2239466,35.3020877 98.578125,34.4375 C99.2343783,34.1874988 99.9010383,33.9583344 100.578125,33.75 L104.140625,16.90625 C105.119797,12.3228937 107.614563,10.03125 111.625,10.03125 C114.604182,10.03125 116.432288,10.8124922 117.109375,12.375 C117.276043,12.7604186 117.359375,13.2083308 117.359375,13.71875 C117.359375,14.6666714 117.098961,15.3333314 116.578125,15.71875 C116.057289,16.1041686 115.473962,16.296875 114.828125,16.296875 C113.546869,16.296875 112.90625,15.7239641 112.90625,14.578125 C112.90625,14.2135398 113.002603,13.8619809 113.195312,13.5234375 C113.388022,13.1848941 113.65104,13.015625 113.984375,13.015625 L114.140625,13.015625 C114.192709,13.015625 114.229167,13.0260416 114.25,13.046875 Z M100.359375,34.796875 C97.9947798,35.5677122 96.8125,36.5937436 96.8125,37.875 C96.8125,38.3437523 96.9583319,38.6744782 97.25,38.8671875 C97.5416681,39.0598968 97.8385402,39.15625 98.140625,39.15625 C98.4427098,39.15625 98.7760398,38.9661477 99.140625,38.5859375 C99.5052102,38.2057273 99.7812491,37.5625045 99.96875,36.65625 L100.359375,34.796875 Z M139.234375,28.765625 C139.234375,30.3177161 139.76562,31.09375 140.828125,31.09375 C141.276044,31.09375 141.773435,30.8776063 142.320312,30.4453125 C142.86719,30.0130187 143.249999,29.3437545 143.46875,28.4375 L143.46875,28.265625 L145.03125,20.9375 C144.833332,20.197913 144.395837,19.828125 143.71875,19.828125 C143.041663,19.828125 142.421878,20.1458302 141.859375,20.78125 C140.505202,22.3125077 139.656252,24.5104023 139.3125,27.375 C139.260416,27.8125022 139.234375,28.2760392 139.234375,28.765625 Z M161,20.5625 C161,19.7916628 160.734378,19.40625 160.203125,19.40625 C159.421871,19.4270834 158.66667,20.1171807 157.9375,21.4765625 C157.20833,22.8359443 156.682293,24.3437417 156.359375,26 C157.588548,25.9166662 158.669266,25.3437553 159.601562,24.28125 C160.533859,23.2187447 161,21.9791738 161,20.5625 Z" id="Combined-Shape"></path>
        </g>
    </g>
</svg>