<?xml version="1.0" encoding="UTF-8" standalone="no"?>
<svg width="271px" height="73px" viewBox="0 0 271 73" version="1.1" xmlns="http://www.w3.org/2000/svg" xmlns:xlink="http://www.w3.org/1999/xlink">
    <!-- Generator: Sketch 43.2 (39069) - http://www.bohemiancoding.com/sketch -->
    <title>Group Copy</title>
    <desc>Created with Sketch.</desc>
    <defs></defs>
    <g id="Page-1" stroke="none" stroke-width="1" fill="none" fill-rule="evenodd">
        <g id="Group-Copy" fill="#FFFFFF">
            <path d="M27.3601982,0 C45.0700101,0 54.7213723,15.2238677 54.7213723,27.3430891 C54.7213723,49.3532654 27.9125855,66.683356 27.3622585,67 C26.8087868,66.683356 1.1032494e-15,49.3532654 0,27.3430891 C0,15.2238677 9.65038643,0 27.3601982,0 Z M46.7707259,15.6389538 L35.3560044,35.2012263 L48.6679009,35.2012263 C49.5655114,32.7664174 50.0583534,30.1362436 50.0583534,27.3895194 C50.0583534,23.0861885 48.8566053,19.0640197 46.7707259,15.6389538 Z M30.4889257,16.3089661 L30.4889257,16.3089661 L23.9778967,5.03152816 C16.9830742,6.10302352 11.0456163,10.3748022 7.70511279,16.3089661 L30.4889257,16.3089661 Z M27.9156835,50.0044244 L16.4389502,29.8635399 L9.73227332,41.4798451 C13.8776255,46.6810746 20.2635027,50.016576 27.4312969,50.016576 C27.5938765,50.016576 27.7543609,50.0077766 27.9156835,50.0044244 Z M24.1127814,38.0979835 L30.8426456,49.7544548 C38.0021481,48.6717288 44.0616757,44.2382209 47.3665717,38.0979835 L24.1127814,38.0979835 Z M38.4450107,24.5807486 L38.4450107,24.5807486 L45.0300214,13.1751754 C40.882727,8.0453349 34.5419362,4.76246292 27.4312969,4.76246292 C27.2712314,4.76246292 27.113261,4.77126233 26.9536146,4.77461449 L38.4450107,24.5807486 Z M19.5514875,19.1268231 L19.5514875,19.1268231 L6.36073893,19.1268231 C5.35602271,21.6865288 4.80424034,24.4734722 4.80424034,27.3895194 C4.80424034,31.68447 6.00096022,35.6995155 8.07887824,39.1203912 L19.5514875,19.1268231 Z" id="Mask"></path>
            <g id="Group-3" transform="translate(54.000000, 3.000000)">
                <path d="M208.175781,36.2109375 L207.214844,36.2109375 L207.214844,31.40625 L205.582031,31.40625 L205.582031,30.578125 L209.824219,30.578125 L209.824219,31.40625 L208.175781,31.40625 L208.175781,36.2109375 Z M212.863281,36.2109375 L211.292969,31.84375 L211.230469,31.84375 L211.277344,32.8515625 L211.277344,36.2109375 L210.347656,36.2109375 L210.347656,30.578125 L211.808594,30.578125 L213.339844,34.9453125 L214.925781,30.578125 L216.332031,30.578125 L216.332031,36.2109375 L215.339844,36.2109375 L215.339844,32.9296875 L215.386719,31.859375 L215.324219,31.859375 L213.675781,36.2109375 L212.863281,36.2109375 Z" id="™-copy-2" opacity="0.800000012"></path>
                <path d="M4.92211914,65 L4.06713867,65 L4.06713867,53.6611328 L0.124267578,53.6611328 L0.124267578,52.8642578 L8.86499023,52.8642578 L8.86499023,53.6611328 L4.92211914,53.6611328 L4.92211914,65 Z M14.0114746,55.8027344 C14.3933125,55.8027344 14.8028136,55.841471 15.2399902,55.9189453 L15.0822754,56.7075195 C14.7059714,56.6134435 14.3158386,56.5664062 13.9118652,56.5664062 C13.1426557,56.5664062 12.5118026,56.8929004 12.0192871,57.5458984 C11.5267716,58.1988965 11.2805176,59.0234325 11.2805176,60.0195312 L11.2805176,65 L10.4587402,65 L10.4587402,55.9770508 L11.1560059,55.9770508 L11.2390137,57.6040039 L11.2971191,57.6040039 C11.6678892,56.9399381 12.0635558,56.4737155 12.4841309,56.2053223 C12.9047059,55.936929 13.4138154,55.8027344 14.0114746,55.8027344 Z M22.5529785,65 L22.345459,63.5722656 L22.2790527,63.5722656 C21.8252744,64.1533232 21.3590519,64.5642078 20.8803711,64.8049316 C20.4016903,65.0456555 19.8358594,65.1660156 19.1828613,65.1660156 C18.2974402,65.1660156 17.6084823,64.9391299 17.1159668,64.4853516 C16.6234513,64.0315733 16.3771973,63.4034871 16.3771973,62.6010742 C16.3771973,61.721187 16.7438114,61.0377629 17.4770508,60.5507812 C18.2102901,60.0637996 19.271396,59.806478 20.6604004,59.7788086 L22.3786621,59.7290039 L22.3786621,59.1313477 C22.3786621,58.273596 22.2043474,57.6261415 21.8557129,57.1889648 C21.5070783,56.7517882 20.9453978,56.5332031 20.1706543,56.5332031 C19.3350381,56.5332031 18.4689986,56.7656227 17.5725098,57.2304688 L17.2653809,56.5166016 C18.2559457,56.0517555 19.2354281,55.8193359 20.2038574,55.8193359 C21.1944223,55.8193359 21.9345679,56.0766576 22.4243164,56.5913086 C22.9140649,57.1059596 23.1589355,57.9083604 23.1589355,58.9985352 L23.1589355,65 L22.5529785,65 Z M19.232666,64.4189453 C20.1955615,64.4189453 20.9550753,64.1436388 21.5112305,63.5930176 C22.0673856,63.0423963 22.345459,62.2773486 22.345459,61.2978516 L22.345459,60.409668 L20.7683105,60.4760742 C19.5010516,60.5369469 18.5976589,60.7347802 18.0581055,61.0695801 C17.518552,61.4043799 17.2487793,61.9259405 17.2487793,62.6342773 C17.2487793,63.1987333 17.4217105,63.6372868 17.7675781,63.9499512 C18.1134457,64.2626155 18.6018035,64.4189453 19.232666,64.4189453 Z M28.0563965,65 L24.5700684,55.9770508 L25.416748,55.9770508 L27.7492676,62.1113281 C28.059165,62.8971393 28.2915845,63.5833304 28.4465332,64.1699219 L28.4963379,64.1699219 C28.723227,63.4173139 28.9556466,62.7255891 29.1936035,62.0947266 L31.526123,55.9770508 L32.3728027,55.9770508 L28.8864746,65 L28.0563965,65 Z M37.5275879,65.1660156 C36.2160579,65.1660156 35.1936886,64.7620483 34.4604492,63.9541016 C33.7272099,63.1461548 33.3605957,62.014493 33.3605957,60.559082 C33.3605957,59.1202728 33.7147588,57.9678591 34.4230957,57.1018066 C35.1314326,56.2357541 36.0860129,55.8027344 37.2868652,55.8027344 C38.3493705,55.8027344 39.1877411,56.1734989 39.802002,56.9150391 C40.4162628,57.6565792 40.7233887,58.6637306 40.7233887,59.9365234 L40.7233887,60.6005859 L34.223877,60.6005859 C34.2349447,61.8401755 34.5240857,62.7864551 35.0913086,63.4394531 C35.6585315,64.0924512 36.4706165,64.4189453 37.5275879,64.4189453 C38.0422389,64.4189453 38.494627,64.3829756 38.8847656,64.3110352 C39.2749043,64.2390947 39.7687958,64.0841483 40.3664551,63.8461914 L40.3664551,64.5932617 C39.8573379,64.814617 39.386965,64.965413 38.9553223,65.0456543 C38.5236795,65.1258956 38.0477728,65.1660156 37.5275879,65.1660156 Z M37.2868652,56.5332031 C36.4180458,56.5332031 35.7207871,56.8195772 35.1950684,57.392334 C34.6693496,57.9650908 34.3622237,58.7910102 34.2736816,59.8701172 L39.8518066,59.8701172 C39.8518066,58.8242135 39.6249209,58.0065947 39.1711426,57.4172363 C38.7173643,56.8278779 38.0892781,56.5332031 37.2868652,56.5332031 Z M44.0354004,65 L43.213623,65 L43.213623,52.0839844 L44.0354004,52.0839844 L44.0354004,65 Z M58.9851074,56.3505859 C58.9851074,57.5237689 58.5866739,58.4230112 57.7897949,59.0483398 C56.9929159,59.6736685 55.864021,59.9863281 54.4030762,59.9863281 L52.5270996,59.9863281 L52.5270996,65 L51.6804199,65 L51.6804199,52.8642578 L54.6520996,52.8642578 C57.5407859,52.8642578 58.9851074,54.0263556 58.9851074,56.3505859 Z M52.5270996,59.2558594 L54.1955566,59.2558594 C55.5624255,59.2558594 56.5502085,59.0303571 57.1589355,58.5793457 C57.7676625,58.1283343 58.0720215,57.3964894 58.0720215,56.3837891 C58.0720215,55.448563 57.7842639,54.7554547 57.2087402,54.3044434 C56.6332165,53.853432 55.7422749,53.6279297 54.5358887,53.6279297 L52.5270996,53.6279297 L52.5270996,59.2558594 Z M67.7092285,65 L67.7092285,59.1479492 C67.7092285,58.2403926 67.5183125,57.5804871 67.1364746,57.1682129 C66.7546368,56.7559387 66.1625203,56.5498047 65.3601074,56.5498047 C64.2810005,56.5498047 63.4910507,56.8223443 62.9902344,57.3674316 C62.4894181,57.912519 62.2390137,58.7965434 62.2390137,60.0195312 L62.2390137,65 L61.4172363,65 L61.4172363,52.0839844 L62.2390137,52.0839844 L62.2390137,56.1928711 L62.1975098,57.3466797 L62.2556152,57.3466797 C62.593182,56.8043593 63.0192845,56.4114596 63.5339355,56.1679688 C64.0485866,55.9244779 64.6877403,55.8027344 65.451416,55.8027344 C67.4989523,55.8027344 68.5227051,56.9011934 68.5227051,59.0981445 L68.5227051,65 L67.7092285,65 Z M78.9069824,60.4760742 C78.9069824,61.9480868 78.5500524,63.0977335 77.8361816,63.9250488 C77.1223109,64.7523642 76.1372947,65.1660156 74.8811035,65.1660156 C74.0897584,65.1660156 73.3924998,64.9750996 72.7893066,64.5932617 C72.1861135,64.2114239 71.7240413,63.6635778 71.4030762,62.949707 C71.082111,62.2358363 70.9216309,61.4113002 70.9216309,60.4760742 C70.9216309,59.0040617 71.2785609,57.8571818 71.9924316,57.0354004 C72.7063024,56.2136189 73.6857848,55.8027344 74.9309082,55.8027344 C76.1704977,55.8027344 77.1430629,56.2191527 77.8486328,57.052002 C78.5542027,57.8848512 78.9069824,59.0261972 78.9069824,60.4760742 Z M71.7849121,60.4760742 C71.7849121,61.7156638 72.0574517,62.6826951 72.6025391,63.3771973 C73.1476264,64.0716994 73.9182079,64.4189453 74.9143066,64.4189453 C75.9104054,64.4189453 76.6809869,64.0716994 77.2260742,63.3771973 C77.7711616,62.6826951 78.0437012,61.7156638 78.0437012,60.4760742 C78.0437012,59.2309508 77.7683947,58.2653029 77.2177734,57.5791016 C76.6671522,56.8929002 75.8938038,56.5498047 74.8977051,56.5498047 C73.9016063,56.5498047 73.1337918,56.8915168 72.5942383,57.5749512 C72.0546848,58.2583856 71.7849121,59.2254169 71.7849121,60.4760742 Z M83.7878418,64.4355469 C84.3080267,64.4355469 84.7617982,64.3912765 85.1491699,64.3027344 L85.1491699,64.9667969 C84.7507304,65.09961 84.2914251,65.1660156 83.7712402,65.1660156 C82.9743613,65.1660156 82.3863951,64.9529644 82.0073242,64.5268555 C81.6282533,64.1007466 81.4387207,63.4311569 81.4387207,62.5180664 L81.4387207,56.690918 L80.1022949,56.690918 L80.1022949,56.2094727 L81.4387207,55.8359375 L81.8537598,53.7939453 L82.2770996,53.7939453 L82.2770996,55.9770508 L84.9250488,55.9770508 L84.9250488,56.690918 L82.2770996,56.690918 L82.2770996,62.4018555 C82.2770996,63.0935907 82.3988432,63.6054671 82.642334,63.9375 C82.8858248,64.2695329 83.2676569,64.4355469 83.7878418,64.4355469 Z M94.5622559,60.4760742 C94.5622559,61.9480868 94.2053258,63.0977335 93.4914551,63.9250488 C92.7775843,64.7523642 91.7925681,65.1660156 90.536377,65.1660156 C89.7450319,65.1660156 89.0477732,64.9750996 88.4445801,64.5932617 C87.841387,64.2114239 87.3793148,63.6635778 87.0583496,62.949707 C86.7373845,62.2358363 86.5769043,61.4113002 86.5769043,60.4760742 C86.5769043,59.0040617 86.9338343,57.8571818 87.6477051,57.0354004 C88.3615758,56.2136189 89.3410582,55.8027344 90.5861816,55.8027344 C91.8257712,55.8027344 92.7983363,56.2191527 93.5039062,57.052002 C94.2094762,57.8848512 94.5622559,59.0261972 94.5622559,60.4760742 Z M87.4401855,60.4760742 C87.4401855,61.7156638 87.7127251,62.6826951 88.2578125,63.3771973 C88.8028999,64.0716994 89.5734813,64.4189453 90.5695801,64.4189453 C91.5656788,64.4189453 92.3362603,64.0716994 92.8813477,63.3771973 C93.426435,62.6826951 93.6989746,61.7156638 93.6989746,60.4760742 C93.6989746,59.2309508 93.4236681,58.2653029 92.8730469,57.5791016 C92.3224256,56.8929002 91.5490772,56.5498047 90.5529785,56.5498047 C89.5568798,56.5498047 88.7890652,56.8915168 88.2495117,57.5749512 C87.7099582,58.2583856 87.4401855,59.2254169 87.4401855,60.4760742 Z M104.099854,55.9770508 L104.099854,56.5498047 L102.232178,56.6660156 C102.730227,57.2858104 102.979248,57.9664676 102.979248,58.7080078 C102.979248,59.5768273 102.690107,60.2810032 102.111816,60.8205566 C101.533526,61.3601101 100.75741,61.6298828 99.7834473,61.6298828 C99.37394,61.6298828 99.0861825,61.6132814 98.920166,61.5800781 C98.593667,61.7516285 98.344646,61.9536121 98.1730957,62.1860352 C98.0015454,62.4184582 97.9157715,62.6647122 97.9157715,62.9248047 C97.9157715,63.2125665 98.025064,63.4228509 98.2436523,63.5556641 C98.4622407,63.6884772 98.8288548,63.7548828 99.3435059,63.7548828 L100.920654,63.7548828 C101.900151,63.7548828 102.649981,63.9527161 103.170166,64.3483887 C103.690351,64.7440612 103.950439,65.3292604 103.950439,66.1040039 C103.950439,67.0558316 103.564457,67.7904434 102.79248,68.3078613 C102.020504,68.8252793 100.920661,69.0839844 99.4929199,69.0839844 C98.3584741,69.0839844 97.4799836,68.8653993 96.8574219,68.4282227 C96.2348602,67.991046 95.923584,67.3823281 95.923584,66.6020508 C95.923584,65.982256 96.1158835,65.4676127 96.5004883,65.0581055 C96.8850931,64.6485982 97.4066536,64.3691414 98.0651855,64.2197266 C97.7940253,64.103515 97.5768237,63.9388845 97.4135742,63.7258301 C97.2503247,63.5127756 97.1687012,63.267905 97.1687012,62.9912109 C97.1687012,62.3880178 97.5533002,61.8567731 98.3225098,61.3974609 C97.796791,61.1816395 97.3872899,60.8426944 97.0939941,60.3806152 C96.8006984,59.9185361 96.6540527,59.3886749 96.6540527,58.7910156 C96.6540527,57.8889929 96.9404268,57.1654487 97.5131836,56.6203613 C98.0859404,56.075274 98.8592888,55.8027344 99.833252,55.8027344 C100.425377,55.8027344 100.884683,55.8608393 101.211182,55.9770508 L104.099854,55.9770508 Z M96.795166,66.5273438 C96.795166,67.7669333 97.7165435,68.3867188 99.5593262,68.3867188 C101.927828,68.3867188 103.112061,67.6313552 103.112061,66.1206055 C103.112061,65.578285 102.926678,65.1853853 102.555908,64.9418945 C102.185138,64.6984037 101.584721,64.5766602 100.754639,64.5766602 L99.2770996,64.5766602 C97.6224689,64.5766602 96.795166,65.2268815 96.795166,66.5273438 Z M97.4841309,58.7910156 C97.4841309,59.4882847 97.6957987,60.0292136 98.1191406,60.4138184 C98.5424826,60.7984231 99.1083135,60.9907227 99.8166504,60.9907227 C100.569258,60.9907227 101.146157,60.7998066 101.547363,60.4179688 C101.94857,60.0361309 102.14917,59.482751 102.14917,58.7578125 C102.14917,57.9886029 101.943036,57.4117044 101.530762,57.0270996 C101.118488,56.6424948 100.541589,56.4501953 99.8000488,56.4501953 C99.0806442,56.4501953 98.5148133,56.6563293 98.1025391,57.0686035 C97.6902649,57.4808777 97.4841309,58.0550093 97.4841309,58.7910156 Z M109.503662,55.8027344 C109.8855,55.8027344 110.295001,55.841471 110.732178,55.9189453 L110.574463,56.7075195 C110.198159,56.6134435 109.808026,56.5664062 109.404053,56.5664062 C108.634843,56.5664062 108.00399,56.8929004 107.511475,57.5458984 C107.018959,58.1988965 106.772705,59.0234325 106.772705,60.0195312 L106.772705,65 L105.950928,65 L105.950928,55.9770508 L106.648193,55.9770508 L106.731201,57.6040039 L106.789307,57.6040039 C107.160077,56.9399381 107.555743,56.4737155 107.976318,56.2053223 C108.396893,55.936929 108.906003,55.8027344 109.503662,55.8027344 Z M118.045166,65 L117.837646,63.5722656 L117.77124,63.5722656 C117.317462,64.1533232 116.851239,64.5642078 116.372559,64.8049316 C115.893878,65.0456555 115.328047,65.1660156 114.675049,65.1660156 C113.789628,65.1660156 113.10067,64.9391299 112.608154,64.4853516 C112.115639,64.0315733 111.869385,63.4034871 111.869385,62.6010742 C111.869385,61.721187 112.235999,61.0377629 112.969238,60.5507812 C113.702478,60.0637996 114.763584,59.806478 116.152588,59.7788086 L117.87085,59.7290039 L117.87085,59.1313477 C117.87085,58.273596 117.696535,57.6261415 117.3479,57.1889648 C116.999266,56.7517882 116.437585,56.5332031 115.662842,56.5332031 C114.827226,56.5332031 113.961186,56.7656227 113.064697,57.2304688 L112.757568,56.5166016 C113.748133,56.0517555 114.727616,55.8193359 115.696045,55.8193359 C116.68661,55.8193359 117.426755,56.0766576 117.916504,56.5913086 C118.406252,57.1059596 118.651123,57.9083604 118.651123,58.9985352 L118.651123,65 L118.045166,65 Z M114.724854,64.4189453 C115.687749,64.4189453 116.447263,64.1436388 117.003418,63.5930176 C117.559573,63.0423963 117.837646,62.2773486 117.837646,61.2978516 L117.837646,60.409668 L116.260498,60.4760742 C114.993239,60.5369469 114.089846,60.7347802 113.550293,61.0695801 C113.010739,61.4043799 112.740967,61.9259405 112.740967,62.6342773 C112.740967,63.1987333 112.913898,63.6372868 113.259766,63.9499512 C113.605633,64.2626155 114.093991,64.4189453 114.724854,64.4189453 Z M125.432861,65.1660156 C124.043857,65.1660156 123.031172,64.6458385 122.394775,63.6054688 L122.33667,63.6054688 L122.361572,64.3027344 C122.383708,64.7122416 122.394775,65.1604793 122.394775,65.6474609 L122.394775,69.0839844 L121.572998,69.0839844 L121.572998,55.9770508 L122.270264,55.9770508 L122.427979,57.2636719 L122.477783,57.2636719 C123.097578,56.2897087 124.088128,55.8027344 125.449463,55.8027344 C126.666917,55.8027344 127.595212,56.2025513 128.234375,57.0021973 C128.873538,57.8018432 129.193115,58.9653244 129.193115,60.4926758 C129.193115,61.9757561 128.856937,63.1254028 128.18457,63.9416504 C127.512204,64.757898 126.594977,65.1660156 125.432861,65.1660156 Z M125.41626,64.4355469 C126.340418,64.4355469 127.055662,64.0924513 127.562012,63.40625 C128.068362,62.7200487 128.321533,61.7599346 128.321533,60.5258789 C128.321533,57.8751495 127.364186,56.5498047 125.449463,56.5498047 C124.398025,56.5498047 123.62606,56.8389457 123.133545,57.4172363 C122.641029,57.995527 122.394775,58.9376562 122.394775,60.2436523 L122.394775,60.5092773 C122.394775,61.9204172 122.631345,62.9275686 123.104492,63.5307617 C123.577639,64.1339548 124.348221,64.4355469 125.41626,64.4355469 Z M137.983643,65 L137.983643,59.1479492 C137.983643,58.2403926 137.792727,57.5804871 137.410889,57.1682129 C137.029051,56.7559387 136.436934,56.5498047 135.634521,56.5498047 C134.555415,56.5498047 133.765465,56.8223443 133.264648,57.3674316 C132.763832,57.912519 132.513428,58.7965434 132.513428,60.0195312 L132.513428,65 L131.69165,65 L131.69165,52.0839844 L132.513428,52.0839844 L132.513428,56.1928711 L132.471924,57.3466797 L132.530029,57.3466797 C132.867596,56.8043593 133.293699,56.4114596 133.80835,56.1679688 C134.323001,55.9244779 134.962154,55.8027344 135.72583,55.8027344 C137.773366,55.8027344 138.797119,56.9011934 138.797119,59.0981445 L138.797119,65 L137.983643,65 Z M140.208252,55.9770508 L141.054932,55.9770508 L142.964111,61.0405273 C143.545169,62.5955481 143.913167,63.644203 144.068115,64.1865234 L144.11792,64.1865234 C144.350343,63.4726527 144.729408,62.4073964 145.255127,60.9907227 L147.164307,55.9770508 L148.010986,55.9770508 L143.968506,66.4609375 C143.642007,67.3131553 143.368084,67.8886704 143.146729,68.1875 C142.925373,68.4863296 142.666668,68.7104485 142.370605,68.8598633 C142.074543,69.0092781 141.716229,69.0839844 141.295654,69.0839844 C140.980223,69.0839844 140.628827,69.0258795 140.241455,68.909668 L140.241455,68.1958008 C140.56242,68.2843429 140.908283,68.3286133 141.279053,68.3286133 C141.561281,68.3286133 141.810302,68.2622077 142.026123,68.1293945 C142.241944,67.9965814 142.437011,67.7904474 142.611328,67.5109863 C142.785645,67.2315253 142.987629,66.7888214 143.217285,66.1828613 C143.446941,65.5769013 143.59497,65.1826181 143.661377,65 L140.208252,55.9770508 Z M158.918213,58.8823242 L163.392334,58.8823242 L163.392334,64.4189453 C162.219151,64.9169947 160.89934,65.1660156 159.432861,65.1660156 C157.518138,65.1660156 156.050298,64.6250868 155.029297,63.5432129 C154.008296,62.461339 153.497803,60.9298602 153.497803,58.9487305 C153.497803,57.7146748 153.750974,56.6203661 154.257324,55.6657715 C154.763674,54.7111769 155.488602,53.9737982 156.432129,53.4536133 C157.375656,52.9334284 158.458897,52.6733398 159.681885,52.6733398 C161.004483,52.6733398 162.191482,52.916827 163.24292,53.4038086 L162.902588,54.1674805 C161.85115,53.6804989 160.760992,53.4370117 159.63208,53.4370117 C158.032788,53.4370117 156.764165,53.9309033 155.826172,54.9187012 C154.888179,55.9064991 154.419189,57.2387611 154.419189,58.9155273 C154.419189,60.7417083 154.86466,62.1154739 155.755615,63.0368652 C156.64657,63.9582566 157.955314,64.4189453 159.681885,64.4189453 C160.799729,64.4189453 161.748775,64.261232 162.529053,63.9458008 L162.529053,59.6791992 L158.918213,59.6791992 L158.918213,58.8823242 Z M166.945068,55.9770508 L166.945068,61.8208008 C166.945068,62.7283574 167.135984,63.3882629 167.517822,63.8005371 C167.89966,64.2128113 168.491777,64.4189453 169.294189,64.4189453 C170.367763,64.4189453 171.157712,64.1477892 171.664062,63.6054688 C172.170413,63.0631483 172.423584,62.1805074 172.423584,60.9575195 L172.423584,55.9770508 L173.237061,55.9770508 L173.237061,65 L172.539795,65 L172.390381,63.7548828 L172.340576,63.7548828 C171.753985,64.6956427 170.710864,65.1660156 169.211182,65.1660156 C167.158111,65.1660156 166.131592,64.0675566 166.131592,61.8706055 L166.131592,55.9770508 L166.945068,55.9770508 Z M177.080322,65 L176.258545,65 L176.258545,55.9770508 L177.080322,55.9770508 L177.080322,65 Z M176.142334,53.4702148 C176.142334,52.9389622 176.316649,52.6733398 176.665283,52.6733398 C176.836834,52.6733398 176.971028,52.7425123 177.067871,52.8808594 C177.164714,53.0192064 177.213135,53.2156563 177.213135,53.4702148 C177.213135,53.7192395 177.164714,53.9156894 177.067871,54.0595703 C176.971028,54.2034512 176.836834,54.2753906 176.665283,54.2753906 C176.316649,54.2753906 176.142334,54.0070014 176.142334,53.4702148 Z M183.405518,55.8027344 C184.058516,55.8027344 184.622963,55.921711 185.098877,56.159668 C185.574791,56.3976249 186.000893,56.8043591 186.377197,57.3798828 L186.427002,57.3798828 C186.393799,56.6826137 186.377197,55.9991895 186.377197,55.3295898 L186.377197,52.0839844 L187.190674,52.0839844 L187.190674,65 L186.651123,65 L186.443604,63.6220703 L186.377197,63.6220703 C185.690996,64.6513723 184.70598,65.1660156 183.422119,65.1660156 C182.176996,65.1660156 181.225182,64.7786497 180.56665,64.0039062 C179.908118,63.2291628 179.578857,62.1002678 179.578857,60.6171875 C179.578857,59.0566328 179.905352,57.8640992 180.55835,57.0395508 C181.211348,56.2150024 182.160394,55.8027344 183.405518,55.8027344 Z M183.405518,56.5498047 C182.420487,56.5498047 181.680341,56.8956671 181.185059,57.5874023 C180.689776,58.2791376 180.442139,59.2835221 180.442139,60.6005859 C180.442139,63.1572393 181.435456,64.4355469 183.422119,64.4355469 C184.440353,64.4355469 185.187416,64.1394886 185.66333,63.5473633 C186.139244,62.9552379 186.377197,61.9785224 186.377197,60.6171875 L186.377197,60.4760742 C186.377197,59.081536 186.143394,58.078535 185.675781,57.467041 C185.208168,56.8555471 184.451421,56.5498047 183.405518,56.5498047 Z M193.864502,65.1660156 C192.552972,65.1660156 191.530603,64.7620483 190.797363,63.9541016 C190.064124,63.1461548 189.69751,62.014493 189.69751,60.559082 C189.69751,59.1202728 190.051673,57.9678591 190.76001,57.1018066 C191.468347,56.2357541 192.422927,55.8027344 193.623779,55.8027344 C194.686285,55.8027344 195.524655,56.1734989 196.138916,56.9150391 C196.753177,57.6565792 197.060303,58.6637306 197.060303,59.9365234 L197.060303,60.6005859 L190.560791,60.6005859 C190.571859,61.8401755 190.861,62.7864551 191.428223,63.4394531 C191.995446,64.0924512 192.807531,64.4189453 193.864502,64.4189453 C194.379153,64.4189453 194.831541,64.3829756 195.22168,64.3110352 C195.611818,64.2390947 196.10571,64.0841483 196.703369,63.8461914 L196.703369,64.5932617 C196.194252,64.814617 195.723879,64.965413 195.292236,65.0456543 C194.860594,65.1258956 194.384687,65.1660156 193.864502,65.1660156 Z M193.623779,56.5332031 C192.75496,56.5332031 192.057701,56.8195772 191.531982,57.392334 C191.006264,57.9650908 190.699138,58.7910102 190.610596,59.8701172 L196.188721,59.8701172 C196.188721,58.8242135 195.961835,58.0065947 195.508057,57.4172363 C195.054278,56.8278779 194.426192,56.5332031 193.623779,56.5332031 Z M205.145264,62.6508789 C205.145264,63.4588257 204.838138,64.0799946 204.223877,64.5144043 C203.609616,64.948814 202.738043,65.1660156 201.609131,65.1660156 C200.402745,65.1660156 199.445397,64.9806334 198.737061,64.6098633 L198.737061,63.7216797 C199.644617,64.175458 200.601964,64.4023438 201.609131,64.4023438 C202.500086,64.4023438 203.176593,64.2543146 203.638672,63.958252 C204.100751,63.6621893 204.331787,63.2679061 204.331787,62.7753906 C204.331787,62.3216123 204.147788,61.9397802 203.779785,61.6298828 C203.411782,61.3199854 202.807214,61.0156265 201.966064,60.7167969 C201.064042,60.3902978 200.430422,60.1094576 200.065186,59.8742676 C199.699949,59.6390776 199.424643,59.3734553 199.239258,59.0773926 C199.053873,58.7813299 198.961182,58.4202495 198.961182,57.9941406 C198.961182,57.319007 199.244789,56.7849955 199.812012,56.3920898 C200.379235,55.9991842 201.171951,55.8027344 202.190186,55.8027344 C203.164149,55.8027344 204.088293,55.9853497 204.962646,56.3505859 L204.655518,57.0976562 C203.770096,56.73242 202.948327,56.5498047 202.190186,56.5498047 C201.454179,56.5498047 200.870363,56.6715483 200.438721,56.9150391 C200.007078,57.1585299 199.79126,57.4960916 199.79126,57.9277344 C199.79126,58.3981143 199.958657,58.7744127 200.293457,59.0566406 C200.628257,59.3388686 201.282629,59.6542951 202.256592,60.0029297 C203.070072,60.2962254 203.662189,60.5604643 204.032959,60.7956543 C204.403729,61.0308443 204.681802,61.2978501 204.867188,61.5966797 C205.052573,61.8955093 205.145264,62.2469055 205.145264,62.6508789 Z" id="Travel-Photography-G"></path>
                <path d="M191.469545,27.4063886 L194.734375,12 L201.648437,12 L201.039062,14.9765625 C201.835941,14.273434 202.714839,13.6015657 203.675781,12.9609375 C204.636724,12.3203093 205.675776,12 206.792969,12 C207.910162,12 208.749997,12.3671838 209.3125,13.1015625 C209.875003,13.8359412 210.15625,14.5390591 210.15625,15.2109375 C210.15625,16.3671933 209.847659,17.3046839 209.230469,18.0234375 C208.613278,18.7421911 207.867192,19.1015625 206.992187,19.1015625 C206.117183,19.1015625 205.539064,18.9023457 205.257812,18.5039062 C204.976561,18.1054668 204.804688,17.6992208 204.742187,17.2851562 C204.679687,16.8710917 204.597657,16.54297 204.496094,16.3007812 C204.394531,16.0585925 204.179689,15.9375 203.851562,15.9375 C203.195309,15.9375 202.61719,16.0898422 202.117187,16.3945312 C201.617185,16.6992203 201.046878,17.156247 200.40625,17.765625 L196.5625,36 L189.648437,36 L190.769371,30.7104313 C187.658197,34.4243251 184.042387,36.28125 179.921875,36.28125 C177.640614,36.28125 175.820319,35.6914121 174.460937,34.5117188 C173.725104,33.8731508 173.188427,33.0091133 172.850903,31.9195971 C170.954219,34.6398751 168.483095,36 165.4375,36 C162.671861,36 161.101564,34.6250138 160.726562,31.875 C158.789053,34.8125147 156.394546,36.28125 153.542969,36.28125 C150.691392,36.28125 148.76563,34.9140762 147.765625,32.1796875 C147.753313,32.1459645 147.741213,32.112081 147.729323,32.078037 C146.212102,34.5097683 144.41171,35.879581 142.328125,36.1875 C141.828123,36.2500003 141.210941,36.28125 140.476562,36.28125 C139.742184,36.28125 139.015629,36.1250016 138.296875,35.8125 C136.296865,34.9687458 135.296875,33.3203248 135.296875,30.8671875 C135.296875,29.5546809 135.656246,27.4609519 136.375,24.5859375 C137.093754,21.7109231 137.453125,19.726568 137.453125,18.6328125 C137.453125,16.9921793 136.875006,16.171875 135.71875,16.171875 C134.562494,16.171875 133.531255,17.0859284 132.625,18.9140625 C132.359374,19.4296901 132.140626,19.9921845 131.96875,20.6015625 L128.710938,36 L121.796875,36 L122.389554,33.2032112 C120.502002,35.2552431 118.132574,36.28125 115.28125,36.28125 C114.031244,36.28125 112.906255,35.8281295 111.90625,34.921875 C110.92187,34.0156205 110.429687,32.5546976 110.429687,30.5390625 C110.429687,29.632808 110.554686,28.5859434 110.804687,27.3984375 L114.0625,12 L120.976562,12 L117.53125,28.3125 C117.406249,28.8906279 117.34375,29.4609347 117.34375,30.0234375 C117.34375,31.1015679 117.992181,31.640625 119.289062,31.640625 C120.226567,31.640625 121.097652,31.2343791 121.902344,30.421875 C122.691807,29.6247468 123.259433,28.639642 123.605237,27.466532 L126.882812,12 L133.796875,12 L133.28125,14.484375 C134.843758,12.7031161 136.710927,11.8125 138.882812,11.8125 C140.41407,11.8125 141.687495,12.2343708 142.703125,13.078125 C143.718755,13.9218792 144.226562,15.1718667 144.226562,16.828125 C144.226562,18.4843833 143.96094,20.3593645 143.429688,22.453125 L142.28125,27.09375 C142.031249,28.1093801 141.90625,28.9374968 141.90625,29.578125 C141.90625,30.9531319 142.492182,31.640625 143.664062,31.640625 C144.742193,31.640625 145.57031,31.2968784 146.148438,30.609375 C146.510915,30.1783204 146.870318,29.5967837 147.226651,28.8647569 C147.226592,28.8486625 147.226562,28.8325457 147.226562,28.8164062 C147.226562,27.5585875 147.335936,26.3007875 147.554688,25.0429688 C147.773439,23.78515 148.109373,22.5312562 148.5625,21.28125 C149.562505,18.5312362 150.992178,16.2578215 152.851562,14.4609375 C154.710947,12.6640535 156.953112,11.765625 159.578125,11.765625 C160.953132,11.765625 161.945309,11.9960914 162.554688,12.4570312 C163.164066,12.9179711 163.46875,13.4999965 163.46875,14.203125 L163.46875,14.390625 L165.8125,3.3515625 L172.914062,2.390625 L167.40625,28.3125 C167.265624,28.8593777 167.195312,29.4218721 167.195312,30 C167.195312,31.0937555 167.851556,31.640625 169.164062,31.640625 C170.549379,31.640625 171.637496,30.8001553 172.428433,29.1191966 C172.424061,28.9699603 172.421875,28.818249 172.421875,28.6640625 C172.421875,25.0077942 173.351553,21.4687671 175.210937,18.046875 C176.63282,15.437487 178.5703,13.5781305 181.023437,12.46875 C182.289069,11.874997 183.601556,11.578125 184.960937,11.578125 C187.179699,11.578125 188.687496,11.9960896 189.484375,12.8320312 C190.281254,13.6679729 190.679687,14.781243 190.679687,16.171875 C190.679687,18.9062637 189.578136,21.2304592 187.375,23.1445312 C185.171864,25.0586033 182.593765,26.1093741 179.640625,26.296875 C179.5625,27.2031295 179.523437,27.8437481 179.523437,28.21875 C179.523437,29.8593832 179.812497,30.9414036 180.390625,31.4648438 C180.968753,31.9882839 181.781245,32.25 182.828125,32.25 C184.671884,32.25 186.22265,31.8398479 187.480469,31.0195312 C188.736195,30.2005794 190.065874,28.9962105 191.469545,27.4063886 Z M66.25,27.3984375 L69.5078125,12 L76.421875,12 L72.9765625,28.3125 C72.882812,28.718752 72.8359375,29.124998 72.8359375,29.53125 C72.8359375,30.937507 73.3124952,31.640625 74.265625,31.640625 C75.9531334,31.640625 77.2343706,30.2265766 78.109375,27.3984375 L81.3671875,12 L88.28125,12 L84.8359375,28.3125 C84.6640616,29.0781288 84.578125,29.656248 84.578125,30.046875 C84.578125,31.1093803 85.1249945,31.640625 86.21875,31.640625 C87.7031324,31.640625 89.1171808,30.640635 90.4609375,28.640625 C92.2734466,25.9687366 93.5312465,22.6250201 94.234375,18.609375 C94.4218759,17.4843694 94.515625,16.4843794 94.515625,15.609375 C94.4374996,15.7812509 94.2109394,15.8984372 93.8359375,15.9609375 L93.34375,16.0546875 C93.2031243,16.0703126 93.085938,16.078125 92.9921875,16.078125 C92.4296847,16.078125 92.0000015,15.8085964 91.703125,15.2695312 C91.4062485,14.7304661 91.2578125,14.136722 91.2578125,13.4882812 C91.2578125,12.8398405 91.4960914,12.2695337 91.9726562,11.7773438 C92.4492211,11.2851538 93.0937459,11.0390625 93.90625,11.0390625 C95.1718813,11.0390625 96.0468726,11.4414022 96.53125,12.2460938 C97.0156274,13.0507853 97.2578125,14.0664001 97.2578125,15.2929688 C97.2578125,16.5195374 97.1484386,17.9023361 96.9296875,19.4414062 C96.7109364,20.9804764 96.3671898,22.5312422 95.8984375,24.09375 C94.8515573,27.6093926 93.382822,30.4218645 91.4921875,32.53125 C89.2421762,35.0312625 86.5429845,36.28125 83.3945312,36.28125 C80.246078,36.28125 78.3906278,34.9375134 77.828125,32.25 C76.0468661,34.9375134 73.7734513,36.28125 71.0078125,36.28125 C69.5703053,36.28125 68.3515675,35.8281295 67.3515625,34.921875 C66.3671826,34.0156205 65.875,32.5546976 65.875,30.5390625 C65.875,30.4607338 65.8759338,30.3813546 65.8778014,30.3009251 C62.6920578,34.2878247 58.9645859,36.28125 54.6953125,36.28125 C52.4140511,36.28125 50.5937568,35.6914121 49.234375,34.5117188 C48.4976768,33.8724002 47.9606033,33.0070818 47.6231513,31.9157541 C45.5976345,34.8260949 42.8925335,36.28125 39.5078125,36.28125 C38.2421812,36.28125 37.10938,35.8281295 36.109375,34.921875 C35.1249951,34.0156205 34.6328125,32.5546976 34.6328125,30.5390625 C34.6328125,29.632808 34.7578113,28.5859434 35.0078125,27.3984375 L38.265625,12 L45.1796875,12 L41.734375,28.3125 C41.6093744,28.8906279 41.546875,29.4609347 41.546875,30.0234375 C41.546875,31.1015679 42.195306,31.640625 43.4921875,31.640625 C44.4296922,31.640625 45.3007772,31.2343791 46.1054688,30.421875 C46.5354096,29.98776 46.8995561,29.4978933 47.1979107,28.9522705 C47.1961786,28.8571818 47.1953125,28.7611124 47.1953125,28.6640625 C47.1953125,25.0077942 48.1249907,21.4687671 49.984375,18.046875 C51.4062571,15.437487 53.3437377,13.5781305 55.796875,12.46875 C57.0625063,11.874997 58.3749932,11.578125 59.734375,11.578125 C61.9531361,11.578125 63.4609335,11.9960896 64.2578125,12.8320312 C65.0546915,13.6679729 65.453125,14.781243 65.453125,16.171875 C65.453125,18.9062637 64.3515735,21.2304592 62.1484375,23.1445312 C59.9453015,25.0586033 57.3672023,26.1093741 54.4140625,26.296875 C54.3359371,27.2031295 54.296875,27.8437481 54.296875,28.21875 C54.296875,29.8593832 54.5859346,30.9414036 55.1640625,31.4648438 C55.7421904,31.9882839 56.5546823,32.25 57.6015625,32.25 C59.4453217,32.25 60.9960875,31.8398479 62.2539062,31.0195312 C63.511725,30.1992146 64.843743,28.9921955 66.25,27.3984375 Z M18.15625,36 L17.3828125,3.2109375 C15.1328012,4.05469172 13.3789125,5.37499102 12.1210937,7.171875 C10.863275,8.96875898 10.234375,11.2031116 10.234375,13.875 C10.234375,15.1718815 10.4140607,16.1484342 10.7734375,16.8046875 C10.8515629,16.9296881 10.890625,17.039062 10.890625,17.1328125 C8.32811219,17.1328125 6.7265657,16.3125082 6.0859375,14.671875 C5.86718641,14.078122 5.7578125,13.3437544 5.7578125,12.46875 C5.7578125,10.859367 6.26171371,9.30860121 7.26953125,7.81640625 C8.27734879,6.32421129 9.57811703,5.00000578 11.171875,3.84375 C14.8125182,1.28123719 18.6249801,0 22.609375,0 C23.2656283,0 23.9062469,0.0312496875 24.53125,0.09375 L24.953125,29.625 L35.0546875,0.234375 L38.40625,0.234375 L25.0703125,36 L18.15625,36 Z M46.8671875,5.625 C46.8671875,6.68750531 46.488285,7.58202762 45.7304688,8.30859375 C44.9726525,9.03515988 44.0664115,9.3984375 43.0117188,9.3984375 C41.957026,9.3984375 41.0625037,9.03125367 40.328125,8.296875 C39.5937463,7.56249633 39.2265625,6.67188023 39.2265625,5.625 C39.2265625,4.57811977 39.5898401,3.67578504 40.3164062,2.91796875 C41.0429724,2.16015246 41.9414009,1.78125 43.0117188,1.78125 C44.0820366,1.78125 44.9921838,2.15624625 45.7421875,2.90625 C46.4921913,3.65625375 46.8671875,4.56249469 46.8671875,5.625 Z M61.75,15.84375 C61.75,14.6874942 61.3515665,14.109375 60.5546875,14.109375 C59.3828066,14.1406252 58.2500055,15.1757711 57.15625,17.2148438 C56.0624945,19.2539164 55.2734399,21.5156126 54.7890625,24 C56.6328217,23.8749994 58.2538993,23.015633 59.6523437,21.421875 C61.0507882,19.828117 61.75,17.9687606 61.75,15.84375 Z M116.851562,4.5703125 C116.789062,3.28905609 115.906259,2.6484375 114.203125,2.6484375 C112.093739,2.6484375 110.593754,3.78123867 109.703125,6.046875 C109.437499,6.70312828 109.242188,7.37499656 109.117187,8.0625 L108.296875,12 L112.140625,12 L111.765625,13.921875 L107.921875,13.921875 L102.4375,39.84375 C101.812497,42.843765 100.609384,45.0312431 98.828125,46.40625 C97.4531181,47.4687553 95.8671965,48 94.0703125,48 C92.2734285,48 90.820318,47.5156298 89.7109375,46.546875 C88.601557,45.5781202 88.046875,44.2734457 88.046875,42.6328125 C88.046875,39.9452991 89.8124823,37.9531315 93.34375,36.65625 C94.3281299,36.2812481 95.3281199,35.9375016 96.34375,35.625 L101.6875,10.359375 C103.156257,3.48434063 106.898407,0.046875 112.914062,0.046875 C117.382835,0.046875 120.124995,1.21873828 121.140625,3.5625 C121.390626,4.14062789 121.515625,4.81249617 121.515625,5.578125 C121.515625,7.00000711 121.125004,7.99999711 120.34375,8.578125 C119.562496,9.15625289 118.687505,9.4453125 117.71875,9.4453125 C115.796865,9.4453125 114.835937,8.58594609 114.835937,6.8671875 C114.835937,6.32030977 114.980467,5.79297129 115.269531,5.28515625 C115.558595,4.77734121 115.953122,4.5234375 116.453125,4.5234375 L116.6875,4.5234375 C116.765625,4.5234375 116.820312,4.53906234 116.851562,4.5703125 Z M96.015625,37.1953125 C92.4687323,38.3515683 90.6953125,39.8906154 90.6953125,41.8125 C90.6953125,42.5156285 90.9140603,43.0117173 91.3515625,43.3007812 C91.7890647,43.5898452 92.2343727,43.734375 92.6875,43.734375 C93.1406273,43.734375 93.6406223,43.4492216 94.1875,42.8789062 C94.7343777,42.3085909 95.1484361,41.3437568 95.4296875,39.984375 L96.015625,37.1953125 Z M154.328125,28.1484375 C154.328125,30.4765741 155.124992,31.640625 156.71875,31.640625 C157.390628,31.640625 158.136715,31.3164095 158.957031,30.6679688 C159.777348,30.019528 160.351561,29.0156318 160.679688,27.65625 L160.679688,27.3984375 L163.023438,16.40625 C162.726561,15.2968695 162.070318,14.7421875 161.054688,14.7421875 C160.039057,14.7421875 159.109379,15.2187452 158.265625,16.171875 C156.234365,18.4687615 154.96094,21.7656035 154.445312,26.0625 C154.367187,26.7187533 154.328125,27.4140588 154.328125,28.1484375 Z M186.976562,15.84375 C186.976562,14.6874942 186.578129,14.109375 185.78125,14.109375 C184.609369,14.1406252 183.476568,15.1757711 182.382812,17.2148438 C181.289057,19.2539164 180.500002,21.5156126 180.015625,24 C181.859384,23.8749994 183.480462,23.015633 184.878906,21.421875 C186.277351,19.828117 186.976562,17.9687606 186.976562,15.84375 Z" id="Combined-Shape"></path>
            </g>
        </g>
    </g>
</svg>