<?xml version="1.0" encoding="UTF-8" standalone="no"?>
<svg width="24px" height="24px" viewBox="0 0 24 24" version="1.1" xmlns="http://www.w3.org/2000/svg" xmlns:xlink="http://www.w3.org/1999/xlink">
    <!-- Generator: Sketch 43.2 (39069) - http://www.bohemiancoding.com/sketch -->
    <title>icons/lock</title>
    <desc>Created with Sketch.</desc>
    <defs></defs>
    <g id="Symbols" stroke="none" stroke-width="1" fill="none" fill-rule="evenodd">
        <g id="icons/lock">
            <g id="favorite">
                <rect id="bounds" x="0" y="0" width="24" height="24"></rect>
                <g id="lock" transform="translate(5.000000, 3.000000)" fill="#D4D4D4">
                    <path d="M12.25,6 L11.375,6 L11.375,4.28571429 C11.375,1.88571429 9.45,0 7,0 C4.55,0 2.625,1.88571429 2.625,4.28571429 L2.625,6 L1.75,6 C0.7875,6 0,6.77142857 0,7.71428571 L0,16.2857143 C0,17.2285714 0.7875,18 1.75,18 L12.25,18 C13.2125,18 14,17.2285714 14,16.2857143 L14,7.71428571 C14,6.77142857 13.2125,6 12.25,6 L12.25,6 Z M7,13.7142857 C6.0375,13.7142857 5.25,12.9428571 5.25,12 C5.25,11.0571429 6.0375,10.2857143 7,10.2857143 C7.9625,10.2857143 8.75,11.0571429 8.75,12 C8.75,12.9428571 7.9625,13.7142857 7,13.7142857 L7,13.7142857 Z M9.7125,6 L4.2875,6 L4.2875,4.28571429 C4.2875,2.82857143 5.5125,1.62857143 7,1.62857143 C8.4875,1.62857143 9.7125,2.82857143 9.7125,4.28571429 L9.7125,6 L9.7125,6 Z" id="Shape"></path>
                </g>
            </g>
        </g>
    </g>
</svg>