<?xml version="1.0" encoding="UTF-8"?>
<svg width="559px" height="235px" viewBox="0 0 559 235" version="1.1" xmlns="http://www.w3.org/2000/svg" xmlns:xlink="http://www.w3.org/1999/xlink">
    <!-- Generator: Sketch 49 (51002) - http://www.bohemiancoding.com/sketch -->
    <title>san-francisco copy</title>
    <desc>Created with Sketch.</desc>
    <defs></defs>
    <g id="san-francisco-copy" stroke="none" stroke-width="1" fill="none" fill-rule="evenodd">
        <g id="Group-23" transform="translate(-1.000000, -3.000000)">
            <g id="Group" transform="translate(0.000000, 75.000000)" fill="#FFFFFF">
                <path d="M84.85,22.796 C83.8179948,26.7520198 81.8615144,30.0629867 78.9805,32.729 C76.0994856,35.3950133 72.8530181,37.5879914 69.241,39.308 C67.0909893,40.2540047 64.812012,41.1569957 62.404,42.017 C61.1139936,42.4470022 60.2325024,43.263994 59.7595,44.468 C59.2864976,45.672006 59.1789987,46.875994 59.437,48.08 C59.437,48.2520009 59.5229991,48.5099983 59.695,48.854 C61.2430077,53.2400219 62.6619936,57.9054753 63.952,62.8505 C65.2420065,67.7955247 65.7580013,72.3749789 65.5,76.589 C65.2419987,80.8890215 64.210009,85.0169802 62.404,88.973 C60.597991,92.9290198 58.1900151,96.411985 55.18,99.422 C51.9979841,102.690016 48.40752,105.119492 44.4085,106.7105 C40.40948,108.301508 36.3460206,109.14 32.218,109.226 C28.0899794,109.312 24.0695196,108.667007 20.1565,107.291 C16.2434804,105.914993 12.8250146,103.894013 9.901,101.228 C6.97698538,98.5619867 4.67650839,95.3155191 2.9995,91.4885 C1.32249162,87.6614809 0.65599828,83.2970245 1,78.395 C1.25800129,74.7829819 2.09649291,71.3430163 3.5155,68.075 C4.9345071,64.8069837 6.89098753,61.9905118 9.385,59.6255 C11.8790125,57.2604882 14.8459828,55.5190056 18.286,54.401 C21.7260172,53.2829944 25.5529789,53.1109961 29.767,53.885 C32.7770151,54.4010026 35.4214886,55.3899927 37.7005,56.852 C39.9795114,58.3140073 41.7854933,60.0769897 43.1185,62.141 C44.4515067,64.2050103 45.2254989,66.5269871 45.4405,69.107 C45.6555011,71.6870129 45.2040056,74.3959858 44.086,77.234 C43.6559979,78.1800047 43.0540039,78.7604989 42.28,78.9755 C41.5059961,79.1905011 40.7535037,79.1475015 40.0225,78.8465 C39.2914963,78.5454985 38.7325019,78.0725032 38.3455,77.4275 C37.9584981,76.7824968 37.8939987,76.0730039 38.152,75.299 C38.8400034,73.6649918 39.0980009,72.0095084 38.926,70.3325 C38.7539991,68.6554916 38.2595041,67.1290069 37.4425,65.753 C36.6254959,64.3769931 35.5075071,63.1945049 34.0885,62.2055 C32.6694929,61.2164951 31.1000086,60.5500017 29.38,60.206 C26.369985,59.603997 23.5965127,59.7329957 21.0595,60.593 C18.5224873,61.4530043 16.3080095,62.8074908 14.416,64.6565 C12.5239905,66.5055092 11.0405054,68.7199871 9.9655,71.3 C8.89049463,73.8800129 8.26700086,76.5459862 8.095,79.298 C7.83699871,83.2540198 8.41749291,86.7154852 9.8365,89.6825 C11.2555071,92.6495148 13.168988,95.1004903 15.577,97.0355 C17.985012,98.9705097 20.7799841,100.389495 23.962,101.2925 C27.1440159,102.195505 30.3689837,102.518001 33.637,102.26 C36.9050163,102.001999 40.1084843,101.163507 43.2475,99.7445 C46.3865157,98.3254929 49.1169884,96.2400138 51.439,93.488 C53.4170099,91.2519888 55.007994,88.736514 56.212,85.9415 C57.416006,83.146486 58.1899983,80.2010155 58.534,77.105 C59.0500026,72.4609768 58.5985071,67.7740237 57.1795,63.044 C55.7604929,58.3139763 54.2770077,53.6700228 52.729,49.112 C52.2989979,47.7359931 51.3960069,46.6610039 50.02,45.887 C48.6439931,45.1129961 47.2680069,44.6830004 45.892,44.597 C44.8599948,44.597 43.8495049,44.5540004 42.8605,44.468 C41.8714951,44.3819996 40.9040047,44.2530009 39.958,44.081 C32.2179613,42.7049931 26.2195213,39.4585256 21.9625,34.3415 C17.7054787,29.2244744 15.7919979,22.7530391 16.222,14.927 C16.3080004,13.722994 16.7164963,12.8630026 17.4475,12.347 C18.1785037,11.8309974 18.9524959,11.5944998 19.7695,11.6375 C20.5865041,11.6805002 21.295997,11.9814972 21.898,12.5405 C22.500003,13.0995028 22.7580004,13.8519953 22.672,14.798 C22.3279983,17.808015 22.5644959,20.6244869 23.3815,23.2475 C24.1985041,25.8705131 25.4239918,28.2139897 27.058,30.278 C28.6920082,32.3420103 30.6914882,34.0619931 33.0565,35.438 C35.4215118,36.8140069 38.0229858,37.7599974 40.861,38.276 C45.1610215,38.9640034 49.5899772,38.8565045 54.148,37.9535 C58.7060228,37.0504955 62.8769811,35.7390086 66.661,34.019 C69.4990142,32.5569927 72.0574886,30.8155101 74.3365,28.7945 C76.6155114,26.7734899 78.0989966,24.3870138 78.787,21.635 C79.2170022,19.828991 79.2815015,18.2165071 78.9805,16.7975 C78.6794985,15.3784929 78.0990043,14.1745049 77.239,13.1855 C76.3789957,12.1964951 75.3255062,11.4440026 74.0785,10.928 C72.8314938,10.4119974 71.5200069,10.1110004 70.144,10.025 C67.8219884,9.93899957 65.8225084,10.2829961 64.1455,11.057 C62.4684916,11.8310039 61.028006,12.9059931 59.824,14.282 C58.619994,15.6580069 57.6525037,17.2274912 56.9215,18.9905 C56.1904963,20.7535088 55.6960013,22.6239901 55.438,24.602 C55.2659991,26.0640073 55.2444994,27.3109948 55.3735,28.343 C55.5025006,29.3750052 55.6529991,30.6219927 55.825,32.084 C55.9970009,32.9440043 55.8250026,33.6534972 55.309,34.2125 C54.7929974,34.7715028 54.1910034,35.1369991 53.503,35.309 C52.5569953,35.5670013 51.6325045,35.5025019 50.7295,35.1155 C49.8264955,34.7284981 49.3320004,34.0190052 49.246,32.987 C48.9879987,31.2669914 48.7730009,29.8265058 48.601,28.6655 C48.4289991,27.5044942 48.4289991,26.1070082 48.601,24.473 C48.9450017,21.7209862 49.6329948,19.0980125 50.665,16.604 C51.6970052,14.1099875 53.0944912,11.9385092 54.8575,10.0895 C56.6205088,8.24049075 58.7704873,6.75700559 61.3075,5.639 C63.8445127,4.52099441 66.7469837,3.962 70.015,3.962 C72.423012,3.962 74.6804895,4.37049591 76.7875,5.1875 C78.8945105,6.00450409 80.6789927,7.20849205 82.141,8.7995 C83.6030073,10.390508 84.6134972,12.3684882 85.1725,14.7335 C85.7315028,17.0985118 85.6240039,19.7859849 84.85,22.796 Z" id="Path"></path>
                <path d="M90.01,53.627 C91.4720073,52.8529961 92.9339927,52.3370013 94.396,52.079 C95.8580073,51.8209987 97.190994,51.7779991 98.395,51.95 C99.4270052,52.1220009 100.394495,52.3584985 101.2975,52.6595 C102.200505,52.9605015 102.995997,53.3259979 103.684,53.756 C104.716005,54.358003 105.554497,54.5300013 106.1995,54.272 C106.844503,54.0139987 107.381998,53.7560013 107.812,53.498 C108.328003,53.0679979 108.951496,52.853 109.6825,52.853 C110.413504,52.853 111.058497,53.0249983 111.6175,53.369 C112.176503,53.7130017 112.584999,54.2504963 112.843,54.9815 C113.101001,55.7125037 113.015002,56.6369944 112.585,57.755 C112.326999,58.357003 111.983002,59.3029936 111.553,60.593 C111.122998,61.8830065 110.607003,63.3664916 110.005,65.0435 C109.402997,66.7205084 108.801003,68.5264903 108.199,70.4615 C107.596997,72.3965097 107.038003,74.3529901 106.522,76.331 C106.091998,78.2230095 105.705002,80.0289914 105.361,81.749 C105.016998,83.4690086 104.759001,85.0599927 104.587,86.522 C104.414999,90.3060189 105.532988,92.1120009 107.941,91.94 C109.489008,91.8539996 111.015492,91.0585075 112.5205,89.5535 C114.025508,88.0484925 115.444493,86.3070099 116.7775,84.329 C118.110507,82.3509901 119.357494,80.3085105 120.5185,78.2015 C121.679506,76.0944895 122.646996,74.3530069 123.421,72.977 C123.679001,72.4609974 124.087497,72.203 124.6465,72.203 C125.205503,72.203 125.721498,72.3319987 126.1945,72.59 C126.667502,72.8480013 127.011499,73.2349974 127.2265,73.751 C127.441501,74.2670026 127.377002,74.825997 127.033,75.428 C126.086995,77.1480086 124.990506,79.1689884 123.7435,81.491 C122.496494,83.8130116 121.099008,86.070489 119.551,88.2635 C118.002992,90.456511 116.283009,92.3914916 114.391,94.0685 C112.498991,95.7455084 110.435011,96.7559983 108.199,97.1 C106.650992,97.3580013 105.232006,97.2505024 103.942,96.7775 C102.651994,96.3044976 101.534005,95.3800069 100.588,94.004 C99.6419953,92.5419927 98.7820039,91.8539996 98.008,91.94 C97.2339961,92.0260004 96.3310052,92.4559961 95.299,93.23 C93.3209901,94.9500086 91.0420129,96.1539966 88.462,96.842 C86.3119893,97.3580026 84.3555088,97.1645045 82.5925,96.2615 C80.8294912,95.3584955 79.3890056,94.0470086 78.271,92.327 C76.7229923,89.8329875 75.949,86.7800181 75.949,83.168 C75.949,79.5559819 76.550994,75.8580189 77.755,72.074 C78.959006,68.0319798 80.6359893,64.312517 82.786,60.9155 C84.9360108,57.518483 87.3439867,55.0890073 90.01,53.627 Z M101.233,61.238 C100.716997,59.6899923 99.7710069,58.6580026 98.395,58.142 C96.5029905,57.2819957 94.2670129,57.754991 91.687,59.561 C90.2249927,60.6790056 88.8490064,62.441988 87.559,64.85 C86.2689935,67.258012 85.1510047,69.8809858 84.205,72.719 C83.1729948,75.8150155 82.5280013,78.867985 82.27,81.878 C82.0119987,84.8880151 82.3129957,87.295991 83.173,89.102 C83.6890026,90.1340052 84.4199953,90.9079974 85.366,91.424 C86.3120047,91.9400026 87.5159927,91.8540034 88.978,91.166 C91.1280107,90.2199953 93.2134899,88.3280142 95.2345,85.49 C97.2555101,82.6519858 98.7819948,79.4270181 99.814,75.815 C100.674004,73.0629862 101.275998,70.3755131 101.62,67.7525 C101.964002,65.1294869 101.835003,62.9580086 101.233,61.238 Z" id="Combined-Shape"></path>
                <path d="M128.839,54.53 C129.183002,53.6699957 129.677497,53.0465019 130.3225,52.6595 C130.967503,52.2724981 131.612497,52.079 132.2575,52.079 C132.902503,52.079 133.504497,52.2509983 134.0635,52.595 C134.622503,52.9390017 135.030999,53.3689974 135.289,53.885 C135.375,54.0570009 135.611498,54.2934985 135.9985,54.5945 C136.385502,54.8955015 136.965996,54.8310021 137.74,54.401 C140.578014,52.3369897 143.759982,51.3909991 147.286,51.563 C148.318005,51.6490004 149.371495,51.9069978 150.4465,52.337 C151.521505,52.7670021 152.467496,53.4334955 153.2845,54.3365 C154.101504,55.2395045 154.660498,56.4219927 154.9615,57.884 C155.262502,59.3460073 155.155003,61.1089897 154.639,63.173 C154.122997,65.1510099 153.564003,67.042991 152.962,68.849 C152.359997,70.655009 151.736503,72.460991 151.0915,74.267 C150.446497,76.073009 149.844503,77.9434903 149.2855,79.8785 C148.726497,81.8135097 148.275002,83.8989888 147.931,86.135 C147.500998,88.3710112 147.651496,89.8114968 148.3825,90.4565 C149.113504,91.1015032 150.123994,91.1660026 151.414,90.65 C152.790007,90.1339974 154.230492,88.973009 155.7355,87.167 C157.240508,85.360991 158.723993,83.3400112 160.186,81.104 C161.390006,79.2119905 162.464995,77.4060086 163.411,75.686 C164.357005,73.9659914 165.173997,72.5900052 165.862,71.558 C166.120001,71.0419974 166.528497,70.784 167.0875,70.784 C167.646503,70.784 168.162498,70.9129987 168.6355,71.171 C169.108502,71.4290013 169.452499,71.8374972 169.6675,72.3965 C169.882501,72.9555028 169.818002,73.535997 169.474,74.138 C168.527995,75.6860077 167.496006,77.4919897 166.378,79.556 C165.259994,81.6200103 163.970007,83.6409901 162.508,85.619 C160.959992,87.8550112 159.326009,89.9189905 157.606,91.811 C155.885991,93.7030095 154.03701,95.0359961 152.059,95.81 C150.682993,96.3260026 149.328507,96.5410004 147.9955,96.455 C146.662493,96.3689996 145.480005,95.9605037 144.448,95.2295 C143.415995,94.4984963 142.642003,93.4020073 142.126,91.94 C141.609997,90.4779927 141.480999,88.6290112 141.739,86.393 C142.083002,83.984988 142.534497,81.7705101 143.0935,79.7495 C143.652503,77.7284899 144.232997,75.7935092 144.835,73.9445 C145.437003,72.0954908 146.060497,70.268009 146.7055,68.462 C147.350503,66.655991 147.973997,64.7210103 148.576,62.657 C148.920002,61.3669935 148.769503,60.3780034 148.1245,59.69 C147.479497,59.0019966 146.727004,58.5720009 145.867,58.4 C143.80299,58.0559983 141.825009,58.5934929 139.933,60.0125 C138.040991,61.4315071 136.321008,63.2159892 134.773,65.366 C133.224992,67.5160107 131.913505,69.7734882 130.8385,72.1385 C129.763495,74.5035118 129.011002,76.5029918 128.581,78.137 L124.066,94.004 C123.807999,95.0360052 123.313504,95.7239983 122.5825,96.068 C121.851496,96.4120017 121.099004,96.4980009 120.325,96.326 C119.550996,96.1539991 118.884503,95.7885028 118.3255,95.2295 C117.766497,94.6704972 117.572999,93.9180047 117.745,92.972 L128.839,54.53 Z" id="Path"></path>
                <path d="M225.847,14.024 C237.586,16.604 246.874,17.894 256.936,17.636 C279.253,17.12 294.991,10.025 315.889,4.091 C325.951,1.253 336.271,-0.295 346.333,2.027 C352.912,3.446 359.233,7.316 362.329,13.637 C365.425,20.216 358.588,21.248 357.298,17.765 C355.363,12.347 350.203,9.509 344.914,8.09 C336.658,5.768 327.112,7.058 317.566,9.638 C294.346,15.959 280.93,23.957 255.775,23.699 C253.324,23.57 248.68,25.763 247.261,29.375 C244.939,35.567 243.004,39.824 240.811,46.145 C240.037,48.596 240.811,51.692 243.649,51.821 L243.907,51.821 C246.745,51.692 249.454,51.821 252.034,52.079 C252.937,50.144 254.098,48.338 255.388,46.661 C257.581,44.597 261.451,46.532 259.516,50.015 C255.904,55.691 254.485,59.174 253.582,65.882 C252.808,69.881 248.68,68.72 248.293,65.753 C248.422,63.173 248.938,60.464 249.712,57.884 C246.1,57.497 242.23,57.626 238.36,58.142 C234.232,58.658 229.846,59.69 225.847,60.98 C221.461,62.399 217.462,64.334 213.85,66.527 C209.722,68.849 207.658,64.205 209.98,61.754 C213.85,58.658 219.526,56.207 225.976,54.401 C229.975,52.724 232.039,50.402 233.587,46.532 C235.909,39.695 238.102,34.148 240.811,27.569 C242.617,22.796 236.038,22.538 234.877,22.28 C227.008,20.99 214.624,16.346 208.561,19.055 C202.885,21.377 199.402,27.053 198.757,32.342 C197.596,42.791 208.69,47.306 215.527,40.469 C218.494,38.276 222.106,42.662 218.881,45.242 C207.271,54.143 192.178,48.725 192.436,32.729 C192.565,24.86 197.596,16.475 206.626,13.637 C212.947,11.573 219.397,12.734 225.847,14.024 Z" id="Path"></path>
                <path d="M227.911,63.56 C229.588,59.432 236.038,59.948 235.006,63.044 C231.781,72.848 229.072,79.556 224.686,89.231 C218.623,102.647 204.175,116.579 188.824,111.032 C182.632,108.968 185.341,102.647 188.566,104.066 C201.595,109.355 212.947,98.39 218.107,87.425 C222.493,78.524 224.944,72.719 227.911,63.56 Z" id="Path"></path>
                <path d="M275.132,46.919 C276.336006,45.714994 277.647493,45.3709974 279.0665,45.887 C280.485507,46.4030026 281.280999,47.2199944 281.453,48.338 C281.453,49.0260034 281.324001,49.8644951 281.066,50.8535 C280.807999,51.8425049 280.550001,52.8099953 280.292,53.756 C280.206,54.1000017 280.1415,54.5514972 280.0985,55.1105 C280.0555,55.6695028 280.463996,56.1209983 281.324,56.465 C282.528006,56.8950021 284.011491,57.5614955 285.7745,58.4645 C287.537509,59.3675045 288.934995,60.2059961 289.967,60.98 C291.085006,61.7540039 291.858998,62.5279961 292.289,63.302 C292.719002,64.0760039 292.9125,64.9359953 292.8695,65.882 C292.8265,66.8280047 292.590002,67.8814942 292.16,69.0425 C291.729998,70.2035058 291.214003,71.6009918 290.612,73.235 C290.009997,74.7830077 289.365003,76.3094925 288.677,77.8145 C287.988997,79.3195075 287.365503,80.7599931 286.8065,82.136 C286.247497,83.5120069 285.774502,84.801994 285.3875,86.006 C285.000498,87.210006 284.764,88.2419957 284.678,89.102 C284.678,90.4780069 285.279994,91.3809978 286.484,91.811 C287.602006,92.1550017 288.956492,91.5530077 290.5475,90.005 C292.138508,88.4569923 293.729492,86.586511 295.3205,84.3935 C296.911508,82.200489 298.351994,80.0290107 299.642,77.879 L302.351,73.364 C302.695002,72.6759966 302.952999,72.2030013 303.125,71.945 C303.383001,71.4289974 303.791497,71.1495002 304.3505,71.1065 C304.909503,71.0634998 305.446997,71.1709987 305.963,71.429 C306.479003,71.6870013 306.844499,72.0954972 307.0595,72.6545 C307.274501,73.2135028 307.210002,73.793997 306.866,74.396 C306.693999,74.5680009 306.522001,74.8259983 306.35,75.17 C305.403995,76.8900086 304.178508,79.0829867 302.6735,81.749 C301.168492,84.4150133 299.44851,86.951988 297.5135,89.36 C295.57849,91.768012 293.493011,93.7889918 291.257,95.423 C289.020989,97.0570082 286.742012,97.6590021 284.42,97.229 C282.527991,96.8849983 281.044505,96.111006 279.9695,94.907 C278.894495,93.702994 278.314,92.2840082 278.228,90.65 C278.228,89.3599935 278.464498,87.919508 278.9375,86.3285 C279.410502,84.737492 279.969497,83.1035084 280.6145,81.4265 C281.259503,79.7494916 281.947496,78.0725084 282.6785,76.3955 C283.409504,74.7184916 284.075997,73.1490073 284.678,71.687 C284.936001,71.084997 285.172499,70.483003 285.3875,69.881 C285.602501,69.278997 285.7315,68.6985028 285.7745,68.1395 C285.8175,67.5804972 285.710001,67.0215028 285.452,66.4625 C285.193999,65.9034972 284.635004,65.3660026 283.775,64.85 C283.172997,64.4199978 282.549503,64.0545015 281.9045,63.7535 C281.259497,63.4524985 280.593003,63.1730013 279.905,62.915 C279.474998,62.7429991 278.894504,62.7429991 278.1635,62.915 C277.432496,63.0870009 276.852002,63.6459953 276.422,64.592 C274.44399,69.3220236 272.208012,73.8799781 269.714,78.266 C269.369998,78.7820026 268.897003,79.1044994 268.295,79.2335 C267.692997,79.3625006 267.155502,79.2980013 266.6825,79.04 C266.209498,78.7819987 265.865501,78.352003 265.6505,77.75 C265.435499,77.147997 265.542998,76.4170043 265.973,75.557 C267.091006,73.6649905 268.230494,71.515012 269.3915,69.107 C270.552506,66.698988 271.605995,64.291012 272.552,61.883 C272.982002,60.8509948 273.1755,60.2705006 273.1325,60.1415 C273.0895,60.0124994 272.853002,59.6040034 272.423,58.916 C271.992998,58.0559957 271.778,57.0670056 271.778,55.949 C271.778,54.8309944 271.928498,53.6915058 272.2295,52.5305 C272.530502,51.3694942 272.938997,50.2945049 273.455,49.3055 C273.971003,48.3164951 274.529997,47.521003 275.132,46.919 Z" id="Path"></path>
                <path d="M315.251,53.627 C316.713007,52.8529961 318.174993,52.3370013 319.637,52.079 C321.099007,51.8209987 322.431994,51.7779991 323.636,51.95 C324.668005,52.1220009 325.635495,52.3584985 326.5385,52.6595 C327.441505,52.9605015 328.236997,53.3259979 328.925,53.756 C329.957005,54.358003 330.795497,54.5300013 331.4405,54.272 C332.085503,54.0139987 332.622998,53.7560013 333.053,53.498 C333.569003,53.0679979 334.192496,52.853 334.9235,52.853 C335.654504,52.853 336.299497,53.0249983 336.8585,53.369 C337.417503,53.7130017 337.825999,54.2504963 338.084,54.9815 C338.342001,55.7125037 338.256002,56.6369944 337.826,57.755 C337.567999,58.357003 337.224002,59.3029936 336.794,60.593 C336.363998,61.8830065 335.848003,63.3664916 335.246,65.0435 C334.643997,66.7205084 334.042003,68.5264903 333.44,70.4615 C332.837997,72.3965097 332.279003,74.3529901 331.763,76.331 C331.332998,78.2230095 330.946002,80.0289914 330.602,81.749 C330.257998,83.4690086 330.000001,85.0599927 329.828,86.522 C329.655999,90.3060189 330.773988,92.1120009 333.182,91.94 C334.730008,91.8539996 336.256492,91.0585075 337.7615,89.5535 C339.266508,88.0484925 340.685493,86.3070099 342.0185,84.329 C343.351507,82.3509901 344.598494,80.3085105 345.7595,78.2015 C346.920506,76.0944895 347.887996,74.3530069 348.662,72.977 C348.920001,72.4609974 349.328497,72.203 349.8875,72.203 C350.446503,72.203 350.962498,72.3319987 351.4355,72.59 C351.908502,72.8480013 352.252499,73.2349974 352.4675,73.751 C352.682501,74.2670026 352.618002,74.825997 352.274,75.428 C351.327995,77.1480086 350.231506,79.1689884 348.9845,81.491 C347.737494,83.8130116 346.340008,86.070489 344.792,88.2635 C343.243992,90.456511 341.524009,92.3914916 339.632,94.0685 C337.739991,95.7455084 335.676011,96.7559983 333.44,97.1 C331.891992,97.3580013 330.473006,97.2505024 329.183,96.7775 C327.892994,96.3044976 326.775005,95.3800069 325.829,94.004 C324.882995,92.5419927 324.023004,91.8539996 323.249,91.94 C322.474996,92.0260004 321.572005,92.4559961 320.54,93.23 C318.56199,94.9500086 316.283013,96.1539966 313.703,96.842 C311.552989,97.3580026 309.596509,97.1645045 307.8335,96.2615 C306.070491,95.3584955 304.630006,94.0470086 303.512,92.327 C301.963992,89.8329875 301.19,86.7800181 301.19,83.168 C301.19,79.5559819 301.791994,75.8580189 302.996,72.074 C304.200006,68.0319798 305.876989,64.312517 308.027,60.9155 C310.177011,57.518483 312.584987,55.0890073 315.251,53.627 Z M326.474,61.238 C325.957997,59.6899923 325.012007,58.6580026 323.636,58.142 C321.743991,57.2819957 319.508013,57.754991 316.928,59.561 C315.465993,60.6790056 314.090006,62.441988 312.8,64.85 C311.509994,67.258012 310.392005,69.8809858 309.446,72.719 C308.413995,75.8150155 307.769001,78.867985 307.511,81.878 C307.252999,84.8880151 307.553996,87.295991 308.414,89.102 C308.930003,90.1340052 309.660995,90.9079974 310.607,91.424 C311.553005,91.9400026 312.756993,91.8540034 314.219,91.166 C316.369011,90.2199953 318.45449,88.3280142 320.4755,85.49 C322.49651,82.6519858 324.022995,79.4270181 325.055,75.815 C325.915004,73.0629862 326.516998,70.3755131 326.861,67.7525 C327.205002,65.1294869 327.076003,62.9580086 326.474,61.238 Z" id="Combined-Shape"></path>
                <path d="M354.08,54.53 C354.424002,53.6699957 354.918497,53.0465019 355.5635,52.6595 C356.208503,52.2724981 356.853497,52.079 357.4985,52.079 C358.143503,52.079 358.745497,52.2509983 359.3045,52.595 C359.863503,52.9390017 360.271999,53.3689974 360.53,53.885 C360.616,54.0570009 360.852498,54.2934985 361.2395,54.5945 C361.626502,54.8955015 362.206996,54.8310021 362.981,54.401 C365.819014,52.3369897 369.000982,51.3909991 372.527,51.563 C373.559005,51.6490004 374.612495,51.9069978 375.6875,52.337 C376.762505,52.7670021 377.708496,53.4334955 378.5255,54.3365 C379.342504,55.2395045 379.901498,56.4219927 380.2025,57.884 C380.503502,59.3460073 380.396003,61.1089897 379.88,63.173 C379.363997,65.1510099 378.805003,67.042991 378.203,68.849 C377.600997,70.655009 376.977503,72.460991 376.3325,74.267 C375.687497,76.073009 375.085503,77.9434903 374.5265,79.8785 C373.967497,81.8135097 373.516002,83.8989888 373.172,86.135 C372.741998,88.3710112 372.892496,89.8114968 373.6235,90.4565 C374.354504,91.1015032 375.364994,91.1660026 376.655,90.65 C378.031007,90.1339974 379.471492,88.973009 380.9765,87.167 C382.481508,85.360991 383.964993,83.3400112 385.427,81.104 C386.631006,79.2119905 387.705995,77.4060086 388.652,75.686 C389.598005,73.9659914 390.414997,72.5900052 391.103,71.558 C391.361001,71.0419974 391.769497,70.784 392.3285,70.784 C392.887503,70.784 393.403498,70.9129987 393.8765,71.171 C394.349502,71.4290013 394.693499,71.8374972 394.9085,72.3965 C395.123501,72.9555028 395.059002,73.535997 394.715,74.138 C393.768995,75.6860077 392.737006,77.4919897 391.619,79.556 C390.500994,81.6200103 389.211007,83.6409901 387.749,85.619 C386.200992,87.8550112 384.567009,89.9189905 382.847,91.811 C381.126991,93.7030095 379.27801,95.0359961 377.3,95.81 C375.923993,96.3260026 374.569507,96.5410004 373.2365,96.455 C371.903493,96.3689996 370.721005,95.9605037 369.689,95.2295 C368.656995,94.4984963 367.883003,93.4020073 367.367,91.94 C366.850997,90.4779927 366.721999,88.6290112 366.98,86.393 C367.324002,83.984988 367.775497,81.7705101 368.3345,79.7495 C368.893503,77.7284899 369.473997,75.7935092 370.076,73.9445 C370.678003,72.0954908 371.301497,70.268009 371.9465,68.462 C372.591503,66.655991 373.214997,64.7210103 373.817,62.657 C374.161002,61.3669935 374.010503,60.3780034 373.3655,59.69 C372.720497,59.0019966 371.968004,58.5720009 371.108,58.4 C369.04399,58.0559983 367.066009,58.5934929 365.174,60.0125 C363.281991,61.4315071 361.562008,63.2159892 360.014,65.366 C358.465992,67.5160107 357.154505,69.7734882 356.0795,72.1385 C355.004495,74.5035118 354.252002,76.5029918 353.822,78.137 L349.307,94.004 C349.048999,95.0360052 348.554504,95.7239983 347.8235,96.068 C347.092496,96.4120017 346.340004,96.4980009 345.566,96.326 C344.791996,96.1539991 344.125503,95.7885028 343.5665,95.2295 C343.007497,94.6704972 342.813999,93.9180047 342.986,92.972 L354.08,54.53 Z" id="Path"></path>
                <path d="M391.49,91.295 C390.027993,88.886988 389.3185,85.8985178 389.3615,82.3295 C389.4045,78.7604822 390.027994,75.1270185 391.232,71.429 C392.092004,68.9349875 393.188493,66.5055118 394.5215,64.1405 C395.854507,61.7754882 397.359492,59.690009 399.0365,57.884 C400.713508,56.077991 402.56249,54.6160056 404.5835,53.498 C406.60451,52.3799944 408.689989,51.821 410.84,51.821 C412.560009,51.7349996 414.215492,52.0574963 415.8065,52.7885 C417.397508,53.5195037 418.622996,54.7019918 419.483,56.336 C421.117008,59.3460151 420.859011,62.9579789 418.709,67.172 C418.364998,68.1180047 417.827504,68.7414985 417.0965,69.0425 C416.365496,69.3435015 415.677503,69.4080009 415.0325,69.236 C414.387497,69.0639991 413.893002,68.6555032 413.549,68.0105 C413.204998,67.3654968 413.290997,66.5700047 413.807,65.624 C414.237002,64.6779953 414.645498,63.6460056 415.0325,62.528 C415.419502,61.4099944 415.398002,60.3350052 414.968,59.303 C414.623998,58.4429957 414.108003,57.8840013 413.42,57.626 C412.731997,57.3679987 412.001004,57.2819996 411.227,57.368 C409.764993,57.5400009 408.324507,58.0774955 406.9055,58.9805 C405.486493,59.8835045 404.175006,61.0444929 402.971,62.4635 C401.766994,63.8825071 400.670505,65.4734912 399.6815,67.2365 C398.692495,68.9995088 397.897003,70.8269905 397.295,72.719 C396.262995,75.6430146 395.639501,78.4809862 395.4245,81.233 C395.209499,83.9850138 395.574995,86.263991 396.521,88.07 C397.295004,89.6180077 398.369993,90.692997 399.746,91.295 C401.122007,91.897003 402.626992,92.1120009 404.261,91.94 C406.669012,91.7679991 408.947989,91.0155067 411.098,89.6825 C413.248011,88.3494933 415.204491,86.7155097 416.9675,84.7805 C418.730509,82.8454903 420.321493,80.8030108 421.7405,78.653 C423.159507,76.5029893 424.384995,74.525009 425.417,72.719 C425.761002,72.2029974 426.212497,71.9235002 426.7715,71.8805 C427.330503,71.8374998 427.846498,71.9449987 428.3195,72.203 C428.792502,72.4610013 429.136499,72.8694972 429.3515,73.4285 C429.566501,73.9875028 429.502002,74.567997 429.158,75.17 C427.867994,77.4060112 426.406008,79.7494877 424.772,82.2005 C423.137992,84.6515123 421.31051,86.9304895 419.2895,89.0375 C417.26849,91.1445105 415.032512,92.9504925 412.5815,94.4555 C410.130488,95.9605075 407.443015,96.8419987 404.519,97.1 C402.024988,97.3580013 399.595512,97.0140047 397.2305,96.068 C394.865488,95.1219953 392.952007,93.5310112 391.49,91.295 Z" id="Path"></path>
                <path d="M438.446,36.857 C439.564006,36.857 440.509996,37.2439961 441.284,38.018 C442.058004,38.7920039 442.445,39.7379944 442.445,40.856 C442.445,41.9740056 442.058004,42.9199961 441.284,43.694 C440.509996,44.4680039 439.564006,44.855 438.446,44.855 C437.327994,44.855 436.403504,44.4680039 435.6725,43.694 C434.941496,42.9199961 434.576,41.9740056 434.576,40.856 C434.576,39.7379944 434.941496,38.7920039 435.6725,38.018 C436.403504,37.2439961 437.327994,36.857 438.446,36.857 Z" id="Path"></path>
                <path d="M431.222,54.53 C431.566002,53.6699957 432.081997,52.9820026 432.77,52.466 C433.458003,51.9499974 434.274995,51.8639983 435.221,52.208 C435.909003,52.3800009 436.510997,52.8099966 437.027,53.498 C437.543003,54.1860034 437.629002,55.131994 437.285,56.336 C436.338995,58.744012 435.350005,61.4099854 434.318,64.334 C433.285995,67.2580146 432.297005,70.224985 431.351,73.235 C431.092999,74.2670052 430.770502,75.5139927 430.3835,76.976 C429.996498,78.4380073 429.674001,79.9429923 429.416,81.491 C429.157999,83.0390077 429.0075,84.5224929 428.9645,85.9415 C428.9215,87.3605071 429.071998,88.5429953 429.416,89.489 C430.018003,91.0370077 430.963994,91.7250009 432.254,91.553 C433.544006,91.3809991 434.833994,90.7360056 436.124,89.618 C437.242006,88.6719953 438.338495,87.5325067 439.4135,86.1995 C440.488505,84.8664933 441.498995,83.4690073 442.445,82.007 C443.649006,80.200991 444.680996,78.4810082 445.541,76.847 C446.401004,75.2129918 447.045998,73.9660043 447.476,73.106 C447.820002,72.503997 448.271497,72.1385006 448.8305,72.0095 C449.389503,71.8804994 449.905498,71.9234989 450.3785,72.1385 C450.851502,72.3535011 451.216999,72.6974976 451.475,73.1705 C451.733001,73.6435024 451.733001,74.180997 451.475,74.783 C450.270994,77.5350138 448.594011,80.6309828 446.444,84.071 C445.325994,85.877009 444.122006,87.6184916 442.832,89.2955 C441.541994,90.9725084 440.166007,92.412994 438.704,93.617 C437.327993,94.7350056 435.909007,95.5734972 434.447,96.1325 C432.984993,96.6915028 431.587507,96.9495002 430.2545,96.9065 C428.921493,96.8634998 427.696006,96.4550039 426.578,95.681 C425.459994,94.9069961 424.600003,93.7460077 423.998,92.198 C423.481997,90.8219931 423.2025,89.231009 423.1595,87.425 C423.1165,85.618991 423.223999,83.7485097 423.482,81.8135 C423.740001,79.8784903 424.062498,77.9865092 424.4495,76.1375 C424.836502,74.2884908 425.244998,72.6330073 425.675,71.171 C426.621005,67.9029837 427.588495,64.8070146 428.5775,61.883 C429.566505,58.9589854 430.447996,56.5080099 431.222,54.53 Z" id="Path"></path>
                <path d="M445.799,76.073 L460.505,48.596 C460.849002,47.9079966 461.386496,47.4780009 462.1175,47.306 C462.848504,47.1339991 463.557997,47.1984985 464.246,47.4995 C464.934003,47.8005015 465.471498,48.3164963 465.8585,49.0475 C466.245502,49.7785037 466.310001,50.6599948 466.052,51.692 C465.621998,53.3260082 465.299501,54.8309931 465.0845,56.207 C464.869499,57.5830069 464.719,58.9589931 464.633,60.335 C464.460999,62.5710112 464.589998,64.7424895 465.02,66.8495 C465.450002,68.9565105 465.901498,71.0634895 466.3745,73.1705 C466.847502,75.2775105 467.191499,77.3414899 467.4065,79.3625 C467.621501,81.3835101 467.471003,83.4259897 466.955,85.49 C466.782999,85.9200021 466.847498,86.3499978 467.1485,86.78 C467.449502,87.2100021 467.943997,87.1670026 468.632,86.651 C470.352009,85.0169918 471.856994,83.2540095 473.147,81.362 C474.437006,79.4699905 475.683994,77.4920103 476.888,75.428 C477.318002,74.7399966 477.704998,74.0735032 478.049,73.4285 C478.393002,72.7834968 478.736998,72.2030026 479.081,71.687 C479.339001,71.1709974 479.747497,70.913 480.3065,70.913 C480.865503,70.913 481.381498,71.0419987 481.8545,71.3 C482.327502,71.5580013 482.671499,71.9449974 482.8865,72.461 C483.101501,72.9770026 483.037002,73.535997 482.693,74.138 L481.145,77.234 C480.112995,79.1260095 478.930507,81.0394903 477.5975,82.9745 C476.264493,84.9095097 474.802508,86.7154916 473.2115,88.3925 C471.620492,90.0695084 469.900509,91.5959931 468.0515,92.972 C466.202491,94.3480069 464.24601,95.4229961 462.182,96.197 C460.633992,96.799003 458.957009,97.1644994 457.151,97.2935 C455.344991,97.4225006 453.603508,97.3150017 451.9265,96.971 C450.249492,96.6269983 448.766006,96.0250043 447.476,95.165 C446.185994,94.3049957 445.240003,93.1870069 444.638,91.811 C444.293998,91.0369961 444.229499,90.3060034 444.4445,89.618 C444.659501,88.9299966 445.024997,88.4355015 445.541,88.1345 C446.057003,87.8334985 446.637497,87.7044998 447.2825,87.7475 C447.927503,87.7905002 448.550997,88.112997 449.153,88.715 C450.701008,90.6930099 452.48549,91.5960009 454.5065,91.424 C456.52751,91.2519991 458.225993,90.3060086 459.602,88.586 C460.720006,87.1239927 461.364999,85.5330086 461.537,83.813 C461.709001,82.0929914 461.644502,80.2870095 461.3435,78.395 C461.042498,76.5029905 460.612503,74.6110095 460.0535,72.719 C459.494497,70.8269905 459.043002,68.9350095 458.699,67.043 C458.613,66.3549966 458.226003,66.011 457.538,66.011 C456.849997,66.011 456.334002,66.311997 455.99,66.914 L449.927,77.879 C449.496998,78.6530039 448.981003,79.1044994 448.379,79.2335 C447.776997,79.3625006 447.239502,79.2980013 446.7665,79.04 C446.293498,78.7819987 445.928001,78.3735028 445.67,77.8145 C445.411999,77.2554972 445.454998,76.675003 445.799,76.073 Z" id="Path"></path>
                <path d="M479.468,91.295 C478.005993,88.886988 477.2965,85.8985178 477.3395,82.3295 C477.3825,78.7604822 478.005994,75.1270185 479.21,71.429 C480.070004,68.9349875 481.166493,66.5055118 482.4995,64.1405 C483.832507,61.7754882 485.337492,59.690009 487.0145,57.884 C488.691508,56.077991 490.54049,54.6160056 492.5615,53.498 C494.58251,52.3799944 496.667989,51.821 498.818,51.821 C500.538009,51.7349996 502.193492,52.0574963 503.7845,52.7885 C505.375508,53.5195037 506.600996,54.7019918 507.461,56.336 C509.095008,59.3460151 508.837011,62.9579789 506.687,67.172 C506.342998,68.1180047 505.805504,68.7414985 505.0745,69.0425 C504.343496,69.3435015 503.655503,69.4080009 503.0105,69.236 C502.365497,69.0639991 501.871002,68.6555032 501.527,68.0105 C501.182998,67.3654968 501.268997,66.5700047 501.785,65.624 C502.215002,64.6779953 502.623498,63.6460056 503.0105,62.528 C503.397502,61.4099944 503.376002,60.3350052 502.946,59.303 C502.601998,58.4429957 502.086003,57.8840013 501.398,57.626 C500.709997,57.3679987 499.979004,57.2819996 499.205,57.368 C497.742993,57.5400009 496.302507,58.0774955 494.8835,58.9805 C493.464493,59.8835045 492.153006,61.0444929 490.949,62.4635 C489.744994,63.8825071 488.648505,65.4734912 487.6595,67.2365 C486.670495,68.9995088 485.875003,70.8269905 485.273,72.719 C484.240995,75.6430146 483.617501,78.4809862 483.4025,81.233 C483.187499,83.9850138 483.552995,86.263991 484.499,88.07 C485.273004,89.6180077 486.347993,90.692997 487.724,91.295 C489.100007,91.897003 490.604992,92.1120009 492.239,91.94 C494.647012,91.7679991 496.925989,91.0155067 499.076,89.6825 C501.226011,88.3494933 503.182491,86.7155097 504.9455,84.7805 C506.708509,82.8454903 508.299493,80.8030108 509.7185,78.653 C511.137507,76.5029893 512.362995,74.525009 513.395,72.719 C513.739002,72.2029974 514.190497,71.9235002 514.7495,71.8805 C515.308503,71.8374998 515.824498,71.9449987 516.2975,72.203 C516.770502,72.4610013 517.114499,72.8694972 517.3295,73.4285 C517.544501,73.9875028 517.480002,74.567997 517.136,75.17 C515.845994,77.4060112 514.384008,79.7494877 512.75,82.2005 C511.115992,84.6515123 509.28851,86.9304895 507.2675,89.0375 C505.24649,91.1445105 503.010512,92.9504925 500.5595,94.4555 C498.108488,95.9605075 495.421015,96.8419987 492.497,97.1 C490.002988,97.3580013 487.573512,97.0140047 485.2085,96.068 C482.843488,95.1219953 480.930007,93.5310112 479.468,91.295 Z" id="Path"></path>
                <path d="M522.683,97.229 C519.156982,96.9709987 516.512509,95.5735127 514.7495,93.0365 C512.986491,90.4994873 511.976001,87.4465178 511.718,83.8775 C511.459999,80.3084822 511.846995,76.5030202 512.879,72.461 C513.911005,68.4189798 515.43749,64.7210168 517.4585,61.367 C519.47951,58.0129832 521.887486,55.3255101 524.6825,53.3045 C527.477514,51.2834899 530.508984,50.4449983 533.777,50.789 C536.615014,51.1330017 538.829492,52.207991 540.4205,54.014 C542.011508,55.820009 543.107997,58.0344869 543.71,60.6575 C544.312003,63.2805131 544.441002,66.1829841 544.097,69.365 C543.752998,72.5470159 543.022006,75.6859845 541.904,78.782 C541.559998,79.8140052 541.516999,80.8459948 541.775,81.878 C542.033001,82.9100052 542.634995,83.426 543.581,83.426 C545.043007,83.426 546.461993,83.0820034 547.838,82.394 C549.386008,81.5339957 550.654495,80.3300077 551.6435,78.782 C552.632505,77.2339923 553.599995,75.6430082 554.546,74.009 C554.890002,73.5789979 555.169499,73.1490022 555.3845,72.719 C555.599501,72.2889979 555.835999,71.8590022 556.094,71.429 C556.352001,70.9129974 556.760497,70.6335002 557.3195,70.5905 C557.878503,70.5474998 558.394498,70.6764985 558.8675,70.9775 C559.340502,71.2785015 559.684499,71.6869974 559.8995,72.203 C560.114501,72.7190026 560.050002,73.277997 559.706,73.88 C559.361998,74.6540039 558.975002,75.3849966 558.545,76.073 C557.340994,78.3950116 556.051007,80.5019905 554.675,82.394 C553.298993,84.2860095 551.493011,85.7909944 549.257,86.909 C546.160985,88.4570077 543.280013,88.9730026 540.614,88.457 C539.495994,88.2849991 538.593003,88.3924981 537.905,88.7795 C537.216997,89.1665019 536.443004,89.7469961 535.583,90.521 C533.776991,92.6710108 531.799011,94.3694938 529.649,95.6165 C527.498989,96.8635062 525.177012,97.4010009 522.683,97.229 Z M534.293,77.105 C535.239005,77.1910004 535.819499,77.0620017 536.0345,76.718 C536.249501,76.3739983 536.442999,75.9870022 536.615,75.557 C537.217003,73.4069893 537.646999,71.235511 537.905,69.0425 C538.163001,66.849489 538.206001,64.8715088 538.034,63.1085 C537.861999,61.3454912 537.410504,59.8835058 536.6795,58.7225 C535.948496,57.5614942 534.938006,56.8950009 533.648,56.723 C531.58399,56.3789983 529.58451,57.002492 527.6495,58.5935 C525.71449,60.184508 524.016007,62.2484873 522.554,64.7855 C521.091993,67.3225127 519.931004,70.1389845 519.071,73.235 C518.210996,76.3310155 517.7595,79.2119867 517.7165,81.878 C517.6735,84.5440133 518.081996,86.779991 518.942,88.586 C519.802004,90.392009 521.26399,91.295 523.328,91.295 C524.790007,91.295 526.187493,90.8865041 527.5205,90.0695 C528.853507,89.2524959 530.078994,88.1560069 531.197,86.78 C531.627002,86.177997 531.756001,85.6620022 531.584,85.232 L531.068,83.942 C530.379997,82.737994 530.036,81.6200052 530.036,80.588 C530.122,79.8999966 530.358498,79.1905037 530.7455,78.4595 C531.132502,77.7284963 531.712996,77.2770009 532.487,77.105 C533.003003,76.9329991 533.604997,76.9329991 534.293,77.105 Z" id="Combined-Shape"></path>
            </g>
            <g id="Group-22" transform="translate(146.000000, 0.000000)">
                <path d="M0,79 C36.0347826,47 79.2014493,31 129.5,31 C179.798551,31 222.965217,47 259,79" id="Path-2"></path>
                <path d="M1.46192157,42.2892837 C3.32013629,40.8996657 4.70076865,39.8052004 6.05586393,39.2223481 C10.8779382,37.2238487 16.6645984,42.7166226 19.4023506,46.5122928 C22.1167033,50.2755214 25.5494823,57.5647483 22.1313835,61.5097452 C21.1506817,62.6116635 19.6998506,63.608804 17.8182363,64.9659803 C17.1784458,65.3781309 15.7079416,66.1428644 14.6315604,64.6505496 L0.732202789,45.3802237 C-0.320778846,43.9203506 0.845530679,42.7338759 1.46192157,42.2892837 Z M16.0933048,48.8990512 C13.2853537,45.006056 9.28237806,42.1229699 7.206114,43.6205438 L6.33019009,44.2523327 C5.38938294,44.9309209 6.2695254,46.2195439 6.84015764,46.9423017 L15.076814,58.3617541 C15.582563,59.1313111 16.5275887,60.3731349 17.4683958,59.6945467 L18.3443197,59.0627578 C20.4205838,57.5651839 18.8778562,52.7596047 16.0933048,48.8990512 Z M46.8052905,45.9296932 L36.9412892,24.1382298 C35.8031352,21.6238302 39.3708609,20.0966977 40.4595299,22.5017756 L50.3565212,44.3661202 C51.4616852,46.8076387 47.9434445,48.4440928 46.8052905,45.9296932 Z M79.9328679,12.2949664 C81.6574033,14.9621705 78.0349586,17.1279717 76.8001447,14.8609837 C75.3009886,12.2538145 70.0619263,13.7192247 71.9765298,18.2047451 C73.2229232,20.8013782 80.5419843,21.068482 83.0590244,24.4650258 C84.7335391,26.8136425 84.9704467,30.2417432 83.7387118,32.7603995 C81.1383247,38.0452066 73.4974949,39.1193205 70.3886054,33.5205701 C68.6803958,30.7654258 72.3686652,28.539068 73.6145369,30.8444972 C75.2737692,33.8634619 78.7898101,33.6428801 79.9604666,30.7671952 C80.4417898,29.5465691 80.1974764,28.1184547 79.547157,27.015239 C77.7120444,23.9636228 70.0664683,25.4553219 67.9402028,19.3658068 C64.9577458,10.7339037 75.7565955,5.87945791 79.9328679,12.2949664 Z M112.079779,24.2433994 C112.293721,26.1116148 112.756823,27.6352738 115.171518,27.2499845 C116.478435,27.0480784 117.75109,26.0459062 117.591795,24.3332985 L117.450101,22.3780178 C117.23802,19.6660035 121.297702,19.6901256 121.432909,22.0075637 L121.621841,24.038796 C121.744091,25.3531228 121.583839,26.6535533 120.974365,27.8752496 C119.98976,29.8147732 117.812173,31.0216342 115.509553,31.3161537 C113.290294,31.6430923 111.029363,31.0901084 109.715053,29.4849324 C108.640633,28.2993427 108.256266,26.3264612 108.151617,24.7694613 L106.899482,11.3075685 C106.711472,9.7181496 106.72909,7.74805072 107.562714,6.34481492 C108.526015,4.60813627 110.526689,3.65876651 112.641282,3.50225391 C115.034671,3.31980953 117.556798,4.08953465 118.929459,5.8901465 C119.750091,6.93865115 120.147433,8.18721809 120.269683,9.5015449 L120.458615,11.5327773 C120.753134,13.8353971 116.771248,14.6476647 116.475806,11.9032314 L116.294284,9.95165519 C116.09516,8.24275207 114.659506,7.49248859 113.33777,7.53508228 C111.936378,7.58508505 110.616485,8.51130569 110.764667,10.1044291 C110.950816,12.5376468 111.176793,14.96716 111.40277,17.3966732 C111.617633,19.7067022 111.832497,22.0167311 112.079779,24.2433994 Z M158.292715,25.4336632 C157.642482,34.5706429 144.66071,33.8641105 145.153963,24.6765591 C145.271297,22.3191382 145.428541,19.9643826 145.588451,17.5697158 C145.751025,15.1351379 145.910935,12.7404712 146.113421,10.3085584 C146.843476,1.1769091 159.803927,2.20273043 159.233516,11.3450404 L158.292715,25.4336632 Z M154.317528,25.5290124 L155.306303,10.7219896 C155.546167,7.12998945 150.089005,6.60521813 149.931562,10.7639693 L148.996091,24.7727699 C148.599181,28.9155302 154.077664,29.1210126 154.317528,25.5290124 Z M184.724502,36.4856837 L184.714329,11.9597159 C184.681608,9.19498634 188.582011,9.2304232 188.565096,11.8597413 L188.688211,24.3157777 C188.732822,26.1781445 189.702438,27.276072 190.962304,24.7819313 C192.833347,21.1184904 194.752653,17.4255424 196.623695,13.7621015 C197.807164,11.4141233 201.333821,13.1698837 200.044448,15.6157614 L188.457474,37.3859713 C187.865053,38.4775012 186.858159,38.7284288 186.03082,38.4054575 C185.301381,38.1883904 184.713984,37.552965 184.724502,36.4856837 Z M228.906705,25.0998312 L235.728705,28.3577314 C237.839466,29.3214151 236.148564,32.7693204 234.056661,31.8589696 L230.266661,30.049025 C229.400375,29.6353234 228.310001,29.6908599 227.775636,30.8098123 L225.827791,34.8885743 C225.343519,35.8098129 225.431911,36.7385685 226.351529,37.1334125 L229.239148,38.5124179 C231.386005,39.4933391 229.695103,42.9412445 227.620437,41.9947984 L224.624532,40.5640803 C223.974818,40.2538041 223.154348,40.3939083 222.673316,41.494003 C222.107717,42.864002 221.397736,44.1650507 220.742709,45.5366698 C220.31177,46.4390508 220.028452,47.5892381 221.436166,48.2615032 L225.334452,50.1231605 C227.445213,51.0868441 225.754311,54.5347495 223.626312,53.6071611 L216.804312,50.3492609 C214.782979,49.3839571 215.241913,48.0516735 215.845228,46.7883401 L221.068211,35.8514827 C222.619592,32.6029112 224.205448,29.2821492 225.792924,26.0508153 C226.568615,24.4265295 227.696704,24.4776587 228.906705,25.0998312 Z M245.127917,65.1514167 L252.088128,55.5237765 L258.892325,46.1783765 C259.763451,44.9819066 261.554477,44.9005076 262.324608,45.609661 L267.045813,49.0470754 C269.988483,51.1895734 269.215481,55.9210075 266.793291,59.4517009 C265.068626,61.9564027 263.656564,62.8085066 260.926903,63.8393077 C259.876793,64.2622373 258.573658,64.8967752 258.369695,66.8758656 L257.031351,72.927447 C256.580033,75.5181056 252.721986,74.8367314 253.243936,72.1490618 L254.798158,63.8301921 C255.163807,61.9688213 253.01169,60.8472185 251.763861,62.5610808 L248.185183,67.4763085 C246.663621,69.634096 243.503385,67.3826714 245.127917,65.1514167 Z M256.755175,55.7056316 C256.166577,56.5140572 256.336481,57.7757753 257.289006,58.3703314 L258.614824,59.3356328 C260.231675,60.5128295 262.508618,59.1524133 263.85658,57.165104 C265.157454,55.2424687 265.594021,52.7400281 263.783148,51.4215678 L262.7807,50.6917058 C262.036949,50.1501953 260.860613,50.1348703 260.098414,51.1137741 L256.755175,55.7056316 Z" id="Discover-Copy" fill="#FFFFFF"></path>
            </g>
            <path d="M113.360001,228.64 C113.400001,230.52 113.720001,232.08 116.160001,231.92 C117.480001,231.84 118.840001,230.96 118.840001,229.24 L118.880001,227.28 C118.920001,224.56 122.960001,224.96 122.880001,227.28 L122.880001,229.32 C122.880001,230.64 122.600001,231.92 121.880001,233.08 C120.720001,234.92 118.440001,235.92 116.120001,236 C113.880001,236.12 111.680001,235.36 110.520001,233.64 C109.560001,232.36 109.360001,230.36 109.400001,228.8 L109.400001,215.28 C109.360001,213.68 109.560001,211.72 110.520001,210.4 C111.640001,208.76 113.720001,208 115.840001,208.04 C118.240001,208.08 120.680001,209.08 121.880001,211 C122.600001,212.12 122.880001,213.4 122.880001,214.72 L122.880001,216.76 C122.960001,219.08 118.920001,219.52 118.880001,216.76 L118.880001,214.8 C118.840001,213.08 117.480001,212.2 116.160001,212.12 C114.760001,212.04 113.360001,212.84 113.360001,214.44 C113.320001,216.88 113.320001,219.32 113.320001,221.76 C113.320001,224.08 113.320001,226.4 113.360001,228.64 Z M144.226668,210.52 L147.626668,224.92 L149.706668,233.92 C150.186668,236.2 146.426668,237.08 145.986668,234.4 L145.626668,232.52 C145.466668,231.68 144.906668,230.88 143.826668,230.92 L139.826668,230.92 C139.026668,230.88 138.106668,231.12 137.746668,232.4 L137.026668,234.8 C136.466668,236.88 132.986668,236.28 133.506668,233.72 L138.986668,210.56 C139.986668,207 143.666668,207.4 144.226668,210.52 Z M140.786668,218.88 C140.386668,221 139.986668,223.08 139.586668,225.16 C139.426668,225.88 139.666668,226.6 140.626668,226.6 L142.906668,226.6 C143.866668,226.6 144.066668,225.84 143.906668,225.16 L142.546668,218.88 C142.346668,217.84 141.146668,217.56 140.786668,218.88 Z M164.613334,229.92 C164.613334,230.92 164.853334,232.08 166.453334,232.08 L170.733334,232.08 C173.093334,232.04 173.053334,235.88 170.733334,235.96 L163.133334,235.96 C160.893334,235.92 160.733334,234.52 160.773334,233.16 L160.773334,209.76 C160.773334,207 164.653334,207.04 164.613334,209.68 L164.613334,229.92 Z M183.560001,233.92 L183.560001,210 C183.560001,207.24 187.440001,207.32 187.440001,209.96 L187.440001,233.96 C187.440001,236.64 183.560001,236.68 183.560001,233.92 Z M201.066667,208.04 L208.626667,208.04 C210.986667,208 210.946667,211.84 208.626667,211.92 L204.426667,211.92 C203.466667,211.92 202.506667,212.44 202.506667,213.68 L202.506667,218.2 C202.466667,219.2 202.946667,220.04 203.986667,220 L207.186667,220 C209.506667,219.96 209.506667,223.8 207.186667,223.84 L203.906667,223.84 C203.146667,223.84 202.506667,224.32 202.506667,225.52 L202.506667,234 C202.506667,236.76 198.626667,236.68 198.666667,234.04 L198.666667,221.12 C198.666667,217.52 198.626667,213.84 198.666667,210.24 C198.666667,208.44 199.706667,208 201.066667,208.04 Z M233.733334,229.04 C233.693334,238.2 220.693334,238.36 220.573334,229.16 C220.533334,226.8 220.533334,224.44 220.533334,222.04 C220.533334,219.6 220.533334,217.2 220.573334,214.76 C220.693334,205.6 233.693334,205.76 233.733334,214.92 L233.733334,229.04 Z M229.773334,229.4 L229.773334,214.56 C229.773334,210.96 224.293334,210.8 224.413334,214.96 L224.413334,229 C224.293334,233.16 229.773334,233 229.773334,229.4 Z M244.76,233.92 L244.72,222.04 L244.72,210.48 C244.72,209 246.12,207.88 247.16,208 L253,208 C256.64,208 258.8,212.28 258.92,216.56 C259,219.6 258.36,221.12 256.76,223.56 C256.16,224.52 255.48,225.8 256.48,227.52 L258.96,233.2 C260.12,235.56 256.6,237.28 255.44,234.8 L251.8,227.16 C251,225.44 248.6,225.8 248.6,227.92 L248.6,234 C248.64,236.64 244.76,236.68 244.76,233.92 Z M248.6,219.44 C248.6,220.44 249.48,221.36 250.6,221.28 L252.24,221.28 C254.24,221.28 255.28,218.84 255.2,216.44 C255.12,214.12 254,211.84 251.76,211.84 L250.52,211.84 C249.6,211.84 248.64,212.52 248.6,213.76 L248.6,219.44 Z M284.146667,234.04 C284.186667,236.56 281.506667,236.64 280.626667,234.6 L275.186667,222.6 C274.826667,221.68 274.146667,222.2 274.186667,222.68 L274.186667,234.04 C274.226667,236.72 270.306667,236.76 270.306667,234 L270.306667,210.08 C270.306667,207.76 273.226667,207.2 274.106667,209.4 C275.626667,213.2 277.786667,218.6 279.266667,222.4 C279.666667,223.12 280.306667,222.64 280.266667,222.32 L280.266667,210.12 C280.266667,207.4 284.186667,207.44 284.146667,210.08 L284.146667,234.04 Z M295.213333,233.92 L295.213333,210 C295.213333,207.24 299.093333,207.32 299.093333,209.96 L299.093333,233.96 C299.093333,236.64 295.213333,236.68 295.213333,233.92 Z M321.16,210.52 L324.56,224.92 L326.64,233.92 C327.12,236.2 323.36,237.08 322.92,234.4 L322.56,232.52 C322.4,231.68 321.84,230.88 320.76,230.92 L316.76,230.92 C315.96,230.88 315.04,231.12 314.68,232.4 L313.96,234.8 C313.4,236.88 309.92,236.28 310.44,233.72 L315.92,210.56 C316.92,207 320.6,207.4 321.16,210.52 Z M317.72,218.88 C317.32,221 316.92,223.08 316.52,225.16 C316.36,225.88 316.6,226.6 317.56,226.6 L319.84,226.6 C320.8,226.6 321,225.84 320.84,225.16 L319.48,218.88 C319.28,217.84 318.08,217.56 317.72,218.88 Z M340.786666,232.16 C341.906666,232.16 342.786666,233.04 342.786666,234.12 C342.786666,234.64 342.506666,235.36 342.186666,236.04 C341.826666,236.76 341.346666,237.48 340.986666,237.88 L339.546666,237.84 C339.826666,237.44 340.226666,236.72 340.506666,236.04 C339.546666,235.92 338.826666,235.08 338.826666,234.12 C338.826666,233.04 339.706666,232.16 340.786666,232.16 Z M383.599999,229.04 C383.599999,238.24 370.559999,238.4 370.439999,229.2 C370.359999,222.8 370.399999,216.4 370.399999,210 C370.399999,207.2 374.359999,207.24 374.319999,209.92 L374.319999,229.04 C374.159999,233.16 379.679999,233.04 379.679999,229.4 C379.679999,222.96 379.719999,216.56 379.719999,210.08 C379.719999,207.32 383.639999,207.36 383.639999,210.04 C383.639999,216.4 383.639999,222.72 383.599999,229.04 Z M408.626666,212.68 C409.546666,215.72 405.466666,216.8 404.906666,214.28 C404.186666,211.36 398.746666,211.32 399.346666,216.16 C399.826666,219 406.786666,221.28 408.266666,225.24 C409.226666,227.96 408.506666,231.32 406.626666,233.4 C402.666666,237.76 395.026666,236.68 393.586666,230.44 C392.706666,227.32 396.866666,226.2 397.426666,228.76 C398.186666,232.12 401.626666,232.88 403.546666,230.44 C404.346666,229.4 404.506666,227.96 404.186666,226.72 C403.266666,223.28 395.506666,222.6 395.146666,216.16 C394.666666,207.04 406.386666,205.36 408.626666,212.68 Z M429.053332,210.52 L432.453332,224.92 L434.533332,233.92 C435.013332,236.2 431.253332,237.08 430.813332,234.4 L430.453332,232.52 C430.293332,231.68 429.733332,230.88 428.653332,230.92 L424.653332,230.92 C423.853332,230.88 422.933332,231.12 422.573332,232.4 L421.853332,234.8 C421.293332,236.88 417.813332,236.28 418.333332,233.72 L423.813332,210.56 C424.813332,207 428.493332,207.4 429.053332,210.52 Z M425.613332,218.88 C425.213332,221 424.813332,223.08 424.413332,225.16 C424.253332,225.88 424.493332,226.6 425.453332,226.6 L427.733332,226.6 C428.693332,226.6 428.893332,225.84 428.733332,225.16 L427.373332,218.88 C427.173332,217.84 425.973332,217.56 425.613332,218.88 Z" id="California,-USA" fill="#FFFFFF"></path>
        </g>
    </g>
</svg>