<?xml version="1.0" encoding="UTF-8"?>
<svg width="24px" height="24px" viewBox="0 0 24 24" version="1.1" xmlns="http://www.w3.org/2000/svg" xmlns:xlink="http://www.w3.org/1999/xlink">
    <!-- Generator: Sketch 49 (51002) - http://www.bohemiancoding.com/sketch -->
    <title>icons/camera-iso</title>
    <desc>Created with Sketch.</desc>
    <defs>
        <path d="M16,0 L2,0 C0.9,0 0,0.9 0,2 L0,16 C0,17.1 0.9,18 2,18 L16,18 C17.1,18 18,17.1 18,16 L18,2 C18,0.9 17.1,0 16,0 L16,0 Z M2.5,4.5 L4.5,4.5 L4.5,2.5 L6,2.5 L6,4.5 L8,4.5 L8,6 L6,6 L6,8 L4.5,8 L4.5,6 L2.5,6 L2.5,4.5 L2.5,4.5 Z M16,16 L2,16 L16,2 L16,16 L16,16 Z M14,14 L14,12.5 L9,12.5 L9,14 L14,14 L14,14 Z" id="path-1"></path>
    </defs>
    <g id="icons/camera-iso" stroke="none" stroke-width="1" fill="none" fill-rule="evenodd">
        <rect id="bounds" x="0" y="0" width="24" height="24"></rect>
        <g id="colors/gray-04" transform="translate(3.000000, 3.000000)">
            <mask id="mask-2" fill="white">
                <use xlink:href="#path-1"></use>
            </mask>
            <g id="Mask"></g>
            <g id="colors/gray-03" style="mix-blend-mode: multiply;" mask="url(#mask-2)" fill="#767676">
                <g transform="translate(-3.000000, -3.000000)" id="Rectangle-4">
                    <rect x="0" y="0" width="24" height="24"></rect>
                </g>
            </g>
        </g>
    </g>
</svg>