<?xml version="1.0" encoding="UTF-8"?>
<svg width="24px" height="24px" viewBox="0 0 24 24" version="1.1" xmlns="http://www.w3.org/2000/svg" xmlns:xlink="http://www.w3.org/1999/xlink">
    <!-- Generator: Sketch 49 (51002) - http://www.bohemiancoding.com/sketch -->
    <title>icons/camera-tripod</title>
    <desc>Created with Sketch.</desc>
    <defs></defs>
    <g id="icons/camera-tripod" stroke="none" stroke-width="1" fill="none" fill-rule="evenodd">
        <rect id="bounds" x="0" y="0" width="24" height="24"></rect>
        <g id="noun_104778_cc" transform="translate(3.000000, 2.000000)" fill="#767676" fill-rule="nonzero">
            <path d="M17.8792941,18.4425769 L17.7014118,18.0993077 C17.8234412,17.8106923 17.8252941,17.4722692 17.6699118,17.1726154 L16.8964412,15.6808077 C16.7413235,15.3814231 16.4657647,15.1921538 16.1626765,15.1315769 L10.8068824,4.80119231 L11.9117647,4.80119231 L11.9117647,2.46776923 L10.1175882,2.46776923 C10.2716471,2.27769231 10.3677353,2.03753846 10.3677353,1.77234615 C10.3677353,1.7185 10.3595294,1.66707692 10.3521176,1.61538462 L11.9117647,1.61538462 L11.9117647,0.448807692 L8.20588235,0.448807692 L8.20588235,0.763 L4.53679412,0.763 L3.91897059,0.134615385 L0.0370588235,0.134615385 L0.0370588235,1.92957692 L3.91897059,1.92957692 L3.91897059,1.88461538 L4.49258824,1.30119231 L8.20588235,1.30119231 L8.20588235,1.61538462 L8.2215,1.61538462 C8.21408824,1.66707692 8.20588235,1.7185 8.20588235,1.77234615 C8.20588235,2.03780769 8.30223529,2.27796154 8.45602941,2.46776923 L8.20588235,2.46776923 L8.20588235,4.80119231 L9.31076471,4.80119231 L3.95497059,15.1315769 C3.65214706,15.1921538 3.37658824,15.3814231 3.22120588,15.6808077 L2.44773529,17.1726154 C2.29235294,17.4722692 2.29420588,17.8106923 2.41623529,18.0993077 L2.23835294,18.4425769 C2.06761765,18.7715769 2.1915,19.1783846 2.51497059,19.3517692 C2.61344118,19.4045385 2.71905882,19.4298462 2.82308824,19.4298462 C3.06052941,19.4298462 3.29055882,19.2992692 3.40888235,19.0704231 L3.58544118,18.7301154 C3.88932353,18.6700769 4.16541176,18.4775769 4.32105882,18.1776538 L5.09452941,16.6858462 C5.24991176,16.3861923 5.24805882,16.0477692 5.12602941,15.7591538 L9.39732353,7.52069231 L9.39732353,15.7236154 C9.15670588,15.9206923 9,16.219 9,16.5576923 L9,18.7565 C9,19.0951923 9.15670588,19.3935 9.39705882,19.5908462 L9.39705882,20.1923077 C9.39705882,20.5641154 9.69326471,20.8653846 10.0588235,20.8653846 C10.4243824,20.8653846 10.7205882,20.5641154 10.7205882,20.1923077 L10.7205882,19.5908462 C10.9609412,19.3935 11.1176471,19.0949231 11.1176471,18.7565 L11.1176471,16.5576923 C11.1176471,16.219 10.9609412,15.9206923 10.7205882,15.7233462 L10.7205882,7.52069231 L14.9918824,15.7591538 C14.8698529,16.0477692 14.868,16.3861923 15.0233824,16.6858462 L15.7968529,18.1776538 C15.9525,18.4778462 16.2285882,18.6700769 16.5324706,18.7303846 L16.7087647,19.0706923 C16.8789706,19.3996923 17.2797353,19.5251538 17.6026765,19.3520385 C17.9261471,19.1783846 18.0497647,18.7715769 17.8792941,18.4425769 Z" id="Shape"></path>
        </g>
    </g>
</svg>