<?xml version="1.0" encoding="UTF-8"?>
<svg width="24px" height="24px" viewBox="0 0 24 24" version="1.1" xmlns="http://www.w3.org/2000/svg" xmlns:xlink="http://www.w3.org/1999/xlink">
    <!-- Generator: Sketch 49 (51002) - http://www.bohemiancoding.com/sketch -->
    <title>icons/camera-shutter-speed</title>
    <desc>Created with Sketch.</desc>
    <defs>
        <path d="M12,0 L6,0 L6,2 L12,2 L12,0 L12,0 Z M8,13 L10,13 L10,7 L8,7 L8,13 L8,13 Z M16.03,6.39 L17.45,4.97 C17.02,4.46 16.55,3.98 16.04,3.56 L14.62,4.98 C13.07,3.74 11.12,3 9,3 C4.03,3 -3.55271368e-15,7.03 -3.55271368e-15,12 C-3.55271368e-15,16.97 4.02,21 9,21 C13.98,21 18,16.97 18,12 C18,9.88 17.26,7.93 16.03,6.39 L16.03,6.39 Z M9,19 C5.13,19 2,15.87 2,12 C2,8.13 5.13,5 9,5 C12.87,5 16,8.13 16,12 C16,15.87 12.87,19 9,19 L9,19 Z" id="path-1"></path>
    </defs>
    <g id="icons/camera-shutter-speed" stroke="none" stroke-width="1" fill="none" fill-rule="evenodd">
        <rect id="bounds" x="0" y="0" width="24" height="24"></rect>
        <g id="colors/gray-04" transform="translate(3.000000, 2.000000)">
            <mask id="mask-2" fill="white">
                <use xlink:href="#path-1"></use>
            </mask>
            <use id="Mask" fill-opacity="0.7" fill="#FFFFFF" xlink:href="#path-1"></use>
            <g id="colors/gray-03" style="mix-blend-mode: multiply;" mask="url(#mask-2)" fill="#767676">
                <g transform="translate(-3.000000, -2.000000)" id="Rectangle-4">
                    <rect x="0" y="0" width="24" height="24"></rect>
                </g>
            </g>
        </g>
    </g>
</svg>