<?xml version="1.0" encoding="UTF-8" standalone="no"?>
<svg width="24px" height="24px" viewBox="0 0 24 24" version="1.1" xmlns="http://www.w3.org/2000/svg" xmlns:xlink="http://www.w3.org/1999/xlink">
    <!-- Generator: Sketch 43.2 (39069) - http://www.bohemiancoding.com/sketch -->
    <title>icons/camera-lens</title>
    <desc>Created with Sketch.</desc>
    <defs></defs>
    <g id="Symbols" stroke="none" stroke-width="1" fill="none" fill-rule="evenodd">
        <g id="icons/camera-lens">
            <rect id="bounds" x="0" y="0" width="24" height="24"></rect>
            <g id="Group-6" transform="translate(12.000000, 11.653846) rotate(-270.000000) translate(-12.000000, -11.653846) translate(3.500000, 1.153846)" fill="#767676">
                <polygon id="Rectangle-2" points="2.84615385 4.5 14.8461538 4.5 14.8461538 6.5 2.84615385 6.5"></polygon>
                <polygon id="Rectangle-2-Copy-2" points="2.84615385 18.5 14.8461538 18.5 14.8461538 20.5 2.84615385 20.5"></polygon>
                <polygon id="Rectangle-2-Copy" points="0.846153846 0.5 16.8461538 0.5 14.8461538 3.5 2.84615385 3.5"></polygon>
                <path d="M0.846153846,8.49539757 C0.846153846,7.94565467 1.29078471,7.5 1.8470255,7.5 L15.8452822,7.5 C16.3980483,7.5 16.8461538,7.9556644 16.8461538,8.49539757 L16.8461538,16.5046024 C16.8461538,17.0543453 16.401523,17.5 15.8452822,17.5 L1.8470255,17.5 C1.29425935,17.5 0.846153846,17.0443356 0.846153846,16.5046024 L0.846153846,8.49539757 Z" id="Rectangle-2"></path>
            </g>
            <rect id="Rectangle-5" fill="#FFFFFF" x="7" y="5" width="6" height="2"></rect>
            <rect id="Rectangle-5-Copy" fill="#FFFFFF" x="7" y="8" width="6" height="2"></rect>
            <rect id="Rectangle-5-Copy-2" fill="#FFFFFF" x="7" y="14" width="6" height="2"></rect>
            <rect id="Rectangle-5-Copy-4" fill="#FFFFFF" x="7" y="11" width="6" height="2"></rect>
            <rect id="Rectangle-5-Copy-3" fill="#FFFFFF" x="7" y="17" width="6" height="2"></rect>
        </g>
    </g>
</svg>