<?xml version="1.0" encoding="UTF-8"?>
<svg width="24px" height="24px" viewBox="0 0 24 24" version="1.1" xmlns="http://www.w3.org/2000/svg" xmlns:xlink="http://www.w3.org/1999/xlink">
    <!-- Generator: Sketch 49 (51002) - http://www.bohemiancoding.com/sketch -->
    <title>icons/camera</title>
    <desc>Created with Sketch.</desc>
    <defs></defs>
    <g id="icons/camera" stroke="none" stroke-width="1" fill="none" fill-rule="evenodd">
        <rect id="bounds" x="0" y="0" width="24" height="24"></rect>
        <g id="noun_946827_cc" transform="translate(2.000000, 4.000000)" fill="#767676" fill-rule="nonzero">
            <g id="Group">
                <path d="M0.965714286,15.3882353 L8.74285714,15.3882353 C9.81714286,16.3588235 11.2285714,16.9470588 12.7714286,16.9470588 C14.3142857,16.9470588 15.7257143,16.3588235 16.8,15.3882353 L19.0342857,15.3882353 C19.5657143,15.3882353 20,14.9411765 20,14.3941176 L20,3.71176471 C20,3.16470588 19.5657143,2.71764706 19.0342857,2.71764706 L16.4685714,2.71764706 L15.8057143,0.588235294 C15.7028571,0.252941176 15.4,0.0235294118 15.0571429,0.0235294118 L9.61142857,0.0235294118 C9.26857143,0.0235294118 8.96571429,0.252941176 8.86285714,0.588235294 L8.2,2.71764706 L5.69714286,2.71764706 L5.69714286,1.97647059 C5.69714286,1.74705882 5.51428571,1.55882353 5.29142857,1.55882353 L3.01142857,1.55882353 C2.78857143,1.55882353 2.60571429,1.74705882 2.60571429,1.97647059 L2.60571429,2.71764706 L0.965714286,2.71764706 C0.434285714,2.71764706 0,3.16470588 0,3.71176471 L0,14.3941176 C0,14.9470588 0.434285714,15.3882353 0.965714286,15.3882353 Z M12.7714286,15.7176471 C10.0514286,15.7176471 7.84571429,13.4470588 7.84571429,10.6470588 C7.84571429,7.84705882 10.0514286,5.57647059 12.7714286,5.57647059 C15.4914286,5.57647059 17.6971429,7.84705882 17.6971429,10.6470588 C17.6971429,13.4470588 15.4914286,15.7176471 12.7714286,15.7176471 Z M6.02857143,4.8 L6.02857143,4.96470588 C6.02857143,5.27058824 5.78857143,5.51764706 5.49142857,5.51764706 L4.68571429,5.51764706 C4.38857143,5.51764706 4.14857143,5.27058824 4.14857143,4.96470588 L4.14857143,4.8 C4.14857143,4.49411765 4.38857143,4.24705882 4.68571429,4.24705882 L5.49142857,4.24705882 C5.78857143,4.24705882 6.02857143,4.49411765 6.02857143,4.8 Z M1.35428571,5.67647059 C1.35428571,5.58823529 1.42285714,5.52352941 1.50285714,5.52352941 L2.29142857,5.52352941 C2.37714286,5.52352941 2.44,5.59411765 2.44,5.67647059 L2.44,12.9823529 C2.44,13.0705882 2.37142857,13.1352941 2.29142857,13.1352941 L1.50285714,13.1352941 C1.41714286,13.1352941 1.35428571,13.0647059 1.35428571,12.9823529 L1.35428571,5.67647059 Z" id="Shape"></path>
                <path d="M12.7714286,7.17058824 C10.9028571,7.17058824 9.39428571,8.72941176 9.39428571,10.6470588 C9.39428571,12.5647059 10.9085714,14.1235294 12.7714286,14.1235294 C14.6342857,14.1235294 16.1485714,12.5647059 16.1485714,10.6470588 C16.1485714,8.72941176 14.64,7.17058824 12.7714286,7.17058824 Z M14,10.1117647 C13.5257143,10.1117647 13.1428571,9.71764706 13.1428571,9.22941176 C13.1428571,8.74117647 13.5257143,8.34705882 14,8.34705882 C14.4742857,8.34705882 14.8571429,8.74117647 14.8571429,9.22941176 C14.8571429,9.71764706 14.4742857,10.1117647 14,10.1117647 Z" id="Shape"></path>
            </g>
        </g>
    </g>
</svg>