<?xml version="1.0" encoding="UTF-8" standalone="no"?>
<svg width="24px" height="24px" viewBox="0 0 24 24" version="1.1" xmlns="http://www.w3.org/2000/svg" xmlns:xlink="http://www.w3.org/1999/xlink">
    <!-- Generator: Sketch 43.2 (39069) - http://www.bohemiancoding.com/sketch -->
    <title>icons/camera-lens-filter</title>
    <desc>Created with Sketch.</desc>
    <defs></defs>
    <g id="Symbols" stroke="none" stroke-width="1" fill="none" fill-rule="evenodd">
        <g id="icons/camera-lens-filter">
            <rect id="bounds" x="0" y="0" width="24" height="24"></rect>
            <g id="Group-10" transform="translate(2.000000, 2.000000)">
                <path d="M1,10 C1,5.02943725 5.02834436,1 10,1 L10,1 C14.9705627,1 19,5.02834436 19,10 L19,10 C19,14.9705627 14.9716556,19 10,19 L10,19 C5.02943725,19 1,14.9716556 1,10 L1,10 Z" id="Rectangle-4" fill="#767676"></path>
                <polyline id="Rectangle-4" fill="#FFFFFF" points="2 10 10 2 11 3 3 11"></polyline>
                <polyline id="Rectangle-4-Copy" fill="#FFFFFF" points="3 14 14 3 16 5 5 16"></polyline>
                <path d="M2.95332649,10 C2.95332649,13.8924519 6.10781269,17.0466735 10,17.0466735 C13.8924519,17.0466735 17.0466735,13.8921873 17.0466735,10 C17.0466735,6.1075481 13.8921873,2.95332649 10,2.95332649 C6.1075481,2.95332649 2.95332649,6.10781269 2.95332649,10 Z M0.953326495,10 C0.953326495,5.00366019 5.00256163,0.953326495 10,0.953326495 C14.9963398,0.953326495 19.0466735,5.00256163 19.0466735,10 C19.0466735,14.9963398 14.9974384,19.0466735 10,19.0466735 C5.00366019,19.0466735 0.953326495,14.9974384 0.953326495,10 Z" id="Rectangle-4" fill="#767676" fill-rule="nonzero"></path>
            </g>
        </g>
    </g>
</svg>