<?xml version="1.0" encoding="UTF-8" standalone="no"?>
<svg width="458px" height="89px" viewBox="0 0 458 89" version="1.1" xmlns="http://www.w3.org/2000/svg" xmlns:xlink="http://www.w3.org/1999/xlink">
    <!-- Generator: Sketch 43.2 (39069) - http://www.bohemiancoding.com/sketch -->
    <title>Group</title>
    <desc>Created with Sketch.</desc>
    <defs></defs>
    <g id="Landing-Page" stroke="none" stroke-width="1" fill="none" fill-rule="evenodd">
        <g id="landing-page" transform="translate(-150.000000, -212.000000)" fill="#FFFFFF">
            <g id="Group-4" transform="translate(150.000000, 212.000000)">
                <g id="Group">
                    <path d="M91.4556213,74.0363483 C90.644121,69.7252532 89.8706715,65.2620687 89.1352494,60.646661 C88.3998273,56.0312533 87.7024547,51.4412739 87.0431107,46.876585 C86.3837668,42.311896 85.8005097,37.8613911 85.2933221,33.5249366 C84.7861344,29.1884821 84.3550314,25.1183622 84,21.3144548 L96.7049873,21.3144548 C96.8571436,24.2054244 97.0473361,27.3119022 97.2755706,30.6339814 C97.503805,33.9560606 97.7700746,37.3034489 98.0743872,40.6762468 C98.3786997,44.0490448 98.6956873,47.3964331 99.0253593,50.7185123 C99.3550312,54.0405914 99.6973778,57.1470692 100.052409,60.0380389 C101.624691,57.4006631 103.311065,54.5097368 105.111581,51.3651733 C106.912097,48.2206098 108.737945,44.9492985 110.58918,41.5511412 C112.440415,38.1529839 114.266263,34.7295185 116.066779,31.2806424 C117.867296,27.8317664 119.52831,24.509737 121.049873,21.3144548 L133.678783,21.3144548 C131.75147,24.9662059 129.646672,28.8968513 127.364328,33.1065089 C125.081984,37.3161664 122.63484,41.6779149 120.022823,46.191885 C117.410807,50.7058552 114.646676,55.3085142 111.730347,60 C108.814018,64.6914858 105.758258,69.3702218 102.562975,74.0363483 L91.4556213,74.0363483 Z M136.950127,74.0363483 L125.690617,74.0363483 L135.200338,34.0194421 L146.535926,34.0194421 L136.950127,74.0363483 Z M142.427726,29.1504649 C140.855444,29.1504649 139.43534,28.6813234 138.167371,27.7430262 C136.899402,26.804729 136.265427,25.3719454 136.265427,23.4446323 C136.265427,22.3795382 136.480978,21.3778576 136.912088,20.4395604 C137.343197,19.5012633 137.913775,18.6897752 138.623838,18.0050719 C139.3339,17.3203685 140.158068,16.77515 141.096365,16.3693998 C142.034662,15.9636497 143.036343,15.7607777 144.101437,15.7607777 C145.673719,15.7607777 147.093823,16.2299192 148.361792,17.1682164 C149.629761,18.1065136 150.263736,19.5392972 150.263736,21.4666103 C150.263736,22.5317044 150.048185,23.533385 149.617075,24.4716822 C149.185966,25.4099793 148.615388,26.2214674 147.905325,26.9061708 C147.195263,27.5908741 146.371095,28.1360926 145.432798,28.5418428 C144.494501,28.9475929 143.49282,29.1504649 142.427726,29.1504649 Z M146.459848,58.364328 C146.459848,55.118327 147.030425,51.9738107 148.171598,48.9306847 C149.31277,45.8875587 150.923067,43.186825 153.002536,40.8284024 C155.082005,38.4699798 157.605226,36.5680546 160.572274,35.1225697 C163.539322,33.6770849 166.823313,32.9543533 170.424345,32.9543533 C172.199502,32.9543533 173.847837,33.2079434 175.3694,33.715131 C176.890963,34.2223187 178.22231,34.9577298 179.363483,35.9213863 C180.504655,36.8850429 181.39222,38.0642365 182.026205,39.4590025 C182.660189,40.8537686 182.977177,42.4387063 182.977177,44.2138631 C182.977177,47.0541139 182.343202,49.4632192 181.075232,51.4412511 C179.807263,53.4192829 178.044813,55.0295796 175.787828,56.2721893 C173.530842,57.5147991 170.855468,58.4150437 167.761623,58.9729501 C164.667778,59.5308566 161.295031,59.8098056 157.64328,59.8098056 C157.998311,61.9399937 158.771761,63.4488544 159.963652,64.3364328 C161.155543,65.2240112 163.044788,65.6677937 165.631445,65.6677937 C167.254446,65.6677937 168.902781,65.5283192 170.5765,65.249366 C172.25022,64.9704128 173.822478,64.5519893 175.293322,63.9940828 L176.130178,72.8951817 C174.710052,73.4530882 172.896883,73.9602682 170.690617,74.4167371 C168.484351,74.873206 166.087925,75.101437 163.501268,75.101437 C160.356704,75.101437 157.706689,74.6576545 155.551141,73.7700761 C153.395594,72.8824977 151.645822,71.6779451 150.301775,70.1563821 C148.957728,68.6348191 147.981406,66.8596889 147.372781,64.8309383 C146.764156,62.8021877 146.459848,60.6466724 146.459848,58.364328 Z M168.598478,41.93153 C166.011821,41.93153 163.742191,42.8571336 161.789518,44.7083686 C159.836846,46.5596035 158.556216,49.0067473 157.947591,52.0498732 C161.092154,51.9484357 163.628055,51.6821661 165.555368,51.2510566 C167.482681,50.8199471 168.978862,50.3000876 170.043956,49.6914624 C171.10905,49.0828372 171.819102,48.4235031 172.174134,47.7134404 C172.529165,47.0033777 172.706678,46.2933256 172.706678,45.5832629 C172.706678,43.1487621 171.337292,41.93153 168.598478,41.93153 Z M212.799662,50.6043956 C211.836005,52.683865 210.758248,54.8013417 209.566357,56.9568893 C208.374466,59.1124368 207.157234,61.217234 205.914624,63.271344 C204.672014,65.3254541 203.467461,67.2780973 202.30093,69.1293322 C201.134398,70.9805672 200.094679,72.6162228 199.181741,74.0363483 L190.35672,74.0363483 C189.95097,71.9061601 189.532547,69.3702598 189.101437,66.4285714 C188.670328,63.486883 188.251904,60.2789692 187.846154,56.8047337 C187.440404,53.3304983 187.072698,49.6534429 186.743026,45.7734573 C186.413354,41.8934717 186.172444,37.9755058 186.020287,34.0194421 L197.127642,34.0194421 C197.127642,35.8453177 197.140321,37.8233199 197.16568,39.953508 C197.19104,42.0836962 197.241758,44.2899294 197.317836,46.5722739 C197.393914,48.8546183 197.50803,51.1876466 197.660186,53.5714286 C197.812342,55.9552106 198.015214,58.3135978 198.268808,60.646661 C199.536777,58.5164729 200.792048,56.2975601 202.034658,53.9898563 C203.277267,51.6821525 204.469141,49.3744832 205.610313,47.0667794 C206.751485,44.7590755 207.816563,42.4894448 208.805579,40.2578191 C209.794595,38.0261934 210.669481,35.9467552 211.430262,34.0194421 L220.863905,34.0194421 C220.863905,37.6711932 220.927303,41.7539926 221.0541,46.2679628 C221.180897,50.781933 221.497884,55.5747844 222.005072,60.646661 C223.374479,58.3643166 224.642429,56.0186088 225.80896,53.6094675 C226.975492,51.2003261 228.053249,48.8292593 229.042265,46.4961961 C230.031281,44.1631329 230.918846,41.9315407 231.704987,39.8013525 C232.491128,37.6711643 233.188501,35.7438801 233.797126,34.0194421 L245.817413,34.0194421 C244.803038,36.5553804 243.598485,39.4082682 242.203719,42.578191 C240.808953,45.7481139 239.198657,49.0828227 237.372781,52.5824176 C235.546905,56.0820124 233.492826,59.6576318 231.210482,63.3093829 C228.928137,66.9611341 226.392237,70.5367534 223.602705,74.0363483 L214.777684,74.0363483 C214.169059,69.8774095 213.712597,65.8960461 213.408284,62.0921386 C213.103971,58.2882312 212.901099,54.4590218 212.799662,50.6043956 Z M283.628064,74.0363483 L272.368555,74.0363483 L281.878276,34.0194421 L293.213863,34.0194421 L283.628064,74.0363483 Z M289.105664,29.1504649 C287.533382,29.1504649 286.113278,28.6813234 284.845309,27.7430262 C283.577339,26.804729 282.943364,25.3719454 282.943364,23.4446323 C282.943364,22.3795382 283.158916,21.3778576 283.590025,20.4395604 C284.021135,19.5012633 284.591712,18.6897752 285.301775,18.0050719 C286.011838,17.3203685 286.836005,16.77515 287.774303,16.3693998 C288.7126,15.9636497 289.71428,15.7607777 290.779374,15.7607777 C292.351656,15.7607777 293.77176,16.2299192 295.03973,17.1682164 C296.307699,18.1065136 296.941674,19.5392972 296.941674,21.4666103 C296.941674,22.5317044 296.726122,23.533385 296.295013,24.4716822 C295.863903,25.4099793 295.293326,26.2214674 294.583263,26.9061708 C293.8732,27.5908741 293.049033,28.1360926 292.110735,28.5418428 C291.172438,28.9475929 290.170758,29.1504649 289.105664,29.1504649 Z M271.607777,15 C273.890121,15 275.741328,15.177513 277.161454,15.5325444 C278.581579,15.8875757 279.722734,16.2679608 280.584954,16.6737109 L276.552832,25.498732 C275.639894,25.2451382 274.765008,25.0295867 273.928149,24.852071 C273.091289,24.6745553 272.165686,24.5857988 271.15131,24.5857988 C268.361778,24.5857988 266.295019,25.2958509 264.950972,26.7159763 C263.606925,28.1361018 262.681321,29.911232 262.174134,32.0414201 L261.717667,34.0194421 L275.107354,34.0194421 L272.825021,43.3009298 L259.511412,43.3009298 L254.870668,62.7007608 C253.14623,69.9535443 251.269664,75.5959224 249.240913,79.6280642 C247.212162,83.6602061 244.98057,86.5891709 242.546069,88.4150465 L232.427726,86.9695689 C233.746414,85.7523185 234.963646,84.2561374 236.079459,82.4809806 C237.195272,80.7058238 238.196952,78.8292576 239.084531,76.8512257 C239.972109,74.8731938 240.732879,72.8571531 241.366864,70.8030431 C242.000848,68.7489331 242.520708,66.8343284 242.926458,65.0591716 L250.838546,31.8892646 C252.106515,26.5130754 254.388825,22.354199 257.685545,19.4125106 C260.982265,16.4708221 265.622962,15 271.607777,15 Z M300.060862,35.8453085 C300.923081,35.5917147 301.874044,35.3000862 302.913779,34.9704142 C303.953513,34.6407422 305.120027,34.3364342 306.413356,34.057481 C307.706684,33.7785278 309.152148,33.5502967 310.749789,33.3727811 C312.34743,33.1952654 314.160598,33.1065089 316.189349,33.1065089 C322.174163,33.1065089 326.282322,34.830921 328.513948,38.2797971 C330.745573,41.7286732 331.125958,46.4454477 329.655114,52.430262 L324.481826,74.0363483 L313.146238,74.0363483 L318.167371,52.8867287 C318.471684,51.5680407 318.712594,50.2874111 318.89011,49.0448014 C319.067626,47.8021916 319.054946,46.7117545 318.852071,45.7734573 C318.649196,44.8351601 318.180054,44.0743901 317.444632,43.4911243 C316.70921,42.9078585 315.580735,42.6162299 314.059172,42.6162299 C312.588327,42.6162299 311.092146,42.7683839 309.570583,43.0726965 L302.19104,74.0363483 L290.855452,74.0363483 L300.060862,35.8453085 Z M347.457312,75.101437 C344.921374,75.101437 342.753179,74.670334 340.952663,73.808115 C339.152147,72.9458959 337.681324,71.7667023 336.540152,70.2704987 C335.39898,68.7742951 334.562133,67.024524 334.029586,65.0211327 C333.497039,63.0177415 333.230769,60.8749057 333.230769,58.5925613 C333.230769,55.1436852 333.852065,51.8850534 335.094675,48.816568 C336.337284,45.7480827 338.049017,43.0727079 340.229924,40.7903635 C342.410831,38.508019 344.997449,36.7075298 347.989856,35.3888419 C350.982263,34.070154 354.253575,33.4108199 357.803888,33.4108199 C358.716826,33.4108199 359.566353,33.461538 360.352494,33.5629755 C361.138635,33.664413 361.937443,33.816567 362.748943,34.0194421 L366.857143,16.8258664 L378.649197,15 L368.606932,56.7666948 C367.896869,59.6576645 367.693997,62.5612703 367.998309,65.4775993 C368.302622,68.3939284 368.885879,70.9932261 369.748098,73.2755706 L359.629755,74.7210482 C359.325442,74.112423 359.046493,73.5291659 358.792899,72.9712595 C358.539306,72.4133531 358.285716,71.779378 358.032122,71.0693153 C356.611996,72.2358469 355.027059,73.199489 353.277261,73.9602705 C351.527464,74.721052 349.5875,75.101437 347.457312,75.101437 Z M360.542688,43.0726965 C360.238375,43.0219778 359.972106,42.9712598 359.743872,42.920541 C359.515637,42.8698222 359.287406,42.8317837 359.059172,42.8064243 C358.830937,42.781065 358.539309,42.7683855 358.184277,42.7683855 L356.814877,42.7683855 C355.039721,42.7683855 353.391385,43.186809 351.869822,44.0236686 C350.34826,44.8605283 349.042271,45.9890039 347.951817,47.4091293 C346.861364,48.8292548 346.011837,50.4395514 345.403212,52.2400676 C344.794587,54.0405838 344.490279,55.8791115 344.490279,57.7557058 C344.490279,60.1902066 344.908702,62.1048113 345.745562,63.4995773 C346.582422,64.8943434 348.091282,65.591716 350.272189,65.591716 C351.438721,65.591716 352.503799,65.363485 353.467456,64.9070161 C354.431112,64.4505472 355.445472,63.6897771 356.510566,62.624683 C356.612004,61.3567139 356.776837,60.0253662 357.005072,58.6306002 C357.233306,57.2358341 357.474217,55.9552045 357.727811,54.7886729 L360.542688,43.0726965 Z M375.073542,58.364328 C375.073542,55.118327 375.644119,51.9738107 376.785292,48.9306847 C377.926464,45.8875587 379.536761,43.186825 381.61623,40.8284024 C383.695699,38.4699798 386.21892,36.5680546 389.185968,35.1225697 C392.153016,33.6770849 395.437007,32.9543533 399.038039,32.9543533 C400.813196,32.9543533 402.461531,33.2079434 403.983094,33.715131 C405.504657,34.2223187 406.836004,34.9577298 407.977177,35.9213863 C409.118349,36.8850429 410.005914,38.0642365 410.639899,39.4590025 C411.273883,40.8537686 411.590871,42.4387063 411.590871,44.2138631 C411.590871,47.0541139 410.956896,49.4632192 409.688926,51.4412511 C408.420957,53.4192829 406.658507,55.0295796 404.401522,56.2721893 C402.144536,57.5147991 399.469162,58.4150437 396.375317,58.9729501 C393.281472,59.5308566 389.908725,59.8098056 386.256974,59.8098056 C386.612005,61.9399937 387.385455,63.4488544 388.577346,64.3364328 C389.769237,65.2240112 391.658482,65.6677937 394.245139,65.6677937 C395.86814,65.6677937 397.516475,65.5283192 399.190194,65.249366 C400.863914,64.9704128 402.436172,64.5519893 403.907016,63.9940828 L404.743872,72.8951817 C403.323746,73.4530882 401.510577,73.9602682 399.304311,74.4167371 C397.098045,74.873206 394.701619,75.101437 392.114962,75.101437 C388.970398,75.101437 386.320383,74.6576545 384.164835,73.7700761 C382.009288,72.8824977 380.259516,71.6779451 378.915469,70.1563821 C377.571422,68.6348191 376.5951,66.8596889 375.986475,64.8309383 C375.37785,62.8021877 375.073542,60.6466724 375.073542,58.364328 Z M397.212172,41.93153 C394.625515,41.93153 392.355885,42.8571336 390.403212,44.7083686 C388.45054,46.5596035 387.16991,49.0067473 386.561285,52.0498732 C389.705848,51.9484357 392.241749,51.6821661 394.169062,51.2510566 C396.096375,50.8199471 397.592556,50.3000876 398.65765,49.6914624 C399.722744,49.0828372 400.432796,48.4235031 400.787828,47.7134404 C401.142859,47.0033777 401.320372,46.2933256 401.320372,45.5832629 C401.320372,43.1487621 399.950986,41.93153 397.212172,41.93153 Z M440.652578,43.7573964 C439.638203,43.5038026 438.636522,43.2628921 437.647506,43.0346577 C436.65849,42.8064232 435.200348,42.6923077 433.273035,42.6923077 C432.562972,42.6923077 431.776843,42.7557052 430.914624,42.8825021 C430.052405,43.009299 429.342353,43.1487735 428.784446,43.3009298 L421.404903,74.0363483 L410.069315,74.0363483 L419.198648,36.1496196 C421.379554,35.4395569 423.826698,34.7675433 426.540152,34.1335587 C429.253606,33.4995742 432.309366,33.1825866 435.707523,33.1825866 C436.975492,33.1825866 438.382917,33.2967022 439.929839,33.5249366 C441.476762,33.753171 442.833468,34.1208766 444,34.6280642 L440.652578,43.7573964 Z" id="Viewfinder"></path>
                    <path d="M440.851562,74.421875 L438.929688,74.421875 L438.929688,64.8125 L435.664062,64.8125 L435.664062,63.15625 L444.148438,63.15625 L444.148438,64.8125 L440.851562,64.8125 L440.851562,74.421875 Z M450.226562,74.421875 L447.085938,65.6875 L446.960938,65.6875 L447.054688,67.703125 L447.054688,74.421875 L445.195312,74.421875 L445.195312,63.15625 L448.117188,63.15625 L451.179688,71.890625 L454.351562,63.15625 L457.164062,63.15625 L457.164062,74.421875 L455.179688,74.421875 L455.179688,67.859375 L455.273438,65.71875 L455.148438,65.71875 L451.851562,74.421875 L450.226562,74.421875 Z" id="™-copy"></path>
                    <path d="M34.4993848,0 C56.8302761,0 69,19.313862 69,34.6889937 C69,62.6123516 35.1959083,84.5982874 34.5019826,85 C33.8040917,84.5982874 1.3911239e-15,62.6123516 0,34.6889937 C0,19.313862 12.1684935,0 34.4993848,0 Z M58.9747653,19.8404637 L44.5815629,44.6582721 L61.3669764,44.6582721 C62.4988034,41.5693354 63.1202442,38.2325479 63.1202442,34.7478978 C63.1202442,29.2884481 61.60492,24.1856966 58.9747653,19.8404637 Z M38.4445014,20.6904793 L38.4445014,20.6904793 L30.2345282,6.383282 C21.4145237,7.74264178 13.9277853,13.1620625 9.71563322,20.6904793 L38.4445014,20.6904793 Z M35.1998146,63.4384489 L20.7284196,37.8865805 L12.2717474,52.6236841 C17.49876,59.2222588 25.5509251,63.453865 34.5890354,63.453865 C34.7940374,63.453865 34.9963977,63.4427016 35.1998146,63.4384489 Z M30.4046087,48.3332626 L38.8905186,63.1213233 C47.9181736,61.7477156 55.5588337,56.1231161 59.7260871,48.3332626 L30.4046087,48.3332626 Z M48.4765938,31.1845318 L48.4765938,31.1845318 L56.779853,16.7147747 C51.5503914,10.2067682 43.5550772,6.04193057 34.5890354,6.04193057 C34.3872035,6.04193057 34.1880134,6.053094 33.9867099,6.05734674 L48.4765938,31.1845318 Z M24.6531214,24.2653726 L24.6531214,24.2653726 L8.02046746,24.2653726 C6.75358734,27.5127604 6.05782658,31.0484348 6.05782658,34.7478978 C6.05782658,40.1967157 7.56681051,45.2904301 10.1869265,49.630347 L24.6531214,24.2653726 Z" id="Mask-Copy-4"></path>
                </g>
            </g>
        </g>
    </g>
</svg>