<?xml version="1.0" encoding="UTF-8" standalone="no"?>
<svg width="145px" height="32px" viewBox="0 0 145 32" version="1.1" xmlns="http://www.w3.org/2000/svg" xmlns:xlink="http://www.w3.org/1999/xlink">
    <!-- Generator: Sketch 43.2 (39069) - http://www.bohemiancoding.com/sketch -->
    <title>Group 19</title>
    <desc>Created with Sketch.</desc>
    <defs></defs>
    <g id="Landing-Page" stroke="none" stroke-width="1" fill="none" fill-rule="evenodd">
        <g id="landing-page" transform="translate(-150.000000, -782.000000)" fill="#FFFFFF">
            <g id="Group-15" transform="translate(0.000000, 768.000000)">
                <g id="Group-19" transform="translate(150.000000, 14.000000)">
                    <path d="M33.432,24 C33.1759987,22.6399932 32.9320012,21.2320073 32.7,19.776 C32.4679988,18.3199927 32.248001,16.8720072 32.04,15.432 C31.831999,13.9919928 31.6480008,12.5880068 31.488,11.22 C31.3279992,9.85199316 31.1920006,8.568006 31.08,7.368 L35.088,7.368 C35.1360002,8.28000456 35.1959996,9.25999476 35.268,10.308 C35.3400004,11.3560052 35.4239995,12.4119947 35.52,13.476 C35.6160005,14.5400053 35.7159995,15.5959948 35.82,16.644 C35.9240005,17.6920052 36.0319994,18.6719954 36.144,19.584 C36.6400025,18.7519958 37.1719972,17.840005 37.74,16.848 C38.3080028,15.855995 38.8839971,14.8240054 39.468,13.752 C40.0520029,12.6799946 40.6279972,11.6000054 41.196,10.512 C41.7640028,9.42399456 42.2879976,8.37600504 42.768,7.368 L46.752,7.368 C46.143997,8.52000576 45.4800036,9.75999336 44.76,11.088 C44.0399964,12.4160066 43.2680041,13.7919929 42.444,15.216 C41.6199959,16.6400071 40.7480046,18.0919926 39.828,19.572 C38.9079954,21.0520074 37.944005,22.5279926 36.936,24 L33.432,24 Z M47.784,24 L44.232,24 L47.232,11.376 L50.808,11.376 L47.784,24 Z M49.512,9.84 C49.0159975,9.84 48.568002,9.69200148 48.168,9.396 C47.767998,9.09999852 47.568,8.64800304 47.568,8.04 C47.568,7.70399832 47.6359993,7.38800148 47.772,7.092 C47.9080006,6.79599852 48.0879988,6.54000108 48.312,6.324 C48.5360011,6.10799892 48.7959985,5.93600064 49.092,5.808 C49.3880014,5.67999936 49.7039983,5.616 50.04,5.616 C50.5360024,5.616 50.983998,5.76399852 51.384,6.06 C51.784002,6.35600148 51.984,6.80799696 51.984,7.416 C51.984,7.75200168 51.9160006,8.06799852 51.78,8.364 C51.6439993,8.66000148 51.4640011,8.91599892 51.24,9.132 C51.0159988,9.34800108 50.7560014,9.51999936 50.46,9.648 C50.1639985,9.77600064 49.8480016,9.84 49.512,9.84 Z M50.7839999,19.056 C50.7839999,18.0319949 50.9639981,17.0400048 51.3239999,16.08 C51.6840017,15.1199952 52.1919966,14.2680037 52.8479999,13.524 C53.5040032,12.7799963 54.2999952,12.1800023 55.2359999,11.724 C56.1720046,11.2679977 57.2079942,11.04 58.3439999,11.04 C58.9040027,11.04 59.4239975,11.1199992 59.9039999,11.28 C60.3840023,11.4400008 60.8039981,11.6719985 61.1639999,11.976 C61.5240017,12.2800015 61.8039989,12.6519978 62.0039999,13.092 C62.2040009,13.5320022 62.3039999,14.0319972 62.3039999,14.592 C62.3039999,15.4880045 62.1040019,16.2479969 61.7039999,16.872 C61.3039979,17.4960031 60.7480035,18.003998 60.0359999,18.396 C59.3239964,18.788002 58.4800048,19.0719991 57.5039999,19.248 C56.527995,19.4240009 55.4640057,19.512 54.3119999,19.512 C54.4240005,20.1840034 54.667998,20.6599986 55.0439999,20.94 C55.4200018,21.2200014 56.0159958,21.36 56.8319999,21.36 C57.3440025,21.36 57.8639973,21.3160004 58.3919999,21.228 C58.9200026,21.1399996 59.4159976,21.0080009 59.8799999,20.832 L60.1439999,23.64 C59.6959977,23.8160009 59.1240034,23.9759993 58.4279999,24.12 C57.7319964,24.2640007 56.976004,24.336 56.1599999,24.336 C55.167995,24.336 54.3320033,24.1960014 53.6519999,23.916 C52.9719965,23.6359986 52.420002,23.2560024 51.9959999,22.776 C51.5719978,22.2959976 51.2640009,21.7360032 51.0719999,21.096 C50.879999,20.4559968 50.7839999,19.7760036 50.7839999,19.056 Z M57.7679999,13.872 C56.9519958,13.872 56.236003,14.1639971 55.6199999,14.748 C55.0039968,15.3320029 54.6000009,16.1039952 54.4079999,17.064 C55.4000049,17.0319998 56.1999969,16.9480007 56.8079999,16.812 C57.416003,16.6759993 57.8879982,16.512001 58.2239999,16.32 C58.5600016,16.127999 58.7839994,15.9200011 58.8959999,15.696 C59.0080005,15.4719989 59.0639999,15.2480011 59.0639999,15.024 C59.0639999,14.2559962 58.6320042,13.872 57.7679999,13.872 Z M71.7119999,16.608 C71.4079984,17.2640033 71.0680018,17.9319966 70.6919999,18.612 C70.315998,19.2920034 69.9320018,19.9559968 69.5399999,20.604 C69.1479979,21.2520032 68.7680017,21.8679971 68.3999999,22.452 C68.031998,23.0360029 67.7040013,23.5519978 67.4159999,24 L64.6319999,24 C64.5039992,23.3279966 64.3720006,22.5280046 64.2359999,21.6 C64.0999992,20.6719954 63.9680005,19.6600055 63.8399999,18.564 C63.7119992,17.4679945 63.5960004,16.3080061 63.4919999,15.084 C63.3879994,13.8599939 63.3120001,12.6240062 63.2639999,11.376 L66.7679999,11.376 C66.7679999,11.9520029 66.7719998,12.5759966 66.7799999,13.248 C66.7879999,13.9200034 66.8039998,14.6159964 66.8279999,15.336 C66.852,16.0560036 66.8879996,16.7919962 66.9359999,17.544 C66.9840001,18.2960038 67.0479995,19.0399963 67.1279999,19.776 C67.5280019,19.1039966 67.9239979,18.4040036 68.3159999,17.676 C68.7080018,16.9479964 69.0839981,16.2200036 69.4439999,15.492 C69.8040017,14.7639964 70.1399983,14.0480035 70.4519999,13.344 C70.7640014,12.6399965 71.0399987,11.984003 71.2799999,11.376 L74.2559999,11.376 C74.2559999,12.5280058 74.2759997,13.8159929 74.3159999,15.24 C74.3560001,16.6640071 74.4559991,18.175992 74.6159999,19.776 C75.048002,19.0559964 75.447998,18.3160038 75.8159999,17.556 C76.1840017,16.7959962 76.5239983,16.0480037 76.8359999,15.312 C77.1480014,14.5759963 77.4279986,13.8720034 77.6759999,13.2 C77.9240011,12.5279966 78.1439989,11.9200027 78.3359999,11.376 L82.1279999,11.376 C81.8079983,12.176004 81.4280021,13.075995 80.9879999,14.076 C80.5479977,15.076005 80.0400028,16.1279945 79.4639999,17.232 C78.887997,18.3360055 78.2400035,19.4639942 77.5199999,20.616 C76.7999963,21.7680058 76.0000043,22.8959945 75.1199999,24 L72.3359999,24 C72.1439989,22.6879934 72.0000004,21.432006 71.9039999,20.232 C71.8079994,19.031994 71.744,17.8240061 71.7119999,16.608 Z M94.0559998,24 L90.5039998,24 L93.5039998,11.376 L97.0799998,11.376 L94.0559998,24 Z M95.7839998,9.84 C95.2879974,9.84 94.8400018,9.69200148 94.4399998,9.396 C94.0399978,9.09999852 93.8399998,8.64800304 93.8399998,8.04 C93.8399998,7.70399832 93.9079992,7.38800148 94.0439998,7.092 C94.1800005,6.79599852 94.3599987,6.54000108 94.5839998,6.324 C94.808001,6.10799892 95.0679984,5.93600064 95.3639998,5.808 C95.6600013,5.67999936 95.9759982,5.616 96.3119998,5.616 C96.8080023,5.616 97.2559978,5.76399852 97.6559998,6.06 C98.0560018,6.35600148 98.2559998,6.80799696 98.2559998,7.416 C98.2559998,7.75200168 98.1880005,8.06799852 98.0519998,8.364 C97.9159992,8.66000148 97.736001,8.91599892 97.5119998,9.132 C97.2879987,9.34800108 97.0280013,9.51999936 96.7319998,9.648 C96.4359984,9.77600064 96.1200015,9.84 95.7839998,9.84 Z M90.2639998,5.376 C90.9840034,5.376 91.5679976,5.43199944 92.0159998,5.544 C92.4640021,5.65600056 92.8239985,5.77599936 93.0959998,5.904 L91.8239998,8.688 C91.5359984,8.6079996 91.2600012,8.54000028 90.9959998,8.484 C90.7319985,8.42799972 90.4400014,8.4 90.1199998,8.4 C89.2399954,8.4 88.588002,8.62399776 88.1639998,9.072 C87.7399977,9.52000224 87.4480006,10.0799966 87.2879998,10.752 L87.1439998,11.376 L91.3679998,11.376 L90.6479998,14.304 L86.4479998,14.304 L84.9839998,20.424 C84.4399971,22.7120114 83.848003,24.4919936 83.2079998,25.764 C82.5679966,27.0360064 81.8640037,27.9599971 81.0959998,28.536 L77.9039998,28.08 C78.3200019,27.6959981 78.7039981,27.2240028 79.0559998,26.664 C79.4080016,26.1039972 79.7239984,25.5120031 80.0039998,24.888 C80.2840012,24.2639969 80.5239988,23.6280032 80.7239998,22.98 C80.9240008,22.3319968 81.0879992,21.7280028 81.2159998,21.168 L83.7119998,10.704 C84.1120018,9.00799152 84.8319946,7.69600464 85.8719998,6.768 C86.912005,5.83999536 88.3759904,5.376 90.2639998,5.376 Z M99.2399998,11.952 C99.5120012,11.8719996 99.8119982,11.7800005 100.14,11.676 C100.468001,11.5719995 100.835998,11.4760004 101.244,11.388 C101.652002,11.2999996 102.107997,11.2280003 102.612,11.172 C103.116002,11.1159997 103.687997,11.088 104.328,11.088 C106.216009,11.088 107.511996,11.6319946 108.216,12.72 C108.920003,13.8080054 109.040002,15.2959906 108.576,17.184 L106.944,24 L103.368,24 L104.952,17.328 C105.048,16.9119979 105.124,16.508002 105.18,16.116 C105.236,15.723998 105.232,15.3800015 105.168,15.084 C105.103999,14.7879985 104.956001,14.5480009 104.724,14.364 C104.491999,14.1799991 104.136002,14.088 103.656,14.088 C103.191997,14.088 102.720002,14.1359995 102.24,14.232 L99.9119998,24 L96.3359998,24 L99.2399998,11.952 Z M114.192,24.336 C113.391996,24.336 112.708003,24.2000014 112.14,23.928 C111.571997,23.6559986 111.108002,23.2840024 110.748,22.812 C110.387998,22.3399976 110.124001,21.7880032 109.956,21.156 C109.787999,20.5239968 109.704,19.8480036 109.704,19.128 C109.704,18.0399946 109.899998,17.0120048 110.292,16.044 C110.684002,15.0759952 111.223996,14.2320036 111.912,13.512 C112.600003,12.7919964 113.415995,12.2240021 114.36,11.808 C115.304004,11.3919979 116.335994,11.184 117.456,11.184 C117.744001,11.184 118.011999,11.1999998 118.26,11.232 C118.508001,11.2640002 118.759998,11.3119997 119.016,11.376 L120.312,5.952 L124.032,5.376 L120.864,18.552 C120.639999,19.4640046 120.575999,20.3799954 120.672,21.3 C120.768,22.2200046 120.951998,23.0399964 121.224,23.76 L118.032,24.216 C117.935999,24.023999 117.848,23.8400009 117.768,23.664 C117.687999,23.4879991 117.608,23.2880011 117.528,23.064 C117.079998,23.4320018 116.580003,23.7359988 116.028,23.976 C115.475997,24.2160012 114.864003,24.336 114.192,24.336 Z M118.32,14.232 C118.223999,14.2159999 118.14,14.2000001 118.068,14.184 C117.995999,14.1679999 117.924,14.156 117.852,14.148 C117.779999,14.14 117.688,14.136 117.576,14.136 L117.144,14.136 C116.583997,14.136 116.064002,14.2679987 115.584,14.532 C115.103997,14.7960013 114.692001,15.1519978 114.348,15.6 C114.003998,16.0480022 113.736001,16.5559972 113.544,17.124 C113.351999,17.6920028 113.256,18.271997 113.256,18.864 C113.256,19.6320038 113.387998,20.2359978 113.652,20.676 C113.916001,21.1160022 114.391996,21.336 115.08,21.336 C115.448002,21.336 115.783998,21.2640007 116.088,21.12 C116.392001,20.9759993 116.711998,20.7360017 117.048,20.4 C117.08,19.999998 117.131999,19.5800022 117.204,19.14 C117.276,18.6999978 117.351999,18.2960018 117.432,17.928 L118.32,14.232 Z M122.904,19.056 C122.904,18.0319949 123.083998,17.0400048 123.444,16.08 C123.804002,15.1199952 124.311996,14.2680037 124.968,13.524 C125.624003,12.7799963 126.419995,12.1800023 127.356,11.724 C128.292004,11.2679977 129.327994,11.04 130.464,11.04 C131.024003,11.04 131.543997,11.1199992 132.024,11.28 C132.504002,11.4400008 132.923998,11.6719985 133.284,11.976 C133.644002,12.2800015 133.923999,12.6519978 134.124,13.092 C134.324001,13.5320022 134.424,14.0319972 134.424,14.592 C134.424,15.4880045 134.224002,16.2479969 133.824,16.872 C133.423998,17.4960031 132.868003,18.003998 132.156,18.396 C131.443996,18.788002 130.600005,19.0719991 129.624,19.248 C128.647995,19.4240009 127.584005,19.512 126.432,19.512 C126.544,20.1840034 126.787998,20.6599986 127.164,20.94 C127.540002,21.2200014 128.135996,21.36 128.952,21.36 C129.464002,21.36 129.983997,21.3160004 130.512,21.228 C131.040002,21.1399996 131.535997,21.0080009 132,20.832 L132.264,23.64 C131.815997,23.8160009 131.244003,23.9759993 130.548,24.12 C129.851996,24.2640007 129.096004,24.336 128.28,24.336 C127.287995,24.336 126.452003,24.1960014 125.772,23.916 C125.091996,23.6359986 124.540002,23.2560024 124.116,22.776 C123.691998,22.2959976 123.384001,21.7360032 123.192,21.096 C122.999999,20.4559968 122.904,19.7760036 122.904,19.056 Z M129.888,13.872 C129.071996,13.872 128.356003,14.1639971 127.74,14.748 C127.123997,15.3320029 126.720001,16.1039952 126.528,17.064 C127.520005,17.0319998 128.319997,16.9480007 128.928,16.812 C129.536003,16.6759993 130.007998,16.512001 130.344,16.32 C130.680001,16.127999 130.903999,15.9200011 131.016,15.696 C131.128,15.4719989 131.184,15.2480011 131.184,15.024 C131.184,14.2559962 130.752004,13.872 129.888,13.872 Z M143.592,14.448 C143.271998,14.3679996 142.956001,14.2920004 142.644,14.22 C142.331998,14.1479996 141.872003,14.112 141.264,14.112 C141.039999,14.112 140.792001,14.1319998 140.52,14.172 C140.247998,14.2120002 140.024001,14.2559998 139.848,14.304 L137.52,24 L133.944,24 L136.824,12.048 C137.512003,11.8239989 138.283995,11.612001 139.14,11.412 C139.996004,11.211999 140.959994,11.112 142.032,11.112 C142.432002,11.112 142.875997,11.1479996 143.364,11.22 C143.852002,11.2920004 144.279998,11.4079992 144.648,11.568 L143.592,14.448 Z" id="Viewfinder-Copy"></path>
                    <path d="M12.9997682,0 C21.4143069,0 26,7.271101 26,13.0593858 C26,23.5717088 13.2622263,31.848767 13.0007471,32 C12.7377737,31.848767 5.24191614e-16,23.5717088 0,13.0593858 C0,7.271101 4.58522944,0 12.9997682,0 Z M22.2223753,7.46935106 L16.7988498,16.812526 L23.1237882,16.812526 C23.5502737,15.6496322 23.7844399,14.3934298 23.7844399,13.0815615 C23.7844399,11.0262393 23.2134481,9.10520344 22.2223753,7.46935106 Z M14.4863339,7.78935692 L14.4863339,7.78935692 L11.3927208,2.40311793 C8.0692408,2.91487691 5.24815096,4.95512941 3.66096324,7.78935692 L14.4863339,7.78935692 Z M13.2636983,23.8827102 L7.81070884,14.2631832 L4.62413671,19.8112693 C6.59373566,22.2954386 9.62788481,23.8885139 13.0335496,23.8885139 C13.1107967,23.8885139 13.1870484,23.8843112 13.2636983,23.8827102 Z M11.4568091,18.1960518 L14.6543983,23.7633217 C18.0561234,23.2461988 20.9352127,21.1287025 22.5054821,18.1960518 L11.4568091,18.1960518 Z M18.2665426,11.740059 L18.2665426,11.740059 L21.3953069,6.29262108 C19.4247852,3.84254801 16.4120581,2.27460916 13.0335496,2.27460916 C12.957497,2.27460916 12.8824398,2.27881186 12.8065863,2.28041289 L18.2665426,11.740059 Z M9.28958199,9.13519911 L9.28958199,9.13519911 L3.02220513,9.13519911 C2.54483001,10.3577451 2.28265929,11.6888225 2.28265929,13.0815615 C2.28265929,15.1328812 2.85126193,17.0505148 3.83855202,18.6843659 L9.28958199,9.13519911 Z" id="Mask-Copy-6"></path>
                </g>
            </g>
        </g>
    </g>
</svg>