<?xml version="1.0" standalone="no"?>
<!DOCTYPE svg PUBLIC "-//W3C//DTD SVG 20010904//EN"
 "http://www.w3.org/TR/2001/REC-SVG-20010904/DTD/svg10.dtd">
<svg version="1.0" xmlns="http://www.w3.org/2000/svg"
 width="260.000000pt" height="260.000000pt" viewBox="0 0 260.000000 260.000000"
 preserveAspectRatio="xMidYMid meet">
<metadata>
Created by potrace 1.11, written by Peter Selinger 2001-2013
</metadata>
<g transform="translate(0.000000,260.000000) scale(0.100000,-0.100000)"
fill="#000000" stroke="none">
<path d="M1163 2570 c-215 -27 -421 -114 -538 -228 -156 -151 -233 -256 -291
-394 -127 -300 -107 -634 56 -958 37 -74 96 -170 113 -185 7 -6 19 -22 27 -37
76 -134 391 -456 599 -611 79 -59 146 -107 150 -107 8 1 125 86 227 165 162
125 502 489 534 569 4 12 21 35 37 53 42 47 127 214 166 329 109 315 81 632
-82 907 -25 43 -66 100 -91 126 -25 25 -61 64 -80 86 -80 91 -206 176 -326
221 -145 54 -357 81 -501 64z m243 -185 c60 -6 214 -50 223 -62 3 -5 35 -25
71 -45 74 -42 188 -133 218 -175 l20 -28 -55 -95 c-31 -52 -75 -131 -98 -175
-66 -123 -79 -145 -88 -142 -5 1 -38 56 -74 122 -36 66 -69 122 -73 125 -15 9
-280 471 -280 488 0 2 19 1 43 -2 23 -3 65 -8 93 -11z m-212 -72 c19 -38 70
-131 115 -208 l81 -140 -416 -3 c-230 -1 -419 0 -422 2 -9 10 89 134 156 198
64 60 195 148 221 148 6 0 11 4 11 9 0 11 44 29 112 46 100 24 103 23 142 -52z
m846 -395 c14 -29 28 -56 33 -59 23 -17 49 -152 54 -281 5 -119 3 -151 -16
-233 l-22 -95 -250 0 -249 0 36 68 c20 37 83 146 139 242 56 96 117 202 135
235 60 112 104 184 110 180 3 -2 17 -28 30 -57z m-1070 -66 c0 -16 -32 -75
-167 -309 -73 -128 -133 -235 -133 -238 0 -9 -102 -185 -110 -190 -4 -2 -15
13 -25 35 -10 22 -21 40 -25 40 -11 0 -37 69 -57 152 -25 103 -24 307 1 408
30 121 2 110 276 110 132 0 240 -4 240 -8z m-25 -547 c33 -64 67 -124 76 -134
29 -31 269 -457 269 -477 0 -12 -149 5 -232 27 -74 18 -156 52 -168 68 -3 4
-26 19 -51 34 -60 34 -159 117 -191 160 l-26 33 50 84 c28 47 71 123 95 170
80 150 94 171 107 161 6 -5 38 -62 71 -126z m1075 -173 c0 -5 -22 -40 -49 -78
-59 -84 -147 -169 -227 -220 -32 -20 -61 -41 -64 -45 -16 -24 -250 -96 -271
-84 -5 4 -25 37 -43 73 -19 37 -70 130 -115 207 -45 77 -81 143 -81 147 0 5
191 8 425 8 234 0 425 -4 425 -8z"/>
</g>
</svg>
