<?xml version="1.0" encoding="UTF-8" standalone="no"?>
<svg width="24px" height="24px" viewBox="0 0 24 24" version="1.1" xmlns="http://www.w3.org/2000/svg" xmlns:xlink="http://www.w3.org/1999/xlink">
    <!-- Generator: Sketch 43.2 (39069) - http://www.bohemiancoding.com/sketch -->
    <title>icons/camera-shutter-speed</title>
    <desc>Created with Sketch.</desc>
    <defs></defs>
    <g id="Symbols" stroke="none" stroke-width="1" fill="none" fill-rule="evenodd">
        <g id="icons/camera-shutter-speed">
            <rect id="bounds" x="0" y="0" width="24" height="24"></rect>
            <g id="colors/gray-04"></g>
            <g id="timer" transform="translate(4.000000, 2.000000)" fill="#767676">
                <path d="M12.8438095,2.06536061 C12.5304762,1.8836165 12.1302857,1.99098474 11.948,2.30603329 L11.2931429,3.44131415 L13.5632381,4.75319001 L14.2180952,3.61790915 C14.3988571,3.30286061 14.2908571,2.90351942 13.9777143,2.72101248 L12.8438095,2.06536061 Z" id="Fill-1"></path>
                <path d="M2.92628571,2.06536061 L1.79238095,2.72101248 C1.4792381,2.90351942 1.372,3.30286061 1.552,3.61790915 L2.20685714,4.75319001 L4.47695238,3.44131415 L3.82209524,2.30603329 C3.63980952,1.99098474 3.23961905,1.8836165 2.92628571,2.06536061 L2.92628571,2.06536061 Z" id="Fill-2"></path>
                <path d="M7.92419048,3.06809986 C8.33771429,3.06809986 8.74247619,3.10833911 9.14285714,3.16574202 L9.14285714,2.10426491 L9.98057143,2.09739945 L9.98057143,0.724497226 C9.98057143,0.387135922 9.70838095,0.114424411 9.3712381,0.114424411 L6.48285714,0.114424411 C6.14590476,0.114424411 5.8727619,0.387135922 5.8727619,0.724497226 L5.8727619,2.09739945 L6.70457143,2.10426491 L6.70457143,3.16574202 C7.10495238,3.10833911 7.50971429,3.06809986 7.92419048,3.06809986 L7.92419048,3.06809986 Z" id="Fill-3"></path>
                <path d="M8.00059809,6 C4.68681821,6 2,8.68646413 2,12 C2,15.313811 4.68619625,18 8.00059809,18 C11.3137583,18 14,15.3135574 14,12 C14,8.68625835 11.3138731,6 8.00059809,6 Z M8.00059809,4 C12.4183612,4 16,7.58160748 16,12 C16,16.4180935 12.4183612,20 8.00059809,20 C3.58133971,20 0,16.4180935 0,12 C0,7.58160748 3.58253589,4 8.00059809,4 Z" id="Fill-4" fill-rule="nonzero"></path>
                <path d="M8.77142475,12.8603786 C8.46947994,13.1520793 7.86578549,12.9718869 7.42350562,12.4579973 C6.98064021,11.9432801 6.86704494,11.2893328 7.16879458,10.9976322 C7.47073939,10.7059315 10.1736042,9.12598985 11,9 C10.8055998,9.86062032 9.07415029,12.5678505 8.77142475,12.8603786 L8.77142475,12.8603786 Z" id="Path"></path>
            </g>
        </g>
    </g>
</svg>