<?xml version="1.0" encoding="UTF-8" standalone="no"?>
<svg width="24px" height="24px" viewBox="0 0 24 24" version="1.1" xmlns="http://www.w3.org/2000/svg" xmlns:xlink="http://www.w3.org/1999/xlink">
    <!-- Generator: Sketch 43.2 (39069) - http://www.bohemiancoding.com/sketch -->
    <title>icons/camera-aperture</title>
    <desc>Created with Sketch.</desc>
    <defs></defs>
    <g id="Symbols" stroke="none" stroke-width="1" fill="none" fill-rule="evenodd">
        <g id="icons/camera-aperture">
            <rect id="bounds" x="0" y="0" width="24" height="24"></rect>
            <g id="colors/gray-04"></g>
            <path d="M20.1882112,8.32235525 C20.7094953,9.46599372 21,10.737197 21,12.0764671 C21,13.165188 20.8067482,14.2081401 20.4544594,15.1746604 L16.232031,15.1746604 L20.1882112,8.32235525 Z M18.7519703,6.10742402 L16.3637184,10.2439977 L12.1813944,3 C14.8031774,3.07029445 17.1453384,4.25960573 18.7519703,6.10742402 Z M9.62474773,3.27433153 C7.25496097,3.91113838 5.27030427,5.48795696 4.09303681,7.5823704 L10.3413846,7.5823704 L12.1119951,7.5823704 L9.62474773,3.27433153 Z M19.1845703,17.5259472 C17.8799227,19.2785598 15.9563208,20.5412539 13.7380284,20.9913691 L11.7372661,17.5259472 L19.1845703,17.5259472 Z M3.21903522,10.0002427 L7.65785046,10.0002427 L4.05583957,16.2391086 C3.38195028,14.9719424 3,13.5255241 3,11.9896384 C3,11.3061465 3.0756586,10.640383 3.21903522,10.0002427 Z M5.5307823,18.3870063 L7.52507454,14.9327908 L11.0280626,21.000144 C8.88820318,20.7886918 6.96822409,19.8292934 5.5307823,18.3870063 Z" id="Combined-Shape" fill="#767676"></path>
        </g>
    </g>
</svg>