<?xml version="1.0" encoding="UTF-8" standalone="no"?>
<svg width="24px" height="24px" viewBox="0 0 24 24" version="1.1" xmlns="http://www.w3.org/2000/svg" xmlns:xlink="http://www.w3.org/1999/xlink">
    <!-- Generator: Sketch 43.2 (39069) - http://www.bohemiancoding.com/sketch -->
    <title>icons/camera</title>
    <desc>Created with Sketch.</desc>
    <defs></defs>
    <g id="Symbols" stroke="none" stroke-width="1" fill="none" fill-rule="evenodd">
        <g id="icons/camera">
            <rect id="bounds" x="0" y="0" width="24" height="24"></rect>
            <g id="colors/gray-04" transform="translate(2.000000, 3.000000)" fill="#767676">
                <circle id="Oval" cx="10" cy="10" r="4"></circle>
                <path d="M7,0 L5.2,2 L2,2 C0.9,2 0,2.9 0,4 L0,16 C0,17.1 0.9,18 2,18 L18,18 C19.1,18 20,17.1 20,16 L20,4 C20,2.9 19.1,2 18,2 L14.8,2 L13,0 L7,0 L7,0 Z M10,16 C6.64,16 4,13.36 4,10 C4,6.64 6.64,4 10,4 C13.36,4 16,6.64 16,10 C16,13.36 13.36,16 10,16 L10,16 Z" id="Shape"></path>
            </g>
        </g>
    </g>
</svg>