<?xml version="1.0" encoding="UTF-8" standalone="no"?>
<svg width="24px" height="24px" viewBox="0 0 24 24" version="1.1" xmlns="http://www.w3.org/2000/svg" xmlns:xlink="http://www.w3.org/1999/xlink">
    <!-- Generator: Sketch 43.2 (39069) - http://www.bohemiancoding.com/sketch -->
    <title>icons/camera-tripod</title>
    <desc>Created with Sketch.</desc>
    <defs>
        <rect id="path-1" x="1" y="3.02535774e-14" width="2" height="12"></rect>
        <rect id="path-2" x="1" y="3.02535774e-14" width="2" height="12"></rect>
        <rect id="path-3" x="1" y="3.02535774e-14" width="2" height="12"></rect>
        <polygon id="path-4" points="10 -1.23781676 12 -1.23781676 12 4.76218324 10 4.76218324"></polygon>
        <polygon id="path-5" points="9 3.76218324 13 3.76218324 11 6.76218324"></polygon>
    </defs>
    <g id="Symbols" stroke="none" stroke-width="1" fill="none" fill-rule="evenodd">
        <g id="icons/camera-tripod">
            <rect id="bounds" x="0" y="0" width="24" height="24"></rect>
            <g id="Group-7" transform="translate(1.000000, 1.237817)">
                <g id="Group-9" transform="translate(9.000000, 2.000000)">
                    <g id="Group-Copy" transform="translate(2.000000, 8.586745) scale(-1, 1) rotate(-360.000000) translate(-2.000000, -8.586745) translate(0.000000, 0.586745)">
                        <g id="Rectangle-3-Copy">
                            <use fill="#767676" fill-rule="evenodd" xlink:href="#path-1"></use>
                            <rect stroke="#FFFFFF" stroke-width="1" x="0.5" y="-0.5" width="3" height="13"></rect>
                        </g>
                        <polygon id="Path-2-Copy-2" fill="#767676" points="-2.68229883e-13 13 4 13 2.10390636 16"></polygon>
                    </g>
                </g>
                <g id="Group-9-Copy" transform="translate(15.982051, 13.123399) rotate(-30.000000) translate(-15.982051, -13.123399) translate(13.982051, 4.623399)">
                    <g id="Group-Copy" transform="translate(2.000000, 8.586745) scale(-1, 1) rotate(-360.000000) translate(-2.000000, -8.586745) translate(0.000000, 0.586745)">
                        <g id="Rectangle-3-Copy">
                            <use fill="#767676" fill-rule="evenodd" xlink:href="#path-2"></use>
                            <rect stroke="#FFFFFF" stroke-width="1" x="0.5" y="-0.5" width="3" height="13"></rect>
                        </g>
                        <polygon id="Path-2-Copy-2" fill="#767676" points="-2.68229883e-13 13 4 13 2.10390636 16"></polygon>
                    </g>
                </g>
                <g id="Group-9-Copy-2" transform="translate(5.982051, 13.123399) scale(-1, 1) rotate(-30.000000) translate(-5.982051, -13.123399) translate(3.982051, 4.623399)">
                    <g id="Group-Copy" transform="translate(2.000000, 8.586745) scale(-1, 1) rotate(-360.000000) translate(-2.000000, -8.586745) translate(0.000000, 0.586745)">
                        <g id="Rectangle-3-Copy">
                            <use fill="#767676" fill-rule="evenodd" xlink:href="#path-3"></use>
                            <rect stroke="#FFFFFF" stroke-width="1" x="0.5" y="-0.5" width="3" height="13"></rect>
                        </g>
                        <polygon id="Path-2-Copy-2" fill="#767676" points="-2.68229883e-13 13 4 13 2.10390636 16"></polygon>
                    </g>
                </g>
                <g id="Rectangle-3-Copy-2" transform="translate(11.000000, 1.762183) rotate(-90.000000) translate(-11.000000, -1.762183) ">
                    <use fill="#767676" fill-rule="evenodd" xlink:href="#path-4"></use>
                    <path stroke="#FFFFFF" stroke-width="1" d="M10,-1.73781676 L9.5,-1.73781676 L9.5,-1.23781676 L9.5,4.76218324 L9.5,5.26218324 L10,5.26218324 L12,5.26218324 L12.5,5.26218324 L12.5,4.76218324 L12.5,-1.23781676 L12.5,-1.73781676 L12,-1.73781676 L10,-1.73781676 Z"></path>
                </g>
                <g id="Path-2">
                    <use fill="#767676" fill-rule="evenodd" xlink:href="#path-5"></use>
                    <path stroke="#FFFFFF" stroke-width="1" d="M9,3.26218324 L8.06574145,3.26218324 L8.58397485,4.03953333 L10.5839749,7.03953333 L11,7.66357105 L11.4160251,7.03953333 L13.4160251,4.03953333 L13.9342585,3.26218324 L13,3.26218324 L9,3.26218324 Z"></path>
                </g>
            </g>
        </g>
    </g>
</svg>