<?xml version="1.0" encoding="UTF-8" standalone="no"?>
<svg width="180px" height="44px" viewBox="0 0 180 44" version="1.1" xmlns="http://www.w3.org/2000/svg" xmlns:xlink="http://www.w3.org/1999/xlink">
    <!-- Generator: Sketch 43.2 (39069) - http://www.bohemiancoding.com/sketch -->
    <title>logo-web</title>
    <desc>Created with Sketch.</desc>
    <defs></defs>
    <g id="Symbols" stroke="none" stroke-width="1" fill="none" fill-rule="evenodd">
        <rect id="Rectangle" x="0" y="0" width="180" height="44"></rect>
        <g id="logo-web" fill="#333333">
            <path d="M14.6084351,4 C24.0642379,4 29.2173913,12.1799886 29.2173913,18.6918091 C29.2173913,30.5181724 14.9033714,39.8298629 14.6095352,40 C14.3140199,39.8298629 5.89058135e-16,30.5181724 0,18.6918091 C0,12.1799886 5.15263241,4 14.6084351,4 Z M24.9723014,12.4030199 L18.8776372,22.9140917 L25.9852603,22.9140917 C26.4645217,21.6058362 26.7276649,20.1926085 26.7276649,18.7167567 C26.7276649,16.4045192 26.0860153,14.2433539 24.9723014,12.4030199 Z M16.2789571,12.7630265 L16.2789571,12.7630265 L12.8025223,6.70350767 C9.06777561,7.27923652 5.89758771,9.57452059 4.11399214,12.7630265 L16.2789571,12.7630265 Z M14.9050255,30.8680489 L8.77725141,20.0460811 L5.1963543,26.287678 C7.40968288,29.0823684 10.8192953,30.8745781 14.6463968,30.8745781 C14.733203,30.8745781 14.8188905,30.8698501 14.9050255,30.8680489 Z M12.8745413,24.4705583 L16.4678188,30.7337369 C20.2904932,30.1519737 23.5258578,27.7697904 25.2904414,24.4705583 L12.8745413,24.4705583 Z M20.5269509,17.2075664 L20.5269509,17.2075664 L24.0428867,11.0791987 C21.8285211,8.32286652 18.4429817,6.5589353 14.6463968,6.5589353 C14.5609331,6.5589353 14.4765879,6.56366334 14.3913479,6.5654645 L20.5269509,17.2075664 Z M10.4391289,14.277099 L10.4391289,14.277099 L3.39619038,14.277099 C2.85974209,15.6524632 2.56512883,17.1499253 2.56512883,18.7167567 C2.56512883,21.0244913 3.20409368,23.1818292 4.31355679,25.0199117 L10.4391289,14.277099 Z" id="Mask-Copy-4"></path>
            <path d="M37.8668573,34.8740938 C37.5445439,33.0696417 37.2373435,31.2015311 36.9452469,29.2697058 C36.6531503,27.3378806 36.3761664,25.4166987 36.1142867,23.5061023 C35.852407,21.5955059 35.6207477,19.7327024 35.4193018,17.9176359 C35.2178559,16.1025693 35.0466295,14.3989798 34.9056173,12.8068161 L39.951812,12.8068161 C40.0122458,14.0168605 40.0877869,15.317108 40.1784375,16.7075976 C40.2690882,18.0980871 40.3748457,19.4991701 40.4957132,20.9108885 C40.6165808,22.322607 40.7424826,23.7236899 40.8734224,25.1141795 C41.0043622,26.5046691 41.1403362,27.8049166 41.2813483,29.0149609 C41.9058306,27.9110608 42.5756282,26.7010346 43.2907612,25.384846 C44.0058941,24.0686574 44.7310885,22.6994172 45.4663661,21.2770843 C46.2016436,19.8547515 46.926838,18.4218257 47.641971,16.978264 C48.3571039,15.5347023 49.0168294,14.1442336 49.6211671,12.8068161 L54.637145,12.8068161 C53.8716506,14.3352932 53.0356626,15.9805043 52.1291561,17.7424987 C51.2226495,19.5044932 50.2506876,21.3301468 49.2132412,23.2195143 C48.1757948,25.1088818 47.077931,27.0353709 45.9196171,28.9990394 C44.7613031,30.9627079 43.5476098,32.9210398 42.2785006,34.8740938 L37.8668573,34.8740938 Z M55.9364646,34.8740938 L51.4643879,34.8740938 L55.2414797,18.1246161 L59.7437732,18.1246161 L55.9364646,34.8740938 Z M58.1120695,16.0866568 C57.4875872,16.0866568 56.9235471,15.8902929 56.4199324,15.4975592 C55.9163176,15.1048255 55.664514,14.5051196 55.664514,13.6984233 C55.664514,13.2526175 55.7501272,12.833354 55.9213562,12.4406203 C56.0925853,12.0478866 56.3192085,11.7082302 56.6012328,11.4216407 C56.883257,11.1350513 57.2106017,10.9068446 57.5832766,10.7370138 C57.9559516,10.567183 58.3538013,10.4822689 58.7768377,10.4822689 C59.40132,10.4822689 59.96536,10.6786328 60.4689748,11.0713665 C60.9725896,11.4641002 61.2243932,12.0638061 61.2243932,12.8705024 C61.2243932,13.3163082 61.1387799,13.7355717 60.9675509,14.1283054 C60.7963219,14.5210391 60.5696987,14.8606955 60.2876744,15.147285 C60.0056501,15.4338744 59.6783054,15.6620811 59.3056305,15.8319119 C58.9329556,16.0017427 58.5351059,16.0866568 58.1120695,16.0866568 Z M59.7135564,28.3144124 C59.7135564,26.9557661 59.9401797,25.6395973 60.393433,24.3658664 C60.8466863,23.0921354 61.4862674,21.9617162 62.3121956,20.9745748 C63.1381238,19.9874333 64.1403022,19.1913634 65.3187607,18.5863413 C66.4972193,17.9813191 67.8015619,17.6788125 69.2318278,17.6788125 C69.9368885,17.6788125 70.5915779,17.7849552 71.1959156,17.9972437 C71.8002533,18.2095321 72.3290409,18.5173458 72.7822942,18.9206939 C73.2355474,19.3240421 73.5880725,19.8176054 73.8398799,20.4013987 C74.0916873,20.9851921 74.2175891,21.6485836 74.2175891,22.3915933 C74.2175891,23.5804088 73.9657855,24.588764 73.4621707,25.4166891 C72.9585559,26.2446142 72.2585419,26.91862 71.3621076,27.4387268 C70.4656734,27.9588336 69.4030622,28.33564 68.1742421,28.5691573 C66.9454221,28.8026747 65.6058269,28.9194316 64.1554164,28.9194316 C64.2964286,29.8110432 64.603629,30.442592 65.0770268,30.8140968 C65.5504247,31.1856017 66.3007994,31.3713513 67.3281736,31.3713513 C67.9728005,31.3713513 68.6274898,31.3129729 69.2922613,31.1962142 C69.9570328,31.0794555 70.5815057,30.9043202 71.1656989,30.6708028 L71.4980829,34.3964471 C70.9340344,34.6299645 70.2138761,34.8422498 69.3375864,35.0333094 C68.4612967,35.224369 67.5094791,35.3198974 66.482105,35.3198974 C65.2331404,35.3198974 64.1806013,35.1341478 63.3244562,34.7626429 C62.4683111,34.3911381 61.7733332,33.8869605 61.2395015,33.250095 C60.7056699,32.6132296 60.3178923,31.870231 60.0761573,31.0210771 C59.8344222,30.1719231 59.7135564,29.2697106 59.7135564,28.3144124 Z M68.5066262,21.4362999 C67.4792521,21.4362999 66.5777952,21.8237206 65.8022285,22.5985736 C65.0266617,23.3734265 64.5180185,24.3977031 64.2762834,25.671434 C65.525248,25.6289763 66.5324624,25.5175265 67.2979568,25.3370813 C68.0634513,25.1566361 68.6577078,24.9390437 69.0807442,24.6842975 C69.5037806,24.4295513 69.7858006,24.1535804 69.9268127,23.8563765 C70.0678249,23.5591727 70.1383299,23.2619732 70.1383299,22.9647694 C70.1383299,21.9457846 69.5944341,21.4362999 68.5066262,21.4362999 Z M86.062549,25.0664149 C85.6798018,25.9367976 85.2517357,26.8230888 84.7783378,27.7253148 C84.3049399,28.6275409 83.821477,29.5085249 83.3279345,30.3682933 C82.8343921,31.2280616 82.3559652,32.04536 81.8926396,32.820213 C81.4293141,33.595066 81.0163562,34.2796861 80.6537535,34.8740938 L77.1486123,34.8740938 C76.9874556,33.9824822 76.8212652,32.9210557 76.6500362,31.6897825 C76.4788072,30.4585093 76.3126168,29.1158047 76.1514601,27.6616286 C75.9903033,26.2074525 75.8442573,24.6683841 75.7133174,23.0443771 C75.5823776,21.4203702 75.4866922,19.7804663 75.4262584,18.1246161 L79.8379017,18.1246161 C79.8379017,18.8888547 79.8429378,19.7167673 79.8530101,20.608379 C79.8630824,21.4999906 79.8832266,22.4234317 79.9134435,23.3787298 C79.9436604,24.334028 79.9889851,25.3105404 80.0494188,26.3082963 C80.1098526,27.3060522 80.1904298,28.2931788 80.2911527,29.2697058 C80.7947675,28.3780942 81.2933386,27.449346 81.7868811,26.4834334 C82.2804235,25.5175208 82.7538143,24.5516227 83.2070676,23.5857101 C83.6603209,22.6197975 84.0833509,21.6698207 84.4761705,20.7357514 C84.86899,19.8016821 85.2164789,18.9313123 85.5186478,18.1246161 L89.2655229,18.1246161 C89.2655229,19.6530932 89.2907033,21.3619899 89.3410647,23.2513574 C89.3914262,25.1407249 89.517328,27.146821 89.7187739,29.2697058 C90.2626779,28.3144077 90.7662851,27.3325881 91.2296106,26.3242178 C91.6929362,25.3158475 92.1210024,24.3234138 92.5138219,23.3468867 C92.9066414,22.3703597 93.2591664,21.4363044 93.5714076,20.5446927 C93.8836487,19.6530811 94.1606327,18.846397 94.4023678,18.1246161 L99.1766119,18.1246161 C98.77372,19.1860585 98.2952932,20.3801633 97.741317,21.7069664 C97.1873407,23.0337694 96.5477596,24.4295453 95.8225543,25.8943358 C95.0973491,27.3591264 94.2815054,28.8557377 93.3749988,30.3842148 C92.4684922,31.9126919 91.4612778,33.4093033 90.3533253,34.8740938 L86.8481841,34.8740938 C86.606449,33.1333282 86.4251504,31.4668886 86.3042829,29.874725 C86.1834154,28.2825614 86.1028382,26.6798073 86.062549,25.0664149 Z M114.194329,34.8740938 L109.722252,34.8740938 L113.499344,18.1246161 L118.001638,18.1246161 L114.194329,34.8740938 Z M116.369934,16.0866568 C115.745452,16.0866568 115.181411,15.8902929 114.677797,15.4975592 C114.174182,15.1048255 113.922378,14.5051196 113.922378,13.6984233 C113.922378,13.2526175 114.007992,12.833354 114.179221,12.4406203 C114.35045,12.0478866 114.577073,11.7082302 114.859097,11.4216407 C115.141121,11.1350513 115.468466,10.9068446 115.841141,10.7370138 C116.213816,10.567183 116.611666,10.4822689 117.034702,10.4822689 C117.659184,10.4822689 118.223224,10.6786328 118.726839,11.0713665 C119.230454,11.4641002 119.482258,12.0638061 119.482258,12.8705024 C119.482258,13.3163082 119.396644,13.7355717 119.225415,14.1283054 C119.054186,14.5210391 118.827563,14.8606955 118.545539,15.147285 C118.263514,15.4338744 117.93617,15.6620811 117.563495,15.8319119 C117.19082,16.0017427 116.79297,16.0866568 116.369934,16.0866568 Z M109.420085,10.1638377 C110.326591,10.1638377 111.061858,10.2381376 111.625907,10.3867395 C112.189955,10.5353415 112.643202,10.6945554 112.98566,10.8643862 L111.384173,14.5581874 C111.02157,14.4520431 110.674081,14.3618219 110.341695,14.2875209 C110.00931,14.21322 109.641676,14.17607 109.238784,14.17607 C108.130832,14.17607 107.309952,14.4732695 106.776121,15.0676772 C106.242289,15.662085 105.874656,16.4050835 105.67321,17.2966952 L105.491909,18.1246161 L110.810055,18.1246161 L109.903553,22.009476 L104.615624,22.009476 L102.772403,30.1294699 C102.087487,33.1651952 101.342149,35.5268692 100.536365,37.2145627 C99.7305813,38.9022561 98.8442326,40.1282037 97.8772923,40.8924423 L93.8584666,40.2874231 C94.3822259,39.7779308 94.8656888,39.1516891 95.3088698,38.4086794 C95.7520508,37.6656697 96.1499005,36.8802141 96.5024308,36.052289 C96.8549612,35.2243639 97.1571255,34.3805299 97.4089329,33.5207615 C97.6607403,32.6609931 97.8672192,31.8596161 98.0283759,31.1166064 L101.170916,17.2330089 C101.674531,14.982751 102.581024,13.2420115 103.890422,12.0107383 C105.199821,10.7794651 107.043023,10.1638377 109.420085,10.1638377 Z M120.721144,18.8888508 C121.063602,18.7827066 121.441307,18.6606425 121.854271,18.522655 C122.267235,18.3846675 122.730554,18.2572963 123.244241,18.1405377 C123.757928,18.023779 124.33204,17.9282506 124.966595,17.8539496 C125.601149,17.7796487 126.321308,17.7424987 127.127091,17.7424987 C129.504153,17.7424987 131.13584,18.4642688 132.022202,19.9078305 C132.908564,21.3513922 133.059647,23.3256455 132.475453,25.8306496 L130.420715,34.8740938 L125.918422,34.8740938 L127.912726,26.0217083 C128.033594,25.4697582 128.129279,24.9337378 128.199785,24.413631 C128.270292,23.8935242 128.265255,23.4371108 128.184677,23.0443771 C128.104099,22.6516434 127.917764,22.3332155 127.625667,22.0890837 C127.333571,21.844952 126.885361,21.7228879 126.281023,21.7228879 C125.69683,21.7228879 125.102573,21.7865735 124.498235,21.9139466 L121.567212,34.8740938 L117.064919,34.8740938 L120.721144,18.8888508 Z M139.546169,35.3198974 C138.53894,35.3198974 137.677771,35.1394549 136.962638,34.7785645 C136.247506,34.4176741 135.663321,33.9241107 135.210068,33.2978597 C134.756815,32.6716087 134.424434,31.9392244 134.212916,31.1006849 C134.001397,30.2621454 133.89564,29.36524 133.89564,28.4099418 C133.89564,26.9663801 134.142407,25.602447 134.63595,24.3181017 C135.129492,23.0337564 135.809362,21.9139514 136.67558,20.9586532 C137.541797,20.003355 138.569156,19.2497422 139.757686,18.6977922 C140.946217,18.1458421 142.245524,17.8698712 143.655645,17.8698712 C144.018248,17.8698712 144.355665,17.8910997 144.667906,17.9335574 C144.980147,17.9760151 145.29742,18.0397007 145.619733,18.1246161 L147.251437,10.9280725 L151.93503,10.1638377 L147.946422,27.6457071 C147.664397,28.8557514 147.58382,30.0710848 147.704688,31.2917435 C147.825555,32.5124023 148.057215,33.6003645 148.399673,34.5556627 L144.380847,35.1606818 C144.259979,34.9059357 144.149186,34.6618076 144.048463,34.4282902 C143.94774,34.1947729 143.847018,33.9294163 143.746295,33.6322124 C143.182247,34.1204759 142.552738,34.523818 141.857749,34.8422507 C141.162761,35.1606834 140.392242,35.3198974 139.546169,35.3198974 Z M144.743448,21.9139466 C144.62258,21.8927178 144.516823,21.8714892 144.426172,21.8502604 C144.335521,21.8290315 144.244872,21.8131101 144.154221,21.8024957 C144.063571,21.7918813 143.947741,21.7865742 143.806729,21.7865742 L143.262828,21.7865742 C142.557767,21.7865742 141.903078,21.9617095 141.29874,22.3119855 C140.694402,22.6622615 140.175687,23.1345963 139.742578,23.7290041 C139.309469,24.3234118 138.972053,24.9974177 138.730317,25.7510418 C138.488582,26.5046659 138.367717,27.2742001 138.367717,28.0596675 C138.367717,29.0786523 138.533907,29.8800293 138.866293,30.4638226 C139.198679,31.0476159 139.797971,31.3395082 140.664188,31.3395082 C141.127514,31.3395082 141.550544,31.2439798 141.933291,31.0529202 C142.316039,30.8618606 142.718924,30.5434326 143.141961,30.0976268 C143.18225,29.5669056 143.247719,29.0096567 143.338369,28.4258633 C143.42902,27.84207 143.524706,27.3060496 143.625428,26.8177861 L144.743448,21.9139466 Z M150.514844,28.3144124 C150.514844,26.9557661 150.741467,25.6395973 151.19472,24.3658664 C151.647974,23.0921354 152.287555,21.9617162 153.113483,20.9745748 C153.939411,19.9874333 154.94159,19.1913634 156.120048,18.5863413 C157.298507,17.9813191 158.602849,17.6788125 160.033115,17.6788125 C160.738176,17.6788125 161.392865,17.7849552 161.997203,17.9972437 C162.601541,18.2095321 163.130328,18.5173458 163.583582,18.9206939 C164.036835,19.3240421 164.38936,19.8176054 164.641167,20.4013987 C164.892975,20.9851921 165.018877,21.6485836 165.018877,22.3915933 C165.018877,23.5804088 164.767073,24.588764 164.263458,25.4166891 C163.759843,26.2446142 163.059829,26.91862 162.163395,27.4387268 C161.266961,27.9588336 160.20435,28.33564 158.97553,28.5691573 C157.74671,28.8026747 156.407114,28.9194316 154.956704,28.9194316 C155.097716,29.8110432 155.404916,30.442592 155.878314,30.8140968 C156.351712,31.1856017 157.102087,31.3713513 158.129461,31.3713513 C158.774088,31.3713513 159.428777,31.3129729 160.093549,31.1962142 C160.75832,31.0794555 161.382793,30.9043202 161.966986,30.6708028 L162.29937,34.3964471 C161.735322,34.6299645 161.015164,34.8422498 160.138874,35.0333094 C159.262584,35.224369 158.310767,35.3198974 157.283393,35.3198974 C156.034428,35.3198974 154.981889,35.1341478 154.125744,34.7626429 C153.269599,34.3911381 152.574621,33.8869605 152.040789,33.250095 C151.506957,32.6132296 151.11918,31.870231 150.877445,31.0210771 C150.63571,30.1719231 150.514844,29.2697106 150.514844,28.3144124 Z M159.307914,21.4362999 C158.28054,21.4362999 157.379083,21.8237206 156.603516,22.5985736 C155.827949,23.3734265 155.319306,24.3977031 155.077571,25.671434 C156.326536,25.6289763 157.33375,25.5175265 158.099244,25.3370813 C158.864739,25.1566361 159.458995,24.9390437 159.882032,24.6842975 C160.305068,24.4295513 160.587088,24.1535804 160.7281,23.8563765 C160.869112,23.5591727 160.939617,23.2619732 160.939617,22.9647694 C160.939617,21.9457846 160.395722,21.4362999 159.307914,21.4362999 Z M176.561669,22.2005346 C176.158777,22.0943904 175.760928,21.9935549 175.368108,21.8980251 C174.975289,21.8024952 174.39614,21.754731 173.630646,21.754731 C173.348622,21.754731 173.036385,21.7812667 172.693927,21.8343388 C172.351469,21.887411 172.069449,21.9457894 171.847859,22.009476 L168.916835,34.8740938 L164.414542,34.8740938 L168.04055,19.0162233 C168.906767,18.7190194 169.878729,18.4377414 170.956465,18.1723808 C172.034201,17.9070202 173.247894,17.7743419 174.597581,17.7743419 C175.101196,17.7743419 175.6602,17.8221061 176.27461,17.9176359 C176.88902,18.0131657 177.42788,18.1670725 177.891206,18.379361 L176.561669,22.2005346 Z" id="Viewfinder"></path>
            <path d="M174.688953,34.865297 L174.063227,34.865297 L174.063227,31.5682683 L173,31.5682683 L173,31 L175.762355,31 L175.762355,31.5682683 L174.688953,31.5682683 L174.688953,34.865297 Z M177.741279,34.865297 L176.71875,31.8684856 L176.678052,31.8684856 L176.708576,32.5600574 L176.708576,34.865297 L176.103198,34.865297 L176.103198,31 L177.054506,31 L178.051599,33.9968114 L179.084302,31 L180,31 L180,34.865297 L179.353924,34.865297 L179.353924,32.6136677 L179.384448,31.8792076 L179.34375,31.8792076 L178.270349,34.865297 L177.741279,34.865297 Z" id="™-copy"></path>
        </g>
    </g>
</svg>