<?xml version="1.0" encoding="UTF-8" standalone="no"?>
<svg width="50px" height="36px" viewBox="0 0 50 36" version="1.1" xmlns="http://www.w3.org/2000/svg" xmlns:xlink="http://www.w3.org/1999/xlink">
    <!-- Generator: Sketch 43.2 (39069) - http://www.bohemiancoding.com/sketch -->
    <title></title>
    <desc>Created with Sketch.</desc>
    <defs></defs>
    <g id="Web" stroke="none" stroke-width="1" fill="none" fill-rule="evenodd">
        <path d="M32.7272727,18.8181818 C32.7272727,18.5795443 32.6505689,18.3835235 32.4971591,18.2301136 L23.4971591,9.23011364 C23.3437492,9.07670378 23.1477285,9 22.9090909,9 C22.6704534,9 22.4744326,9.07670378 22.3210227,9.23011364 L13.3465909,18.2045455 C13.1761355,18.4090919 13.0909091,18.6136353 13.0909091,18.8181818 C13.0909091,19.0568194 13.1676129,19.2528401 13.3210227,19.40625 C13.4744326,19.5596599 13.6704534,19.6363636 13.9090909,19.6363636 L19.6363636,19.6363636 L19.6363636,28.6363636 C19.6363636,28.8579557 19.7173287,29.0497151 19.8792614,29.2116477 C20.041194,29.3735804 20.2329534,29.4545455 20.4545455,29.4545455 L25.3636364,29.4545455 C25.5852284,29.4545455 25.7769878,29.3735804 25.9389205,29.2116477 C26.1008531,29.0497151 26.1818182,28.8579557 26.1818182,28.6363636 L26.1818182,19.6363636 L31.9090909,19.6363636 C32.1306829,19.6363636 32.3224424,19.5553985 32.484375,19.3934659 C32.6463076,19.2315333 32.7272727,19.0397738 32.7272727,18.8181818 Z M49.0909091,26.1818182 C49.0909091,28.892059 48.1321119,31.2059563 46.2144886,33.1235795 C44.2968654,35.0412028 41.9829681,36 39.2727273,36 L11.4545455,36 C8.3011206,36 5.60370439,34.8792726 3.36221591,32.6377841 C1.12072743,30.3962956 0,27.6988794 0,24.5454545 C0,22.3295344 0.596584943,20.2841003 1.78977273,18.4090909 C2.98296051,16.5340815 4.58521722,15.1278456 6.59659091,14.1903409 C6.56249983,13.6789747 6.54545455,13.3125011 6.54545455,13.0909091 C6.54545455,9.47725466 7.82385085,6.39205824 10.3806818,3.83522727 C12.9375128,1.27839631 16.0227092,0 19.6363636,0 C22.2954678,0 24.7286821,0.741469858 26.9360795,2.22443182 C29.1434769,3.70739378 30.749995,5.67612409 31.7556818,8.13068182 C32.9659151,7.07385835 34.3806737,6.54545455 36,6.54545455 C37.8068272,6.54545455 39.3494254,7.1846527 40.6278409,8.46306818 C41.9062564,9.74148366 42.5454545,11.2840819 42.5454545,13.0909091 C42.5454545,14.3863701 42.1960262,15.5624947 41.4971591,16.6193182 C43.7130793,17.1477299 45.5326633,18.3025479 46.9559659,20.0838068 C48.3792685,21.8650657 49.0909091,23.8977159 49.0909091,26.1818182 Z" id="" fill="#1BAC95"></path>
    </g>
</svg>